<svg width="189" height="47" xmlns="http://www.w3.org/2000/svg"><g fill="none" fill-rule="evenodd"><g fill-rule="nonzero"><path d="M67.2 31.375c-2.517 0-4.583-.867-6.2-2.6-1.6-1.75-2.4-3.967-2.4-6.65 0-2.7.783-4.933 2.35-6.7 1.567-1.767 3.642-2.65 6.225-2.65 2.133 0 3.842.567 5.125 1.7 1.3 1.117 2.05 2.558 2.25 4.325h-3.6c-.167-.917-.583-1.642-1.25-2.175-.65-.533-1.492-.8-2.525-.8-1.583 0-2.792.583-3.625 1.75-.833 1.167-1.25 2.683-1.25 4.55 0 1.85.442 3.358 1.325 4.525.9 1.167 2.092 1.75 3.575 1.75 1.05 0 1.925-.283 2.625-.85.7-.583 1.108-1.35 1.225-2.3h3.55c-.1 1.683-.758 3.092-1.975 4.225-1.35 1.267-3.158 1.9-5.425 1.9zm12.39-18.25v6.725h.075c.483-.7 1.008-1.208 1.575-1.525.583-.333 1.3-.5 2.15-.5 1.317 0 2.383.45 3.2 1.35.817.883 1.225 2.033 1.225 3.45V31h-3.4v-7.875c0-.7-.2-1.267-.6-1.7-.383-.433-.925-.65-1.625-.65-.75 0-1.375.275-1.875.825-.483.55-.725 1.258-.725 2.125V31h-3.4V13.125h3.4zM97.985 31c-.166-.217-.3-.692-.4-1.425h-.05a3.8 3.8 0 01-1.4 1.275c-.566.3-1.358.45-2.375.45-1.35 0-2.433-.342-3.25-1.025-.816-.683-1.225-1.65-1.225-2.9 0-1.3.45-2.25 1.35-2.85.9-.617 2.167-1.042 3.8-1.275 1.2-.167 2.017-.333 2.45-.5.434-.183.65-.5.65-.95 0-.467-.183-.833-.55-1.1-.366-.283-.9-.425-1.6-.425-1.55 0-2.375.6-2.475 1.8h-3.025c.05-1.217.542-2.225 1.475-3.025.934-.8 2.284-1.2 4.05-1.2 3.6 0 5.4 1.575 5.4 4.725V29.1c0 .967.15 1.558.45 1.775V31h-3.275zm-3.4-2.075c.934 0 1.667-.242 2.2-.725.55-.483.825-1.058.825-1.725V24.55c-.366.217-1.158.467-2.375.75-.966.217-1.65.467-2.05.75-.4.267-.6.683-.6 1.25 0 1.083.667 1.625 2 1.625zM102.972 31V18.175h3.4V31h-3.4zm0-14.825v-3.05h3.4v3.05h-3.4zm8.916 2v1.75h.075c.883-1.4 2.15-2.1 3.8-2.1 1.317 0 2.383.45 3.2 1.35.817.883 1.225 2.033 1.225 3.45V31h-3.4v-7.875c0-.7-.2-1.267-.6-1.7-.383-.433-.925-.65-1.625-.65-.75 0-1.375.275-1.875.825-.483.55-.725 1.258-.725 2.125V31h-3.4V18.175h3.325z" fill="#2CD5C4"/><path d="M135.659 31l-.125-2.4h-.05c-1.1 1.85-2.775 2.775-5.025 2.775-2.617 0-4.709-.867-6.275-2.6-1.55-1.733-2.325-3.95-2.325-6.65 0-3.067.975-5.5 2.925-7.3 1.5-1.367 3.416-2.05 5.75-2.05 2.183 0 3.925.542 5.225 1.625 1.316 1.083 2.125 2.533 2.425 4.35h-3.55c-.217-.9-.667-1.617-1.35-2.15-.684-.55-1.575-.825-2.675-.825-1.617 0-2.867.592-3.75 1.775-.867 1.183-1.3 2.708-1.3 4.575 0 1.85.45 3.367 1.35 4.55.916 1.183 2.133 1.775 3.65 1.775 1.333 0 2.433-.408 3.3-1.225.866-.833 1.3-1.775 1.3-2.825v-.1h-4.3v-2.8h7.525V31h-2.725zm8.259-12.825v2.05h.075c.4-.75.842-1.3 1.325-1.65.483-.367 1.092-.55 1.825-.55.35 0 .617.033.8.1V21.1h-.075c-1.15-.117-2.075.133-2.775.75-.7.617-1.05 1.583-1.05 2.9V31h-3.4V18.175h3.275zM157.116 31c-.166-.217-.3-.692-.4-1.425h-.05a3.8 3.8 0 01-1.4 1.275c-.566.3-1.358.45-2.375.45-1.35 0-2.433-.342-3.25-1.025-.816-.683-1.225-1.65-1.225-2.9 0-1.3.45-2.25 1.35-2.85.9-.617 2.167-1.042 3.8-1.275 1.2-.167 2.017-.333 2.45-.5.434-.183.65-.5.65-.95 0-.467-.183-.833-.55-1.1-.366-.283-.9-.425-1.6-.425-1.55 0-2.375.6-2.475 1.8h-3.025c.05-1.217.542-2.225 1.475-3.025.934-.8 2.284-1.2 4.05-1.2 3.6 0 5.4 1.575 5.4 4.725V29.1c0 .967.15 1.558.45 1.775V31h-3.275zm-3.4-2.075c.934 0 1.667-.242 2.2-.725.55-.483.825-1.058.825-1.725V24.55c-.366.217-1.158.467-2.375.75-.966.217-1.65.467-2.05.75-.4.267-.6.683-.6 1.25 0 1.083.667 1.625 2 1.625zm8.387 6.275V18.175h3.275v1.6h.075c.95-1.3 2.208-1.95 3.775-1.95 1.683 0 3.033.625 4.05 1.875s1.525 2.883 1.525 4.9c0 2.067-.508 3.717-1.525 4.95-1.017 1.217-2.358 1.825-4.025 1.825-1.667 0-2.9-.608-3.7-1.825h-.05v5.65h-3.4zm6.425-6.65c.867 0 1.55-.342 2.05-1.025.517-.683.775-1.625.775-2.825 0-1.283-.242-2.292-.725-3.025-.483-.733-1.225-1.1-2.225-1.1-1.017 0-1.767.383-2.25 1.15-.483.75-.725 1.742-.725 2.975 0 1.183.267 2.125.8 2.825.533.683 1.3 1.025 2.3 1.025zm11.257-15.425v6.725h.075c.483-.7 1.008-1.208 1.575-1.525.583-.333 1.3-.5 2.15-.5 1.317 0 2.383.45 3.2 1.35.817.883 1.225 2.033 1.225 3.45V31h-3.4v-7.875c0-.7-.2-1.267-.6-1.7-.383-.433-.925-.65-1.625-.65-.75 0-1.375.275-1.875.825-.483.55-.725 1.258-.725 2.125V31h-3.4V13.125h3.4z" fill="#911C81"/></g><g opacity=".5" stroke-linecap="round" stroke="#911C81" stroke-width="2.27"><path d="M20.83 45.627L1.775 34.646l-.04-1.895-.332-15.333M1.31 13.117L19.899 2.575l.409.238.895.512L38.948 13.56l.466 21.528-14.524 8.235"/><path d="M1.31 13.117L20.366 24.17l14.704-8.396M20.83 45.627l-.464-21.457"/></g><path stroke="#911C81" stroke-width="2.27" stroke-linecap="round" d="M25.059 45.787L6.004 34.807l-.04-1.895-.333-15.333M5.538 13.277l18.59-10.542.409.238.895.512 17.745 10.236.466 21.529-14.797 8.389"/><path stroke="#911C81" stroke-width="2.27" stroke-linecap="round" d="M5.538 13.278L24.595 24.33l14.704-8.395M25.06 45.787l-.465-21.458"/><path d="M7.94 34.966a1.84 1.84 0 01-1.162 1.748c-.35.138-.738.17-1.114.091a2.018 2.018 0 01-1.546-1.525 1.883 1.883 0 01.088-1.103c.14-.348.38-.643.694-.85a1.897 1.897 0 011.065-.31 2.02 2.02 0 011.814 1.21c.102.236.157.487.16.739zM26.512 23.866a1.839 1.839 0 01-1.152 1.759c-.35.142-.74.175-1.116.097a2.018 2.018 0 01-1.553-1.524 1.881 1.881 0 01.087-1.106 1.83 1.83 0 01.696-.85 1.895 1.895 0 011.069-.308 2.003 2.003 0 011.375.575c.37.363.583.85.594 1.357zM45.576 35.273a1.837 1.837 0 01-1.155 1.755c-.35.141-.738.174-1.114.096a2.02 2.02 0 01-1.001-.536 1.99 1.99 0 01-.55-.986 1.884 1.884 0 01.085-1.105c.14-.348.38-.644.694-.851a1.896 1.896 0 011.066-.31c.255.002.507.054.744.153a2.02 2.02 0 011.07 1.05c.101.233.156.483.16.734zM26.055 2.759A1.84 1.84 0 0124.9 4.514c-.35.14-.738.174-1.115.095a2.018 2.018 0 01-1.55-1.525 1.882 1.882 0 01.088-1.105 1.83 1.83 0 01.696-.85A1.895 1.895 0 0124.086.82a2.008 2.008 0 011.376.579c.369.363.582.852.593 1.359z" fill="#911C81" fill-rule="nonzero"/></g></svg>