<?xml version="1.0" encoding="UTF-8"?>
<svg width="189px" height="47px" viewBox="0 0 189 47" version="1.1" xmlns="http://www.w3.org/2000/svg" xmlns:xlink="http://www.w3.org/1999/xlink">
    <!-- Generator: Sketch 64 (93537) - https://sketch.com -->
    <title>Untitled</title>
    <desc>Created with Sketch.</desc>
    <g id="Page-1" stroke="none" stroke-width="1" fill="none" fill-rule="evenodd">
        <g id="Group-2" transform="translate(2.000000, 0.000000)">
            <g id="Group" opacity="0.5" transform="translate(0.000000, 1.000000)" stroke-linecap="round" stroke-width="2.27">
                <polyline id="Path" stroke="#EEEEEE" points="18.6259 43.9181 0 33.1707 0 31.2782 0 15.9615"></polyline>
                <polyline id="Path" stroke="#EEEEEE" points="0 11.6648 18.6259 0.91223 19.0257 1.14499 19.901 1.64593 37.2468 11.6648 37.2468 33.1698 22.6942 41.5695"></polyline>
                <polyline id="Path" stroke="#EEEEEE" points="0 11.6653 18.6259 22.4837 33.3607 13.9221"></polyline>
                <line x1="18.6259" y1="43.9175" x2="18.6259" y2="22.4833" id="Path" stroke="#E5E5E5"></line>
            </g>
            <polyline id="Path" stroke="#FFFFFF" stroke-width="2.27" stroke-linecap="round" points="22.4665 44.918 3.84058 34.1705 3.84058 32.2781 3.84058 16.9614"></polyline>
            <polyline id="Path" stroke="#FFFFFF" stroke-width="2.27" stroke-linecap="round" points="3.84058 12.6648 22.4665 1.91223 22.8662 2.14499 23.7416 2.64593 41.0874 12.6648 41.0874 34.1698 26.2615 42.7263"></polyline>
            <polyline id="Path" stroke="#FFFFFF" stroke-width="2.27" stroke-linecap="round" points="3.84058 12.6654 22.4665 23.4837 37.2013 14.9222"></polyline>
            <line x1="22.4665" y1="44.9174" x2="22.4665" y2="23.4832" id="Path" stroke="#FFFFFF" stroke-width="2.27" stroke-linecap="round"></line>
            <path d="M5.75316703,34.307 C5.75114,34.6848 5.63727,35.0536 5.42589,35.3668 C5.21451,35.68 4.91509,35.9236 4.56542,36.0668 C4.21575,36.21 3.8315,36.2465 3.46114,36.1715 C3.09079,36.0966 2.75093,35.9136 2.48445,35.6457 C2.21796,35.3778 2.0368,35.037 1.96381,34.6663 C1.89083,34.2955 1.92929,33.9115 2.07435,33.5626 C2.21941,33.2137 2.46457,32.9155 2.77888,32.7058 C3.0932,32.4961 3.46259,32.3842 3.84046,32.3842 C4.09249,32.3842 4.34203,32.434 4.57475,32.5307 C4.80747,32.6275 5.01878,32.7693 5.19652,32.9479 C5.37426,33.1266 5.51494,33.3387 5.61046,33.5719 C5.70599,33.8051 5.75448,34.0549 5.75316703,34.307 Z" id="Path" fill="#FFFFFF" fill-rule="nonzero"></path>
            <path d="M24.3741067,22.9975 C24.3751,23.3763 24.2636,23.7468 24.0538,24.0621 C23.8441,24.3774 23.5454,24.6233 23.1957,24.7687 C22.846,24.9141 22.461,24.9524 22.0895,24.8788 C21.718,24.8051 21.3767,24.6229 21.1089,24.3551 C20.8411,24.0873 20.6589,23.746 20.5852,23.3745 C20.5116,23.003 20.5499,22.618 20.6953,22.2683 C20.8407,21.9186 21.0866,21.6199 21.4019,21.4101 C21.7172,21.2004 22.0877,21.0889 22.4664,21.0898933 C22.9724,21.0898933 23.4576,21.2909 23.8153,21.6486 C24.1731,22.0064 24.3741067,22.4916 24.3741067,22.9975 Z" id="Path" fill="#FFFFFF" fill-rule="nonzero"></path>
            <path d="M43.0000074,34.1708 C43.0000074,34.5491 42.8878,34.9189 42.6776,35.2334 C42.4675,35.548 42.1688,35.7931 41.8193,35.9379 C41.4698,36.0827 41.0852,36.1205 40.7142,36.0467 C40.3431,35.9729 40.0023,35.7908 39.7348,35.5233 C39.4673,35.2558 39.2852,34.915 39.2114,34.544 C39.1376,34.1729 39.1755,33.7884 39.3202,33.4389 C39.465,33.0894 39.7101,32.7906 40.0247,32.5805 C40.3392,32.3703 40.709,32.2580946 41.0873,32.2580946 C41.3387,32.2575 41.5877,32.3065 41.8201,32.4024 C42.0524,32.4982 42.2635,32.6391 42.4413,32.8168 C42.619,32.9946 42.7599,33.2057 42.8558,33.4381 C42.9516,33.6704 43.0007,33.9194 43.0000074,34.1708 Z" id="Path" fill="#FFFFFF" fill-rule="nonzero"></path>
            <path d="M24.3741,1.91269 C24.3741,2.2912 24.2618,2.6612 24.0514,2.97585 C23.841,3.2905 23.542,3.53565 23.1922,3.68026 C22.8424,3.82488 22.4575,3.86246 22.0864,3.78825 C21.7152,3.71404 21.3744,3.53137 21.1071,3.26337 C20.8398,2.99537 20.6581,2.65409 20.5848,2.28273 C20.5116,1.91137 20.5502,1.52664 20.6958,1.17723 C20.8413,0.827818 21.0872,0.529449 21.4024,0.31989 C21.7177,0.110331 22.0879,-0.00099465 22.4665,1.79418702e-11 C22.9729,0.00134638 23.4581,0.203452 23.8157,0.562005 C24.1733,0.920559 24.3741,1.40629 24.3741,1.91269 Z" id="Path" fill="#FFFFFF" fill-rule="nonzero"></path>
        </g>
        <g id="ChainGraph" transform="translate(58.000000, 11.000000)" fill-rule="nonzero">
            <path d="M9.2,19.375 C6.68333,19.375 4.61667,18.5083 3,16.774999 C1.4,15.025 0.6,12.8083 0.6,10.125 C0.6,7.425 1.38333,5.19167 2.95,3.425 C4.51667,1.65833 6.59167,0.774999 9.175,0.774999 C11.3083,0.774999 13.0167,1.34167 14.3,2.475 C15.6,3.59167 16.35,5.03333 16.55,6.8 L12.95,6.8 C12.7833,5.88333 12.3667,5.15833 11.7,4.625 C11.05,4.09167 10.2083,3.825 9.175,3.825 C7.59167,3.825 6.38333,4.40833 5.55,5.575 C4.71667,6.74167 4.3,8.25833 4.3,10.125 C4.3,11.975 4.74167,13.4833 5.625,14.65 C6.525,15.8167 7.71667,16.4 9.2,16.4 C10.25,16.4 11.125,16.1167 11.825,15.55 C12.525,14.9667 12.9333,14.2 13.05,13.25 L16.6,13.25 C16.5,14.9333 15.8417,16.3417 14.625,17.475 C13.275,18.7417 11.4667,19.375 9.2,19.375 Z M21.5898,1.125 L21.5898,7.85 L21.6648,7.85 C22.1482,7.15 22.6732,6.64167 23.2398,6.325 C23.8232,5.99167 24.5398,5.825 25.3898,5.825 C26.7065,5.825 27.7732,6.275 28.5898,7.175 C29.4065,8.05833 29.8148,9.20833 29.8148,10.625 L29.8148,19 L26.4148,19 L26.4148,11.125 C26.4148,10.425 26.2148,9.85833 25.8148,9.425 C25.4315,8.99167 24.8898,8.775 24.1898,8.775 C23.4398,8.775 22.8148,9.05 22.3148,9.6 C21.8315,10.15 21.5898,10.8583 21.5898,11.725 L21.5898,19 L18.1898,19 L18.1898,1.125 L21.5898,1.125 Z M39.9855,19 C39.8189,18.7833 39.6855,18.3083 39.5855,17.575 L39.5355,17.575 C39.1689,18.125 38.7022,18.55 38.1355,18.85 C37.5689,19.15 36.7772,19.3 35.7605,19.3 C34.4105,19.3 33.3272,18.9583 32.5105,18.275 C31.6939,17.5917 31.2855,16.625 31.2855,15.375 C31.2855,14.075 31.7355,13.125 32.6355,12.525 C33.5355,11.9083 34.8022,11.4833 36.4355,11.25 C37.6355,11.0833 38.4522,10.9167 38.8855,10.75 C39.3189,10.5667 39.5355,10.25 39.5355,9.8 C39.5355,9.33333 39.3522,8.96667 38.9855,8.7 C38.6189,8.41667 38.0855,8.275 37.3855,8.275 C35.8355,8.275 35.0105,8.875 34.9105,10.075 L31.8855,10.075 C31.9355,8.85833 32.4272,7.85 33.3605,7.05 C34.2939,6.25 35.6439,5.85 37.4105,5.85 C41.0105,5.85 42.8105,7.425 42.8105,10.575 L42.8105,17.1 C42.8105,18.0667 42.9605,18.6583 43.2605,18.875 L43.2605,19 L39.9855,19 Z M36.5855,16.925 C37.5189,16.925 38.2522,16.6833 38.7855,16.2 C39.3355,15.7167 39.6105,15.1417 39.6105,14.475 L39.6105,12.55 C39.2439,12.7667 38.4522,13.0167 37.2355,13.3 C36.2689,13.5167 35.5855,13.7667 35.1855,14.05 C34.7855,14.3167 34.5855,14.7333 34.5855,15.3 C34.5855,16.3833 35.2522,16.925 36.5855,16.925 Z M44.9721,19 L44.9721,6.175 L48.3721,6.175 L48.3721,19 L44.9721,19 Z M44.9721,4.175 L44.9721,1.125 L48.3721,1.125 L48.3721,4.175 L44.9721,4.175 Z M53.8879,6.175 L53.8879,7.925 L53.9629,7.925 C54.8462,6.525 56.1129,5.825 57.7629,5.825 C59.0796,5.825 60.1462,6.275 60.9629,7.175 C61.7796,8.05833 62.1879,9.20833 62.1879,10.625 L62.1879,19 L58.7879,19 L58.7879,11.125 C58.7879,10.425 58.5879,9.85833 58.1879,9.425 C57.8046,8.99167 57.2629,8.775 56.5629,8.775 C55.8129,8.775 55.1879,9.05 54.6879,9.6 C54.2046,10.15 53.9629,10.8583 53.9629,11.725 L53.9629,19 L50.5629,19 L50.5629,6.175 L53.8879,6.175 Z" id="Shape" fill="#2CD5C4"></path>
            <path d="M77.6586,19 L77.5336,16.6 L77.4836,16.6 C76.3836,18.45 74.7086,19.375 72.4586,19.375 C69.8419,19.375 67.7503,18.5083 66.1836,16.774999 C64.6336,15.0417 63.8586,12.825 63.8586,10.125 C63.8586,7.05833 64.8336,4.625 66.7836,2.825 C68.2836,1.45833 70.2003,0.774999 72.5336,0.774999 C74.7169,0.774999 76.4586,1.31667 77.7586,2.4 C79.0753,3.48333 79.8836,4.93333 80.1836,6.75 L76.6336,6.75 C76.4169,5.85 75.9669,5.13333 75.2836,4.6 C74.6003,4.05 73.7086,3.774999 72.6086,3.774999 C70.9919,3.774999 69.7419,4.36667 68.8586,5.55 C67.9919,6.73333 67.5586,8.25833 67.5586,10.125 C67.5586,11.975 68.0086,13.4917 68.9086,14.675 C69.8253,15.8583 71.0419,16.45 72.5586,16.45 C73.8919,16.45 74.9919,16.0417 75.8586,15.225 C76.7253,14.3917 77.1586,13.45 77.1586,12.4 L77.1586,12.3 L72.8586,12.3 L72.8586,9.5 L80.3836,9.5 L80.3836,19 L77.6586,19 Z M85.918,6.175 L85.918,8.225 L85.993,8.225 C86.393,7.475 86.8346,6.925 87.318,6.575 C87.8013,6.20833 88.4096,6.025 89.143,6.025 C89.493,6.025 89.7596,6.05833 89.943,6.125 L89.943,9.1 L89.868,9.1 C88.718,8.98333 87.793,9.23333 87.093,9.85 C86.393,10.4667 86.043,11.4333 86.043,12.75 L86.043,19 L82.643,19 L82.643,6.175 L85.918,6.175 Z M99.1164,19 C98.9497,18.7833 98.8164,18.3083 98.7164,17.575 L98.6664,17.575 C98.2997,18.125 97.8331,18.55 97.2664,18.85 C96.6997,19.15 95.9081,19.3 94.8914,19.3 C93.5414,19.3 92.4581,18.9583 91.6414,18.275 C90.8247,17.5917 90.4164,16.625 90.4164,15.375 C90.4164,14.075 90.8664,13.125 91.7664,12.525 C92.6664,11.9083 93.9331,11.4833 95.5664,11.25 C96.7664,11.0833 97.5831,10.9167 98.0164,10.75 C98.4497,10.5667 98.6664,10.25 98.6664,9.8 C98.6664,9.33333 98.4831,8.96667 98.1164,8.7 C97.7497,8.41667 97.2164,8.275 96.5164,8.275 C94.9664,8.275 94.1414,8.875 94.0414,10.075 L91.0164,10.075 C91.0664,8.85833 91.5581,7.85 92.4914,7.05 C93.4247,6.25 94.7747,5.85 96.5414,5.85 C100.141,5.85 101.941,7.425 101.941,10.575 L101.941,17.1 C101.941,18.0667 102.091,18.6583 102.391,18.875 L102.391,19 L99.1164,19 Z M95.7164,16.925 C96.6497,16.925 97.3831,16.6833 97.9164,16.2 C98.4664,15.7167 98.7414,15.1417 98.7414,14.475 L98.7414,12.55 C98.3747,12.7667 97.5831,13.0167 96.3664,13.3 C95.3997,13.5167 94.7164,13.7667 94.3164,14.05 C93.9164,14.3167 93.7164,14.7333 93.7164,15.3 C93.7164,16.3833 94.3831,16.925 95.7164,16.925 Z M104.103,23.2 L104.103,6.175 L107.378,6.175 L107.378,7.775 L107.453,7.775 C108.403,6.475 109.661,5.825 111.228,5.825 C112.911,5.825 114.261,6.45 115.278,7.7 C116.295,8.95 116.803,10.5833 116.803,12.6 C116.803,14.6667 116.295,16.3167 115.278,17.55 C114.261,18.7667 112.92,19.375 111.253,19.375 C109.586,19.375 108.353,18.7667 107.553,17.55 L107.503,17.55 L107.503,23.2 L104.103,23.2 Z M110.528,16.55 C111.395,16.55 112.078,16.2083 112.578,15.525 C113.095,14.8417 113.353,13.9 113.353,12.7 C113.353,11.4167 113.111,10.4083 112.628,9.675 C112.145,8.94167 111.403,8.575 110.403,8.575 C109.386,8.575 108.636,8.95833 108.153,9.725 C107.67,10.475 107.428,11.4667 107.428,12.7 C107.428,13.8833 107.695,14.825 108.228,15.525 C108.761,16.2083 109.528,16.55 110.528,16.55 Z M121.785,1.125 L121.785,7.85 L121.86,7.85 C122.343,7.15 122.868,6.64167 123.435,6.325 C124.018,5.99167 124.735,5.825 125.585,5.825 C126.902,5.825 127.968,6.275 128.785,7.175 C129.602,8.05833 130.01,9.20833 130.01,10.625 L130.01,19 L126.61,19 L126.61,11.125 C126.61,10.425 126.41,9.85833 126.01,9.425 C125.627,8.99167 125.085,8.775 124.385,8.775 C123.635,8.775 123.01,9.05 122.51,9.6 C122.027,10.15 121.785,10.8583 121.785,11.725 L121.785,19 L118.385,19 L118.385,1.125 L121.785,1.125 Z" id="Shape" fill="#911C81"></path>
        </g>
    </g>
</svg>