<?xml version="1.0" encoding="UTF-8"?>
<svg width="78px" height="82px" viewBox="0 0 78 82" version="1.1" xmlns="http://www.w3.org/2000/svg" xmlns:xlink="http://www.w3.org/1999/xlink">
    <!-- Generator: Sketch 64 (93537) - https://sketch.com -->
    <title>Untitled</title>
    <desc>Created with Sketch.</desc>
    <g id="Page-1" stroke="none" stroke-width="1" fill="none" fill-rule="evenodd">
        <g id="chaingraph_logo-d" transform="translate(1.000000, 0.000000)">
            <g id="Group" opacity="0.5" transform="translate(0.000000, 3.000000)" stroke="#C395BE">
                <polyline id="Path" points="33.1857 77.0301 0 57.8814 0 54.5096 0 27.22"></polyline>
                <polyline id="Path" points="0 19.5648 33.1857 0.4071 33.8979 0.82181 35.4575 1.71434 66.3623 19.5648 66.3623 57.8802 40.434 72.8458"></polyline>
                <polyline id="Path" points="0 19.5658 33.1857 38.8407 59.4385 23.5867"></polyline>
                <line x1="33.1858" y1="77.0293" x2="33.1858" y2="38.8401" id="Path"></line>
            </g>
            <polyline id="Path" stroke="#862B7D" stroke-width="2.27" stroke-linecap="round" points="40.0284 80.03 6.84277 60.8813 6.84277 57.5095 6.84277 30.2199"></polyline>
            <polyline id="Path" stroke="#862B7D" stroke-width="2.27" stroke-linecap="round" points="6.84277 22.5648 40.0284 3.4071 40.7407 3.82181 42.3003 4.71434 73.2051 22.5648 73.2051 60.8802 46.79 76.1253"></polyline>
            <polyline id="Path" stroke="#862B7D" stroke-width="2.27" stroke-linecap="round" points="6.84277 22.5659 40.0284 41.8408 66.2813 26.5868"></polyline>
            <line x1="40.0283" y1="80.0292" x2="40.0283" y2="41.84" id="Path" stroke="#862B7D" stroke-width="2.27" stroke-linecap="round"></line>
            <path d="M10.2504954,61.1243 C10.2468,61.7976 10.044,62.4546 9.6673,63.0127 C9.2907,63.5707 8.7573,64.0047 8.1343,64.2599 C7.51125,64.515 6.82663,64.58 6.16677,64.4464 C5.50691,64.3129 4.90138,63.9869 4.42659,63.5096 C3.9518,63.0323 3.62903,62.4251 3.49899,61.7645 C3.36895,61.104 3.43748,60.4197 3.69593,59.7981 C3.95439,59.1764 4.39118,58.6452 4.95119,58.2716 C5.51121,57.8979 6.16935,57.6985 6.84259,57.6985 C7.29163,57.6985 7.73625,57.7872 8.1509,57.9596 C8.5655,58.132 8.942,58.3846 9.2587,58.703 C9.5754,59.0213 9.826,59.3991 9.9962,59.8147 C10.1664,60.2302 10.2528,60.6753 10.2504954,61.1243 Z" id="Path" fill="#862B7D" fill-rule="nonzero"></path>
            <path d="M43.4270215,40.9748 C43.4287,41.6496 43.2302,42.3097 42.8564,42.8715 C42.4826,43.4333 41.9505,43.8714 41.3274,44.1305 C40.7044,44.3895 40.0184,44.4578 39.3565,44.3266 C38.6946,44.1954 38.0866,43.8706 37.6095,43.3935 C37.1323,42.9164 36.8076,42.3083 36.6764,41.6464 C36.5452,40.9845 36.6134,40.2986 36.8725,39.6755 C37.1315,39.0525 37.5697,38.5203 38.1315,38.1466 C38.6933,37.7728 39.3534,37.5742 40.0282,37.5759759 C40.9296,37.5759759 41.7941,37.9341 42.4315,38.5715 C43.0689,39.2089 43.4270215,40.0734 43.4270215,40.9748 Z" id="Path" fill="#862B7D" fill-rule="nonzero"></path>
            <path d="M76.6128204,60.8816 C76.6128204,61.5556 76.4129,62.2145 76.0384,62.7749 C75.664,63.3353 75.1317,63.7721 74.5091,64.03 C73.8864,64.2879 73.2012,64.3554 72.5401,64.2239 C71.8791,64.0924 71.2718,63.7679 70.7952,63.2913 C70.3187,62.8147 69.9941,62.2075 69.8626,61.5464 C69.7311,60.8854 69.7986,60.2002 70.0565,59.5775 C70.3145,58.9548 70.7512,58.4225 71.3117,58.0481 C71.8721,57.6736 72.5309,57.4737758 73.2049,57.4737758 C73.6528,57.4726 74.0965,57.5599 74.5105,57.7308 C74.9245,57.9016 75.3006,58.1526 75.6173,58.4692 C75.934,58.7859 76.1849,59.1621 76.3558,59.5761 C76.5266,59.9901 76.6139,60.4337 76.6128204,60.8816 Z" id="Path" fill="#862B7D" fill-rule="nonzero"></path>
            <path d="M43.427,3.40783 C43.427,4.08222 43.2269,4.74144 42.852,5.30205 C42.4772,5.86265 41.9444,6.29944 41.3212,6.5571 C40.698,6.81476 40.0123,6.88172 39.351,6.74949 C38.6897,6.61727 38.0825,6.29181 37.6063,5.81432 C37.13,5.33682 36.8062,4.72876 36.6757,4.06712 C36.5452,3.40547 36.614,2.71999 36.8733,2.09746 C37.1326,1.47492 37.5708,0.943315 38.1324,0.569945 C38.694,0.196575 39.3538,-0.00177216 40.0282,-1.17722904e-05 C40.9304,0.00239883 41.7949,0.362489 42.432,1.00132 C43.0692,1.64015 43.427,2.50558 43.427,3.40783 Z" id="Path" fill="#862B7D" fill-rule="nonzero"></path>
        </g>
    </g>
</svg>