<svg width="78" height="82" xmlns="http://www.w3.org/2000/svg"><g fill="none" fill-rule="evenodd"><g opacity=".5" stroke="#C395BE"><path d="M34.186 80.03L1 60.881V30.22M1 22.565L34.186 3.407l.712.415 1.56.892 30.904 17.85V60.88L41.434 75.846"/><path d="M1 22.566L34.186 41.84l26.252-15.254M34.186 80.029V41.84"/></g><path stroke="#862B7D" stroke-width="2.27" stroke-linecap="round" d="M41.028 80.03L7.843 60.881V30.22M7.843 22.565L41.028 3.407l.713.415 1.56.892 30.904 17.85V60.88L47.79 76.125"/><path stroke="#862B7D" stroke-width="2.27" stroke-linecap="round" d="M7.843 22.566L41.028 41.84l26.253-15.254M41.028 80.029V41.84"/><path d="M11.25 61.124a3.408 3.408 0 11-6.816-.036 3.408 3.408 0 016.816.036zM44.427 40.975a3.409 3.409 0 11-3.399-3.399 3.399 3.399 0 013.399 3.399zM77.613 60.882a3.408 3.408 0 11-3.408-3.408 3.398 3.398 0 013.408 3.408zM44.427 3.408a3.408 3.408 0 11-6.815 0 3.408 3.408 0 016.815 0z" fill="#862B7D" fill-rule="nonzero"/></g></svg>