<?xml version="1.0" encoding="UTF-8"?>
<svg width="189px" height="47px" viewBox="0 0 189 47" version="1.1" xmlns="http://www.w3.org/2000/svg" xmlns:xlink="http://www.w3.org/1999/xlink">
    <!-- Generator: Sketch 64 (93537) - https://sketch.com -->
    <title>Untitled</title>
    <desc>Created with Sketch.</desc>
    <g id="Page-1" stroke="none" stroke-width="1" fill="none" fill-rule="evenodd">
        <g id="chaingraph_logo-d-m" transform="translate(-10.000000, -8.000000)">
            <g id="ChainGraph" transform="translate(68.000000, 20.000000)" fill-rule="nonzero">
                <path d="M9.2,19.375 C6.68333,19.375 4.61667,18.5083 3,16.774999 C1.4,15.025 0.6,12.8083 0.6,10.125 C0.6,7.425 1.38333,5.19167 2.95,3.425 C4.51667,1.65833 6.59167,0.774999 9.175,0.774999 C11.3083,0.774999 13.0167,1.34167 14.3,2.475 C15.6,3.59167 16.35,5.03333 16.55,6.8 L12.95,6.8 C12.7833,5.88333 12.3667,5.15833 11.7,4.625 C11.05,4.09167 10.2083,3.825 9.175,3.825 C7.59167,3.825 6.38333,4.40833 5.55,5.575 C4.71667,6.74167 4.3,8.25833 4.3,10.125 C4.3,11.975 4.74167,13.4833 5.625,14.65 C6.525,15.8167 7.71667,16.4 9.2,16.4 C10.25,16.4 11.125,16.1167 11.825,15.55 C12.525,14.9667 12.9333,14.2 13.05,13.25 L16.6,13.25 C16.5,14.9333 15.8417,16.3417 14.625,17.475 C13.275,18.7417 11.4667,19.375 9.2,19.375 Z M21.5898,1.125 L21.5898,7.85 L21.6648,7.85 C22.1482,7.15 22.6732,6.64167 23.2398,6.325 C23.8232,5.99167 24.5398,5.825 25.3898,5.825 C26.7065,5.825 27.7732,6.275 28.5898,7.175 C29.4065,8.05833 29.8148,9.20833 29.8148,10.625 L29.8148,19 L26.4148,19 L26.4148,11.125 C26.4148,10.425 26.2148,9.85833 25.8148,9.425 C25.4315,8.99167 24.8898,8.775 24.1898,8.775 C23.4398,8.775 22.8148,9.05 22.3148,9.6 C21.8315,10.15 21.5898,10.8583 21.5898,11.725 L21.5898,19 L18.1898,19 L18.1898,1.125 L21.5898,1.125 Z M39.9855,19 C39.8189,18.7833 39.6855,18.3083 39.5855,17.575 L39.5355,17.575 C39.1689,18.125 38.7022,18.55 38.1355,18.85 C37.5689,19.15 36.7772,19.3 35.7605,19.3 C34.4105,19.3 33.3272,18.9583 32.5105,18.275 C31.6939,17.5917 31.2855,16.625 31.2855,15.375 C31.2855,14.075 31.7355,13.125 32.6355,12.525 C33.5355,11.9083 34.8022,11.4833 36.4355,11.25 C37.6355,11.0833 38.4522,10.9167 38.8855,10.75 C39.3189,10.5667 39.5355,10.25 39.5355,9.8 C39.5355,9.33333 39.3522,8.96667 38.9855,8.7 C38.6189,8.41667 38.0855,8.275 37.3855,8.275 C35.8355,8.275 35.0105,8.875 34.9105,10.075 L31.8855,10.075 C31.9355,8.85833 32.4272,7.85 33.3605,7.05 C34.2939,6.25 35.6439,5.85 37.4105,5.85 C41.0105,5.85 42.8105,7.425 42.8105,10.575 L42.8105,17.1 C42.8105,18.0667 42.9605,18.6583 43.2605,18.875 L43.2605,19 L39.9855,19 Z M36.5855,16.925 C37.5189,16.925 38.2522,16.6833 38.7855,16.2 C39.3355,15.7167 39.6105,15.1417 39.6105,14.475 L39.6105,12.55 C39.2439,12.7667 38.4522,13.0167 37.2355,13.3 C36.2689,13.5167 35.5855,13.7667 35.1855,14.05 C34.7855,14.3167 34.5855,14.7333 34.5855,15.3 C34.5855,16.3833 35.2522,16.925 36.5855,16.925 Z M44.9721,19 L44.9721,6.175 L48.3721,6.175 L48.3721,19 L44.9721,19 Z M44.9721,4.175 L44.9721,1.125 L48.3721,1.125 L48.3721,4.175 L44.9721,4.175 Z M53.8879,6.175 L53.8879,7.925 L53.9629,7.925 C54.8462,6.525 56.1129,5.825 57.7629,5.825 C59.0796,5.825 60.1462,6.275 60.9629,7.175 C61.7796,8.05833 62.1879,9.20833 62.1879,10.625 L62.1879,19 L58.7879,19 L58.7879,11.125 C58.7879,10.425 58.5879,9.85833 58.1879,9.425 C57.8046,8.99167 57.2629,8.775 56.5629,8.775 C55.8129,8.775 55.1879,9.05 54.6879,9.6 C54.2046,10.15 53.9629,10.8583 53.9629,11.725 L53.9629,19 L50.5629,19 L50.5629,6.175 L53.8879,6.175 Z" id="Shape" fill="#2CD5C4"></path>
                <path d="M77.6586,19 L77.5336,16.6 L77.4836,16.6 C76.3836,18.45 74.7086,19.375 72.4586,19.375 C69.8419,19.375 67.7503,18.5083 66.1836,16.774999 C64.6336,15.0417 63.8586,12.825 63.8586,10.125 C63.8586,7.05833 64.8336,4.625 66.7836,2.825 C68.2836,1.45833 70.2003,0.774999 72.5336,0.774999 C74.7169,0.774999 76.4586,1.31667 77.7586,2.4 C79.0753,3.48333 79.8836,4.93333 80.1836,6.75 L76.6336,6.75 C76.4169,5.85 75.9669,5.13333 75.2836,4.6 C74.6003,4.05 73.7086,3.774999 72.6086,3.774999 C70.9919,3.774999 69.7419,4.36667 68.8586,5.55 C67.9919,6.73333 67.5586,8.25833 67.5586,10.125 C67.5586,11.975 68.0086,13.4917 68.9086,14.675 C69.8253,15.8583 71.0419,16.45 72.5586,16.45 C73.8919,16.45 74.9919,16.0417 75.8586,15.225 C76.7253,14.3917 77.1586,13.45 77.1586,12.4 L77.1586,12.3 L72.8586,12.3 L72.8586,9.5 L80.3836,9.5 L80.3836,19 L77.6586,19 Z M85.918,6.175 L85.918,8.225 L85.993,8.225 C86.393,7.475 86.8346,6.925 87.318,6.575 C87.8013,6.20833 88.4096,6.025 89.143,6.025 C89.493,6.025 89.7596,6.05833 89.943,6.125 L89.943,9.1 L89.868,9.1 C88.718,8.98333 87.793,9.23333 87.093,9.85 C86.393,10.4667 86.043,11.4333 86.043,12.75 L86.043,19 L82.643,19 L82.643,6.175 L85.918,6.175 Z M99.1164,19 C98.9497,18.7833 98.8164,18.3083 98.7164,17.575 L98.6664,17.575 C98.2997,18.125 97.8331,18.55 97.2664,18.85 C96.6997,19.15 95.9081,19.3 94.8914,19.3 C93.5414,19.3 92.4581,18.9583 91.6414,18.275 C90.8247,17.5917 90.4164,16.625 90.4164,15.375 C90.4164,14.075 90.8664,13.125 91.7664,12.525 C92.6664,11.9083 93.9331,11.4833 95.5664,11.25 C96.7664,11.0833 97.5831,10.9167 98.0164,10.75 C98.4497,10.5667 98.6664,10.25 98.6664,9.8 C98.6664,9.33333 98.4831,8.96667 98.1164,8.7 C97.7497,8.41667 97.2164,8.275 96.5164,8.275 C94.9664,8.275 94.1414,8.875 94.0414,10.075 L91.0164,10.075 C91.0664,8.85833 91.5581,7.85 92.4914,7.05 C93.4247,6.25 94.7747,5.85 96.5414,5.85 C100.141,5.85 101.941,7.425 101.941,10.575 L101.941,17.1 C101.941,18.0667 102.091,18.6583 102.391,18.875 L102.391,19 L99.1164,19 Z M95.7164,16.925 C96.6497,16.925 97.3831,16.6833 97.9164,16.2 C98.4664,15.7167 98.7414,15.1417 98.7414,14.475 L98.7414,12.55 C98.3747,12.7667 97.5831,13.0167 96.3664,13.3 C95.3997,13.5167 94.7164,13.7667 94.3164,14.05 C93.9164,14.3167 93.7164,14.7333 93.7164,15.3 C93.7164,16.3833 94.3831,16.925 95.7164,16.925 Z M104.103,23.2 L104.103,6.175 L107.378,6.175 L107.378,7.775 L107.453,7.775 C108.403,6.475 109.661,5.825 111.228,5.825 C112.911,5.825 114.261,6.45 115.278,7.7 C116.295,8.95 116.803,10.5833 116.803,12.6 C116.803,14.6667 116.295,16.3167 115.278,17.55 C114.261,18.7667 112.92,19.375 111.253,19.375 C109.586,19.375 108.353,18.7667 107.553,17.55 L107.503,17.55 L107.503,23.2 L104.103,23.2 Z M110.528,16.55 C111.395,16.55 112.078,16.2083 112.578,15.525 C113.095,14.8417 113.353,13.9 113.353,12.7 C113.353,11.4167 113.111,10.4083 112.628,9.675 C112.145,8.94167 111.403,8.575 110.403,8.575 C109.386,8.575 108.636,8.95833 108.153,9.725 C107.67,10.475 107.428,11.4667 107.428,12.7 C107.428,13.8833 107.695,14.825 108.228,15.525 C108.761,16.2083 109.528,16.55 110.528,16.55 Z M121.785,1.125 L121.785,7.85 L121.86,7.85 C122.343,7.15 122.868,6.64167 123.435,6.325 C124.018,5.99167 124.735,5.825 125.585,5.825 C126.902,5.825 127.968,6.275 128.785,7.175 C129.602,8.05833 130.01,9.20833 130.01,10.625 L130.01,19 L126.61,19 L126.61,11.125 C126.61,10.425 126.41,9.85833 126.01,9.425 C125.627,8.99167 125.085,8.775 124.385,8.775 C123.635,8.775 123.01,9.05 122.51,9.6 C122.027,10.15 121.785,10.8583 121.785,11.725 L121.785,19 L118.385,19 L118.385,1.125 L121.785,1.125 Z" id="Shape" fill="#911C81"></path>
            </g>
            <g id="chaingraph_logo-l" transform="translate(33.000000, 32.500000) rotate(37.000000) translate(-33.000000, -32.500000) translate(8.000000, 11.000000)">
                <g id="Group" opacity="0.5" stroke-linecap="round" transform="translate(0.477689, 2.801157)" stroke="#911C81" stroke-width="2.27">
                    <polyline id="Path" points="35.5038 36.8774432 13.6774 39.5752273 12.5045 38.0867614 3.0119 26.0407159"></polyline>
                    <polyline id="Path" points="0.34905 22.6615795 8.8507 3.05512216 9.3204 2.99885795 10.34365 2.8687983 30.6761 0.364582386 44.004 17.2775057 37.36075 32.5950852"></polyline>
                    <polyline id="Path" points="0.34935 22.6619659 22.2197 20.0201563 28.91095 4.46617045"></polyline>
                    <line x1="35.5036" y1="36.8769602" x2="22.21955" y2="20.0198665" id="Path"></line>
                </g>
                <polyline id="Path" stroke="#911C81" stroke-width="2.27" stroke-linecap="round" points="39.45534 37.2617488 17.62894 39.9592431 16.45609 38.4707772 6.96344 26.4249732"></polyline>
                <polyline id="Path" stroke="#911C81" stroke-width="2.27" stroke-linecap="round" points="4.30059036 23.0458367 12.8022404 3.43937932 13.2719404 3.38311512 14.2951904 3.25305546 34.6276404 0.748839552 47.9554904 17.6617628 41.1870404 33.266314"></polyline>
                <polyline id="Path" stroke="#911C81" stroke-width="2.27" stroke-linecap="round" points="4.30103982 23.0464162 26.1713398 20.4045582 32.8626398 4.85057241"></polyline>
                <line x1="39.4550898" y1="37.2614113" x2="26.1710398" y2="20.4041726" id="Path" stroke="#911C81" stroke-width="2.27" stroke-linecap="round"></line>
                <path d="M19.2708902,38.9218573 C19.5034402,39.2198403 19.6392402,39.5781925 19.6612902,39.9510335 C19.6832902,40.3238744 19.5904402,40.6947835 19.3944902,41.0169141 C19.1985402,41.3385619 18.9082402,41.5974255 18.5602402,41.7601812 C18.2122402,41.9229369 17.8221402,41.9823403 17.4391402,41.9311471 C17.0561402,41.8799539 16.6973902,41.7205789 16.4081902,41.4728232 C16.1189902,41.2245846 15.9122902,40.8995562 15.8141902,40.5383062 C15.7160402,40.1770562 15.7308902,39.796005 15.8568402,39.4429653 C15.9827902,39.0899255 16.2141902,38.7808346 16.5218402,38.5543289 C16.7270402,38.4036471 16.9610902,38.2935335 17.2105402,38.2302664 C17.4599902,38.1669994 17.7199402,38.1520278 17.9753902,38.1863175 C18.2308402,38.2201244 18.4767902,38.3027096 18.6991402,38.4292437 C18.9214402,38.5552948 19.1157402,38.72288 19.2708902,38.9218573 Z" id="Path" fill="#911C81" fill-rule="nonzero"></path>
                <path d="M27.42329,18.8804018 C27.65879,19.1776604 27.79769,19.5357712 27.82229,19.9093365 C27.84689,20.2829018 27.75614,20.6551149 27.56149,20.9787911 C27.36689,21.3025155 27.07714,21.5630695 26.72904,21.7275638 C26.38094,21.8920581 25.99009,21.953007 25.60609,21.9026831 C25.22204,21.8523592 24.86214,21.6930808 24.57194,21.4449871 C24.28174,21.1969416 24.07434,20.8711888 23.97599,20.5091661 C23.87764,20.147095 23.89279,19.7649814 24.01949,19.4112172 C24.14624,19.0575013 24.37879,18.748024 24.68779,18.5220979 C25.09974,18.2192371 25.61934,18.0868592 26.13234,18.1540382 C26.64539,18.2212172 27.10974,18.4825439 27.42329,18.8804018 Z" id="Path" fill="#911C81" fill-rule="nonzero"></path>
                <path d="M49.5134905,16.5174988 C49.7479905,16.8150471 49.8854905,17.173013 49.9094905,17.546192 C49.9334905,17.919371 49.8419905,18.2910045 49.6469905,18.6141011 C49.4524905,18.9371494 49.1624905,19.1971721 48.8149905,19.3612317 C48.4669905,19.5252914 48.0764905,19.5860471 47.6929905,19.5358198 C47.3094905,19.4855442 46.9499905,19.3265556 46.6599905,19.0789448 C46.3699905,18.831334 46.1624905,18.506209 46.0634905,18.1446692 C45.9649905,17.7831295 45.9794905,17.4014505 46.1049905,17.0478795 C46.2309905,16.6943085 46.4624905,16.3846863 46.7704905,16.1582289 C46.9749905,16.0072573 47.2079905,15.896709 47.4564905,15.8330556 C47.7054905,15.7693539 47.9644905,15.7537545 48.2194905,15.7871266 C48.4739905,15.8205471 48.7199905,15.9022147 48.9419905,16.0275897 C49.1639905,16.1529164 49.3579905,16.3194391 49.5134905,16.5174988 Z" id="Path" fill="#911C81" fill-rule="nonzero"></path>
                <path d="M14.3556902,2.29786806 C14.5902902,2.59556124 14.7281402,2.95376863 14.7518402,3.32718908 C14.7755402,3.70056124 14.6839902,4.07238794 14.4888402,4.39553283 C14.2936402,4.71862942 14.0035902,4.97860385 13.6553902,5.14242203 C13.3071902,5.30624022 12.9164902,5.36656124 12.5327902,5.31580272 C12.1490402,5.26504419 11.7895402,5.10547601 11.4997402,4.85723738 C11.2099902,4.60899874 11.0029902,4.28334249 10.9049402,3.92141635 C10.8068902,3.55949022 10.8222402,3.17761806 10.9489902,2.82409533 C11.0757402,2.4705726 11.3082402,2.1613851 11.6170902,1.93555556 C12.0302402,1.63346749 12.5505402,1.50195897 13.0639402,1.56991067 C13.5772902,1.63781408 14.0418402,1.89962374 14.3556902,2.29786806 Z" id="Path" fill="#911C81" fill-rule="nonzero"></path>
            </g>
        </g>
    </g>
</svg>