<?xml version="1.0" encoding="UTF-8"?>
<svg width="269px" height="198px" viewBox="0 0 269 198" version="1.1" xmlns="http://www.w3.org/2000/svg" xmlns:xlink="http://www.w3.org/1999/xlink">
    <!-- Generator: Sketch 64 (93537) - https://sketch.com -->
    <title>Untitled</title>
    <desc>Created with Sketch.</desc>
    <g id="Page-1" stroke="none" stroke-width="1" fill="none" fill-rule="evenodd">
        <g id="ChainGraph" transform="translate(0.000000, 151.000000)" fill-rule="nonzero">
            <path d="M17.9465627,39.8518519 C12.6947516,39.8518519 8.3820256,38.0413084 5.00834309,34.4204304 C1.6694477,30.764666 0,26.1339614 0,20.5285255 C0,14.8882033 1.63466058,10.2227585 4.90400261,6.53217025 C8.17334464,2.84158204 12.5034746,0.996296296 17.8943925,0.996296296 C22.3461835,0.996296296 25.911289,2.18007669 28.5892918,4.54761241 C31.3021443,6.88034526 32.8672515,9.89198489 33.2846134,13.5825731 L25.7720988,13.5825731 C25.4242276,11.6676419 24.5548628,10.1531109 23.1635868,9.03898015 C21.8071605,7.92484938 20.0506929,7.36777355 17.8943925,7.36777355 C14.5902842,7.36777355 12.0687087,8.58635473 10.3297076,11.023538 C8.59070656,13.4607212 7.7211956,16.6290365 7.7211956,20.5285255 C7.7211956,24.3931908 8.6428768,27.5440419 10.4862183,29.9812879 C12.364347,32.4185338 14.8511354,33.6370523 17.9465627,33.6370523 C20.1377128,33.6370523 21.9636713,33.0452363 23.424438,31.8613953 C24.8852047,30.6428768 25.7372491,29.0412342 25.9807798,27.0566763 L33.3889539,27.0566763 C33.180273,30.5731039 31.8065262,33.5152631 29.2675049,35.8827362 C26.4503119,38.5288829 22.6767341,39.8518519 17.9465627,39.8518519 Z M43.8017166,1.72745127 L43.8017166,15.7760318 L43.9582273,15.7760318 C44.9669911,14.313726 46.0625661,13.2518204 47.2449524,12.5902942 C48.4623972,11.8939651 49.957805,11.5457901 51.7315931,11.5457901 C54.4792954,11.5457901 56.7052952,12.4858438 58.4093839,14.3659512 C60.1136813,16.2112348 60.9657257,18.6135943 60.9657257,21.5730297 L60.9657257,39.0684738 L53.870573,39.0684738 L53.870573,22.6175338 C53.870573,21.155228 53.4532111,19.9714497 52.6184872,19.0662198 C51.8186131,18.1609898 50.6881883,17.7083644 49.2274216,17.7083644 C47.6623144,17.7083644 46.3580584,18.2828417 45.3146535,19.4317962 C44.3060985,20.5807507 43.8017166,22.0603953 43.8017166,23.8709387 L43.8017166,39.0684738 L36.7065639,39.0684738 L36.7065639,1.72745127 L43.8017166,1.72745127 Z M82.1900403,39.0684738 C81.8423778,38.6157857 81.5639974,37.6235068 81.3553165,36.091637 L81.250976,36.091637 C80.4859516,37.2405915 79.5120375,38.12842 78.3294425,38.7551225 C77.1470562,39.381825 75.494929,39.6951762 73.3732697,39.6951762 C70.5560767,39.6951762 68.2954358,38.9813621 66.5911384,37.5539428 C64.8870497,36.1265234 64.0347966,34.1070792 64.0347966,31.4958188 C64.0347966,28.7801081 64.9738609,26.7955503 66.8519896,25.5421453 C68.7301183,24.2538539 71.37348,23.3660254 74.7818662,22.8786598 C77.2860377,22.5304221 78.9903351,22.1823934 79.8945497,21.8341557 C80.798973,21.4512405 81.250976,20.7896516 81.250976,19.8495978 C81.250976,18.8747204 80.8684638,18.1087646 80.1032307,17.5516888 C79.3382063,16.9598101 78.225102,16.6638603 76.7643353,16.6638603 C73.5297804,16.6638603 71.8081624,17.9172652 71.5994815,20.4240751 L65.2868824,20.4240751 C65.3912229,17.8824414 66.4173072,15.7760318 68.3649266,14.1048252 C70.3127547,12.4336186 73.1299477,11.5980153 76.8165055,11.5980153 C84.3290202,11.5980153 88.0852775,14.8882033 88.0852775,21.4685792 L88.0852775,35.0993581 C88.0852775,37.1188024 88.3982989,38.3546596 89.0243418,38.8073477 L89.0243418,39.0684738 L82.1900403,39.0684738 Z M75.0948876,34.7337816 C77.0427157,34.7337816 78.5729732,34.2288683 79.6858688,33.2192507 C80.8336141,32.209633 81.4074867,31.0084532 81.4074867,29.6157114 L81.4074867,25.5943705 C80.6424623,26.0470586 78.9903351,26.5693107 76.4513138,27.1611267 C74.4342037,27.6138148 73.008078,28.1360669 72.1733541,28.7278829 C71.3386303,29.2850214 70.9212684,30.1553023 70.9212684,31.3391432 C70.9212684,33.6021659 72.3125443,34.7337816 75.0948876,34.7337816 Z M92.5961252,39.0684738 L92.5961252,12.2769429 L99.6912779,12.2769429 L99.6912779,39.0684738 L92.5961252,39.0684738 Z M92.5961252,8.09892644 L92.5961252,1.72745127 L99.6912779,1.72745127 L99.6912779,8.09892644 L92.5961252,8.09892644 Z M111.201702,12.2769429 L111.201702,15.9327074 L111.358213,15.9327074 C113.201492,13.0080958 115.844854,11.5457901 119.28809,11.5457901 C122.035792,11.5457901 124.261583,12.4858438 125.96588,14.3659512 C127.670178,16.2112348 128.522222,18.6135943 128.522222,21.5730297 L128.522222,39.0684738 L121.42707,39.0684738 L121.42707,22.6175338 C121.42707,21.155228 121.009708,19.9714497 120.174984,19.0662198 C119.37511,18.1609898 118.244685,17.7083644 116.783918,17.7083644 C115.218811,17.7083644 113.914555,18.2828417 112.87115,19.4317962 C111.862595,20.5807507 111.358213,22.0603953 111.358213,23.8709387 L111.358213,39.0684738 L104.26306,39.0684738 L104.26306,12.2769429 L111.201702,12.2769429 Z" id="Shape" fill="#2CD5C4"></path>
            <path d="M160.192993,38.0558532 L159.933194,33.0443831 L159.829274,33.0443831 C157.543037,36.9073913 154.061721,38.8388954 149.385328,38.8388954 C143.946785,38.8388954 139.59961,37.0291283 136.343385,33.4098028 C133.121869,29.7904773 131.511111,25.1617583 131.511111,19.5238544 C131.511111,13.1203023 133.537548,8.03923539 137.590423,4.28063281 C140.708019,1.42687203 144.691683,0 149.541207,0 C154.078972,0 157.698917,1.13107001 160.400833,3.39318497 C163.137459,5.65529994 164.817427,8.68306313 165.440946,12.4764745 L158.062636,12.4764745 C157.612247,10.5971733 156.676969,9.10068564 155.2568,7.98703258 C153.836631,6.83857068 151.983324,6.26433973 149.697087,6.26433973 C146.336942,6.26433973 143.738946,7.49981328 141.903097,9.97073949 C140.101751,12.4416657 139.201181,15.6260373 139.201181,19.5238544 C139.201181,23.3868626 140.13646,26.5539029 142.007017,29.0247665 C143.912284,31.49563 146.440862,32.7311662 149.593167,32.7311662 C152.364294,32.7311662 154.650531,31.8785899 156.451878,30.1732284 C158.253225,28.4332042 159.153795,26.4668286 159.153795,24.2743104 L159.153795,24.0654992 L150.216687,24.0654992 L150.216687,18.218784 L165.856626,18.218784 L165.856626,38.0558532 L160.192993,38.0558532 Z M177.359308,11.2758098 L177.359308,15.5564406 L177.515188,15.5564406 C178.346546,13.9903561 179.264367,12.8418942 180.269064,12.1110549 C181.273553,11.3454066 182.537842,10.962593 184.062139,10.962593 C184.789578,10.962593 185.343679,11.0321897 185.724857,11.1714042 L185.724857,17.383539 L185.568977,17.383539 C183.17882,17.1399189 181.256303,17.6619471 179.801425,18.9496234 C178.346546,20.2373624 177.619107,22.255732 177.619107,25.0051498 L177.619107,38.0558532 L170.552557,38.0558532 L170.552557,11.2758098 L177.359308,11.2758098 Z M204.790826,38.0558532 C204.444357,37.6033592 204.167307,36.6115058 203.959467,35.0802929 L203.855547,35.0802929 C203.093399,36.2287548 202.123619,37.1162026 200.945791,37.7426364 C199.767964,38.3690701 198.122704,38.682287 196.009598,38.682287 C193.203761,38.682287 190.952234,37.9687789 189.254807,36.5419716 C187.55738,35.1151643 186.70877,33.0965859 186.70877,30.4864453 C186.70877,27.7718989 187.644049,25.788192 189.514606,24.5353245 C191.385164,23.2475855 194.01787,22.3601377 197.412516,21.872981 C199.906593,21.5248926 201.60402,21.1770131 202.504589,20.8289247 C203.405159,20.4461737 203.855547,19.7848685 203.855547,18.8452178 C203.855547,17.8707583 203.474577,17.105131 202.712429,16.548294 C201.950281,15.9566691 200.841871,15.6608462 199.386993,15.6608462 C196.165478,15.6608462 194.4508,16.9137137 194.24296,19.4194488 L187.955808,19.4194488 C188.059728,16.8789049 189.081676,14.7733983 191.021444,13.1029083 C192.961213,11.4324183 195.767049,10.5971733 199.438953,10.5971733 C206.920352,10.5971733 210.661467,13.8859505 210.661467,20.463505 L210.661467,34.0884394 C210.661467,36.1070178 210.973227,37.3423452 211.596746,37.7948392 L211.596746,38.0558532 L204.790826,38.0558532 Z M197.724276,33.7230197 C199.664044,33.7230197 201.18834,33.2183229 202.29675,32.2091381 C203.439868,31.1999533 204.011427,29.9992886 204.011427,28.607144 L204.011427,24.5875273 C203.249279,25.0400213 201.60402,25.5620494 199.075234,26.1536117 C197.066047,26.6061057 195.645878,27.1281338 194.814519,27.7196961 C193.98316,28.2765957 193.567481,29.1465034 193.567481,30.3298368 C193.567481,32.5918891 194.953148,33.7230197 197.724276,33.7230197 Z M215.154962,46.8259259 L215.154962,11.2758098 L221.961713,11.2758098 L221.961713,14.6167899 L222.117593,14.6167899 C224.09207,11.9022436 226.706694,10.5449704 229.963543,10.5449704 C233.461485,10.5449704 236.267321,11.8500408 238.381051,14.4601815 C240.494781,17.0703221 241.550607,20.4808364 241.550607,24.6919329 C241.550607,29.0074351 240.494781,32.4528208 238.381051,35.02809 C236.267321,37.5686966 233.480191,38.8388954 230.015502,38.8388954 C226.550814,38.8388954 223.98815,37.5686966 222.325433,35.02809 L222.221513,35.02809 L222.221513,46.8259259 L215.154962,46.8259259 Z M228.508664,32.9399775 C230.310635,32.9399775 231.73018,32.2264694 232.769379,30.7996621 C233.84391,29.3728548 234.380137,27.4064793 234.380137,24.9007442 C234.380137,22.2210694 233.877165,20.1154167 232.873299,18.5842037 C231.869433,17.0529282 230.327262,16.2872799 228.248865,16.2872799 C226.135135,16.2872799 224.576337,17.0877161 223.572471,18.6886094 C222.568605,20.2546938 222.065633,22.325475 222.065633,24.9007442 C222.065633,27.3716078 222.620565,29.3379834 223.728351,30.7996621 C224.836136,32.2264694 226.430267,32.9399775 228.508664,32.9399775 Z M251.905182,0.730841479 L251.905182,14.7733983 L252.061062,14.7733983 C253.064928,13.3117196 254.156087,12.2502693 255.334538,11.5890267 C256.546244,10.8929962 258.036454,10.5449704 259.803092,10.5449704 C262.540341,10.5449704 264.755913,11.4846211 266.453963,13.3639224 C268.152014,15.2084148 269,17.6097443 269,20.5679107 L269,38.0558532 L261.933449,38.0558532 L261.933449,21.6119669 C261.933449,20.1502882 261.51777,18.9670174 260.686411,18.0621756 C259.890385,17.1573338 258.763893,16.7049025 257.309015,16.7049025 C255.750217,16.7049025 254.451219,17.2791334 253.412021,18.4275953 C252.408155,19.5760572 251.905182,21.0550673 251.905182,22.8648345 L251.905182,38.0558532 L244.838632,38.0558532 L244.838632,0.730841479 L251.905182,0.730841479 Z" id="Shape" fill="#911C81"></path>
        </g>
        <g id="Capa-1" transform="translate(85.000000, 0.000000)">
            <g id="Group" opacity="0.5" transform="translate(0.000000, 4.000000)" stroke="#04BDAF" stroke-linecap="round" stroke-width="2.27">
                <polyline id="Path" points="45.567 104.535 0.5611 78.5654 0.5611 73.9927 0.5611 36.983"></polyline>
                <polyline id="Path" points="0.5612 26.6027 45.567 0.62134 46.533 1.18376 48.648 2.39418 90.561 26.6027 90.561 78.5654 55.397 98.861"></polyline>
                <polyline id="Path" points="0.5611 26.6024 45.567 52.7427 81.171 32.0554"></polyline>
                <line x1="45.567" y1="104.534" x2="45.567" y2="52.7426" id="Path"></line>
            </g>
            <polyline id="Path" stroke="#911C81" stroke-width="2.27" stroke-linecap="round" points="54.847 108.535 9.841 82.5657 9.841 77.9929 9.841 40.9833"></polyline>
            <polyline id="Path" stroke="#911C81" stroke-width="2.27" stroke-linecap="round" points="9.841 30.6027 54.847 4.62134 55.813 5.18376 57.928 6.39418 99.84 30.6027 99.84 82.5654 64.017 103.24"></polyline>
            <polyline id="Path" stroke="#911C81" stroke-width="2.27" stroke-linecap="round" points="9.841 30.6027 54.847 56.7429 90.45 36.0557"></polyline>
            <line x1="54.847" y1="108.535" x2="54.847" y2="56.7434" id="Path" stroke="#911C81" stroke-width="2.27" stroke-linecap="round"></line>
            <path d="M14.4627638,82.8958 C14.4578,83.8088 14.1827,84.7 13.6719,85.4568 C13.1612,86.2136 12.4377,86.8021 11.5928,87.1482 C10.7479,87.4942 9.8194,87.5823 8.9245,87.4012 C8.0296,87.2201 7.2084,86.778 6.5645,86.1307 C5.9206,85.4834 5.4829,84.6599 5.3065,83.7641 C5.1302,82.8682 5.2231,81.9402 5.5736,81.0972 C5.9241,80.2541 6.5165,79.5337 7.276,79.027 C8.0354,78.5202 8.928,78.2497999 9.841,78.2497999 C10.45,78.2497 11.053,78.3701 11.6153,78.6039 C12.1776,78.8377 12.6882,79.1803 13.1177,79.612 C13.5472,80.0438 13.8871,80.5562 14.1179,81.1197 C14.3487,81.6832 14.4659,82.2869 14.4627638,82.8958 Z" id="Path" fill="#911C81" fill-rule="nonzero"></path>
            <path d="M59.4560247,55.5697 C59.459,56.4848 59.189,57.3801 58.682,58.142 C58.176,58.9039 57.454,59.4981 56.609,59.8494 C55.764,60.2007 54.834,60.2933 53.936,60.1154 C53.038,59.9374 52.214,59.497 51.567,58.8499 C50.92,58.2028 50.479,57.3782 50.301,56.4806 C50.123,55.5829 50.216,54.6527 50.567,53.8077 C50.918,52.9627 51.513,52.241 52.275,51.7341 C53.037,51.2272 53.932,50.9579 54.847,50.9602841 C56.069,50.9602841 57.242,51.446 58.106,52.3104 C58.971,53.1748 59.4560247,54.3473 59.4560247,55.5697 Z" id="Path" fill="#911C81" fill-rule="nonzero"></path>
            <path d="M104.462025,82.5657 C104.462025,83.4798 104.191,84.3733 103.683,85.1334 C103.175,85.8934 102.454,86.4858 101.609,86.8356 C100.765,87.1854 99.835,87.2769 98.939,87.0985 C98.042,86.9202 97.219,86.4801 96.573,85.8337 C95.926,85.1874 95.486,84.3639 95.308,83.4674 C95.129,82.5709 95.221,81.6416 95.571,80.7971 C95.92,79.9526 96.513,79.2308 97.273,78.723 C98.033,78.2152 98.926,77.944084 99.84,77.944084 C100.448,77.9425 101.05,78.0609 101.611,78.2926 C102.172,78.5243 102.683,78.8647 103.112,79.2942 C103.542,79.7236 103.882,80.2338 104.114,80.7952 C104.345,81.3567 104.464,81.9584 104.462025,82.5657 Z" id="Path" fill="#911C81" fill-rule="nonzero"></path>
            <path d="M59.456,4.62164 C59.456,5.53623 59.185,6.43026 58.677,7.19054 C58.168,7.95083 57.446,8.54318 56.6,8.89262 C55.755,9.24206 54.825,9.33286 53.928,9.15354 C53.032,8.97422 52.208,8.53284 51.562,7.88527 C50.916,7.2377 50.477,6.41307 50.3,5.51575 C50.123,4.61844 50.217,3.68881 50.568,2.84453 C50.92,2.00026 51.514,1.27931 52.276,0.772949 C53.038,0.266592 53.932,-0.00240337 54.847,2.9245939e-11 C56.07,0.00325326 57.243,0.491601 58.107,1.35797 C58.971,2.22434 59.456,3.39802 59.456,4.62164 Z" id="Path" fill="#911C81" fill-rule="nonzero"></path>
        </g>
    </g>
</svg>