<svg width="269" height="198" xmlns="http://www.w3.org/2000/svg"><g fill="none" fill-rule="evenodd"><g fill-rule="nonzero"><path d="M17.947 190.852c-5.252 0-9.565-1.81-12.939-5.432C1.67 181.765 0 177.134 0 171.53c0-5.64 1.635-10.306 4.904-13.997 3.27-3.69 7.6-5.536 12.99-5.536 4.452 0 8.017 1.184 10.695 3.552 2.713 2.332 4.278 5.344 4.696 9.035h-7.513c-.348-1.915-1.217-3.43-2.608-4.544-1.357-1.114-3.113-1.671-5.27-1.671-3.304 0-5.825 1.218-7.564 3.656-1.74 2.437-2.609 5.605-2.609 9.505 0 3.864.922 7.015 2.765 9.452 1.878 2.438 4.365 3.656 7.46 3.656 2.192 0 4.018-.592 5.478-1.776 1.461-1.218 2.313-2.82 2.557-4.804h7.408c-.209 3.516-1.582 6.458-4.121 8.826-2.818 2.646-6.591 3.969-11.321 3.969zm25.855-38.125v14.049h.156c1.009-1.462 2.105-2.524 3.287-3.186 1.217-.696 2.713-1.044 4.487-1.044 2.747 0 4.973.94 6.677 2.82 1.705 1.845 2.557 4.248 2.557 7.207v17.495H53.87v-16.45c0-1.463-.418-2.647-1.253-3.552-.8-.905-1.93-1.358-3.39-1.358-1.566 0-2.87.575-3.913 1.724-1.009 1.149-1.513 2.628-1.513 4.439v15.197h-7.095v-37.34h7.095zm38.388 37.341c-.348-.452-.626-1.444-.835-2.976h-.104a7.932 7.932 0 01-2.922 2.663c-1.182.627-2.834.94-4.956.94-2.817 0-5.078-.714-6.782-2.141-1.704-1.427-2.556-3.447-2.556-6.058 0-2.716.939-4.7 2.817-5.954 1.878-1.288 4.521-2.176 7.93-2.663 2.504-.349 4.208-.697 5.113-1.045.904-.383 1.356-1.044 1.356-1.984 0-.975-.383-1.741-1.148-2.298-.765-.592-1.878-.888-3.339-.888-3.234 0-4.956 1.253-5.165 3.76h-6.312c.104-2.542 1.13-4.648 3.078-6.32 1.948-1.67 4.765-2.506 8.452-2.506 7.512 0 11.268 3.29 11.268 9.87V186.1c0 2.02.313 3.256.94 3.708v.261H82.19zm-7.095-4.334c1.948 0 3.478-.505 4.59-1.515 1.149-1.01 1.722-2.21 1.722-3.603v-4.022c-.765.453-2.417.975-4.956 1.567-2.017.453-3.443.975-4.278 1.567-.834.557-1.252 1.427-1.252 2.611 0 2.263 1.392 3.395 4.174 3.395zm17.501 4.334v-26.791h7.095v26.791h-7.095zm0-30.97v-6.37h7.095v6.37h-7.095zm18.606 4.179v3.656h.156c1.843-2.925 4.487-4.387 7.93-4.387 2.748 0 4.974.94 6.678 2.82 1.704 1.845 2.556 4.248 2.556 7.207v17.495h-7.095v-16.45c0-1.463-.417-2.647-1.252-3.552-.8-.905-1.93-1.358-3.391-1.358-1.565 0-2.87.575-3.913 1.724-1.008 1.149-1.513 2.628-1.513 4.439v15.197h-7.095v-26.791h6.939z" fill="#2CD5C4"/><path d="M160.193 189.056l-.26-5.012h-.104c-2.286 3.863-5.767 5.795-10.444 5.795-5.438 0-9.785-1.81-13.042-5.43-3.221-3.619-4.832-8.247-4.832-13.885 0-6.404 2.027-11.485 6.08-15.243 3.117-2.854 7.1-4.281 11.95-4.281 4.538 0 8.158 1.131 10.86 3.393 2.736 2.262 4.416 5.29 5.04 9.083h-7.378c-.45-1.879-1.386-3.375-2.806-4.489-1.42-1.148-3.274-1.723-5.56-1.723-3.36 0-5.958 1.236-7.794 3.707-1.801 2.47-2.702 5.655-2.702 9.553 0 3.863.935 7.03 2.806 9.5 1.905 2.472 4.434 3.707 7.586 3.707 2.771 0 5.058-.852 6.859-2.558 1.801-1.74 2.702-3.706 2.702-5.899v-.209h-8.937v-5.846h15.64v19.837h-5.664zm17.166-26.78v4.28h.156c.832-1.566 1.75-2.714 2.754-3.445 1.005-.766 2.269-1.148 3.793-1.148.728 0 1.282.07 1.663.208v6.213h-.156c-2.39-.244-4.313.278-5.768 1.566-1.454 1.287-2.182 3.306-2.182 6.055v13.05h-7.066v-26.78h6.806zm27.432 26.78c-.347-.453-.624-1.444-.832-2.976h-.103a7.912 7.912 0 01-2.91 2.663c-1.178.626-2.823.94-4.936.94-2.806 0-5.058-.714-6.755-2.141-1.698-1.427-2.546-3.445-2.546-6.056 0-2.714.935-4.698 2.806-5.95 1.87-1.288 4.503-2.176 7.898-2.663 2.494-.348 4.191-.696 5.092-1.044.9-.383 1.35-1.044 1.35-1.984 0-.974-.38-1.74-1.143-2.297-.762-.591-1.87-.887-3.325-.887-3.222 0-4.936 1.253-5.144 3.758h-6.287c.104-2.54 1.126-4.646 3.065-6.316 1.94-1.67 4.746-2.506 8.418-2.506 7.481 0 11.222 3.289 11.222 9.867v13.624c0 2.019.312 3.254.936 3.707v.26h-6.806zm-7.067-4.333c1.94 0 3.464-.505 4.573-1.514 1.143-1.009 1.714-2.21 1.714-3.602v-4.02c-.762.453-2.407.975-4.936 1.567-2.009.452-3.43.974-4.26 1.566-.832.557-1.248 1.427-1.248 2.61 0 2.262 1.386 3.393 4.157 3.393zm17.431 13.103v-35.55h6.807v3.34h.156c1.974-2.714 4.589-4.071 7.846-4.071 3.497 0 6.303 1.305 8.417 3.915 2.114 2.61 3.17 6.02 3.17 10.232 0 4.315-1.056 7.76-3.17 10.336-2.114 2.54-4.9 3.81-8.365 3.81s-6.028-1.27-7.69-3.81h-.104v11.798h-7.067zm13.354-13.886c1.802 0 3.221-.714 4.26-2.14 1.075-1.427 1.611-3.394 1.611-5.9 0-2.679-.503-4.785-1.507-6.316-1.004-1.531-2.546-2.297-4.624-2.297-2.114 0-3.673.8-4.677 2.402-1.003 1.566-1.506 3.636-1.506 6.212 0 2.47.555 4.437 1.662 5.899 1.108 1.426 2.702 2.14 4.78 2.14zm23.396-32.21v14.043h.156c1.004-1.461 2.095-2.523 3.274-3.184 1.211-.696 2.701-1.044 4.468-1.044 2.737 0 4.953.94 6.651 2.819 1.698 1.844 2.546 4.246 2.546 7.204v17.488h-7.067v-16.444c0-1.462-.415-2.645-1.247-3.55-.796-.905-1.922-1.357-3.377-1.357-1.559 0-2.858.574-3.897 1.723-1.004 1.148-1.507 2.627-1.507 4.437v15.19h-7.066v-37.324h7.066z" fill="#911C81"/></g><g opacity=".5" stroke="#04BDAF" stroke-linecap="round" stroke-width="2.27"><path d="M130.567 108.535l-45.006-25.97V40.983M85.561 30.603L130.567 4.62l.966.563 2.115 1.21 41.913 24.209v51.962l-35.164 20.296"/><path d="M85.561 30.602l45.006 26.14 35.604-20.687M130.567 108.534V56.743"/></g><path stroke="#911C81" stroke-width="2.27" stroke-linecap="round" d="M139.847 108.535l-45.006-25.97V40.984M94.841 30.603L139.847 4.62l.966.563 2.115 1.21 41.912 24.209v51.962l-35.823 20.675"/><path stroke="#911C81" stroke-width="2.27" stroke-linecap="round" d="M94.841 30.603l45.006 26.14 35.603-20.687M139.847 108.535V56.743"/><path d="M99.463 82.896a4.623 4.623 0 11-9.246-.05 4.623 4.623 0 019.246.05zM144.456 55.57a4.617 4.617 0 01-2.847 4.28 4.622 4.622 0 11-1.762-8.89 4.609 4.609 0 014.609 4.61zM189.462 82.566a4.62 4.62 0 11-4.622-4.622 4.608 4.608 0 014.622 4.622zM144.456 4.622a4.624 4.624 0 01-2.856 4.27 4.622 4.622 0 112.856-4.27z" fill="#911C81" fill-rule="nonzero"/></g></svg>