<?xml version="1.0" encoding="UTF-8"?>
<svg width="95px" height="95px" viewBox="0 0 95 95" version="1.1" xmlns="http://www.w3.org/2000/svg" xmlns:xlink="http://www.w3.org/1999/xlink">
    <!-- Generator: Sketch 64 (93537) - https://sketch.com -->
    <title>Untitled 2</title>
    <desc>Created with Sketch.</desc>
    <g id="Page-1" stroke="none" stroke-width="1" fill="none" fill-rule="evenodd">
        <g id="chaingraph_logo-l" transform="translate(47.798164, 49.586175) rotate(38.000000) translate(-47.798164, -49.586175) translate(-2.201836, 5.586175)">
            <g id="Group" opacity="0.5" transform="translate(0.964105, 5.799963)" stroke="#911C81" stroke-linecap="round" stroke-width="2.27">
                <polyline id="Path" points="71.0076 76.358 27.3548 81.944 25.009 78.862 6.0238 53.9196"></polyline>
                <polyline id="Path" points="0.6981 46.9228 17.7014 6.3259 18.6408 6.2094 20.6873 5.9401 61.3522 0.7549 88.008 35.7746 74.7215 67.491"></polyline>
                <polyline id="Path" points="0.6987 46.9236 44.4394 41.4535 57.8219 9.2476"></polyline>
                <line x1="71.0072" y1="76.357" x2="44.4391" y2="41.4529" id="Path"></line>
            </g>
            <polyline id="Path" stroke="#911C81" stroke-width="2.27" stroke-linecap="round" points="78.2617 76.5976 34.6089 82.183 32.2632 79.101 13.2779 54.1591"></polyline>
            <polyline id="Path" stroke="#911C81" stroke-width="2.27" stroke-linecap="round" points="7.9522 47.1623 24.9555 6.5654 25.8949 6.4489 27.9414 6.1796 68.6063 0.9944 95.262 36.0141 81.7251 68.3247"></polyline>
            <polyline id="Path" stroke="#911C81" stroke-width="2.27" stroke-linecap="round" points="7.9531 47.1635 51.6937 41.6933 65.0763 9.4874"></polyline>
            <line x1="78.2612" y1="76.5969" x2="51.6931" y2="41.6925" id="Path" stroke="#911C81" stroke-width="2.27" stroke-linecap="round"></line>
            <path d="M37.8928,80.035 C38.3579,80.652 38.6295,81.394 38.6736,82.166 C38.7176,82.938 38.5319,83.706 38.14,84.373 C37.7481,85.039 37.1675,85.575 36.4715,85.912 C35.7755,86.249 34.9953,86.372 34.2293,86.266 C33.4633,86.16 32.7458,85.83 32.1674,85.317 C31.589,84.803 31.1756,84.13 30.9794,83.382 C30.7831,82.634 30.8128,81.845 31.0647,81.114 C31.3166,80.383 31.7794,79.743 32.3947,79.274 C32.8051,78.962 33.2732,78.734 33.7721,78.603 C34.271,78.472 34.7909,78.441 35.3018,78.512 C35.8127,78.582 36.3046,78.753 36.7493,79.015 C37.1939,79.276 37.5825,79.623 37.8928,80.035 Z" id="Path" fill="#911C81" fill-rule="nonzero"></path>
            <path d="M54.1976,38.5374 C54.6686,39.1529 54.9464,39.8944 54.9956,40.6679 C55.0448,41.4414 54.8633,42.2121 54.474,42.8823 C54.0848,43.5526 53.5053,44.0921 52.8091,44.4327 C52.1129,44.7733 51.3312,44.8995 50.5632,44.7953 C49.7951,44.6911 49.0753,44.3613 48.4949,43.8476 C47.9145,43.334 47.4997,42.6595 47.303,41.9099 C47.1063,41.1602 47.1366,40.369 47.39,39.6365 C47.6435,38.9041 48.1086,38.2633 48.7266,37.7955 C49.5505,37.1684 50.5897,36.8943 51.6157,37.0334 C52.6418,37.1725 53.5705,37.7136 54.1976,38.5374 Z" id="Path" fill="#911C81" fill-rule="nonzero"></path>
            <path d="M98.378,33.6448 C98.847,34.2609 99.122,35.0021 99.17,35.7748 C99.218,36.5475 99.035,37.317 98.645,37.986 C98.256,38.6549 97.676,39.1933 96.981,39.533 C96.285,39.8727 95.504,39.9985 94.737,39.8945 C93.97,39.7904 93.251,39.4612 92.671,38.9485 C92.091,38.4358 91.676,37.7626 91.478,37.014 C91.281,36.2654 91.31,35.4751 91.561,34.743 C91.813,34.0109 92.276,33.3698 92.892,32.9009 C93.301,32.5883 93.767,32.3594 94.264,32.2276 C94.762,32.0957 95.28,32.0634 95.79,32.1325 C96.299,32.2017 96.791,32.3708 97.235,32.6304 C97.679,32.8899 98.067,33.2347 98.378,33.6448 Z" id="Path" fill="#911C81" fill-rule="nonzero"></path>
            <path d="M28.0624,4.2018 C28.5316,4.8182 28.8073,5.5599 28.8547,6.3331 C28.9021,7.1062 28.719,7.8761 28.3287,8.5452 C27.9383,9.2142 27.3582,9.7525 26.6618,10.0917 C25.9654,10.4309 25.184,10.5558 24.4166,10.4507 C23.6491,10.3456 22.9301,10.0152 22.3505,9.5012 C21.771,8.9872 21.357,8.3129 21.1609,7.5635 C20.9648,6.8141 20.9955,6.0234 21.249,5.2914 C21.5025,4.5594 21.9675,3.9192 22.5852,3.4516 C23.4115,2.8261 24.4521,2.5538 25.4789,2.6945 C26.5056,2.8351 27.4347,3.3772 28.0624,4.2018 Z" id="Path" fill="#911C81" fill-rule="nonzero"></path>
        </g>
    </g>
</svg>