<svg width="189" height="47" xmlns="http://www.w3.org/2000/svg"><g fill="none" fill-rule="evenodd"><g opacity=".5" stroke-linecap="round" stroke-width="2.27"><path stroke="#EEE" d="M20.626 44.918L2 34.171V16.962M2 12.665L20.626 1.912l.4.233.875.5 17.346 10.02V34.17l-14.553 8.4"/><path stroke="#EEE" d="M2 12.665l18.626 10.819 14.735-8.562"/><path stroke="#E5E5E5" d="M20.626 44.917V23.483"/></g><path stroke="#FFF" stroke-width="2.27" stroke-linecap="round" d="M24.466 44.918L5.841 34.17V16.961M5.84 12.665L24.468 1.912l.4.233.875.5 17.345 10.02V34.17l-14.826 8.556"/><path stroke="#FFF" stroke-width="2.27" stroke-linecap="round" d="M5.84 12.665l18.627 10.819L39.2 14.922M24.466 44.917V23.483"/><path d="M7.753 34.307a1.913 1.913 0 11-3.826-.02 1.913 1.913 0 013.826.02zM26.374 22.997a1.913 1.913 0 11-3.825.01 1.913 1.913 0 013.825-.01zM45 34.17a1.912 1.912 0 11-3.825 0 1.912 1.912 0 013.825 0zM26.374 1.913a1.913 1.913 0 11-3.825 0 1.913 1.913 0 013.825 0z" fill="#FFF" fill-rule="nonzero"/><g fill-rule="nonzero"><path d="M67.2 30.375c-2.517 0-4.583-.867-6.2-2.6-1.6-1.75-2.4-3.967-2.4-6.65 0-2.7.783-4.933 2.35-6.7 1.567-1.767 3.642-2.65 6.225-2.65 2.133 0 3.842.567 5.125 1.7 1.3 1.117 2.05 2.558 2.25 4.325h-3.6c-.167-.917-.583-1.642-1.25-2.175-.65-.533-1.492-.8-2.525-.8-1.583 0-2.792.583-3.625 1.75-.833 1.167-1.25 2.683-1.25 4.55 0 1.85.442 3.358 1.325 4.525.9 1.167 2.092 1.75 3.575 1.75 1.05 0 1.925-.283 2.625-.85.7-.583 1.108-1.35 1.225-2.3h3.55c-.1 1.683-.758 3.092-1.975 4.225-1.35 1.267-3.158 1.9-5.425 1.9zm12.39-18.25v6.725h.075c.483-.7 1.008-1.208 1.575-1.525.583-.333 1.3-.5 2.15-.5 1.317 0 2.383.45 3.2 1.35.817.883 1.225 2.033 1.225 3.45V30h-3.4v-7.875c0-.7-.2-1.267-.6-1.7-.383-.433-.925-.65-1.625-.65-.75 0-1.375.275-1.875.825-.483.55-.725 1.258-.725 2.125V30h-3.4V12.125h3.4zM97.985 30c-.166-.217-.3-.692-.4-1.425h-.05a3.8 3.8 0 01-1.4 1.275c-.566.3-1.358.45-2.375.45-1.35 0-2.433-.342-3.25-1.025-.816-.683-1.225-1.65-1.225-2.9 0-1.3.45-2.25 1.35-2.85.9-.617 2.167-1.042 3.8-1.275 1.2-.167 2.017-.333 2.45-.5.434-.183.65-.5.65-.95 0-.467-.183-.833-.55-1.1-.366-.283-.9-.425-1.6-.425-1.55 0-2.375.6-2.475 1.8h-3.025c.05-1.217.542-2.225 1.475-3.025.934-.8 2.284-1.2 4.05-1.2 3.6 0 5.4 1.575 5.4 4.725V28.1c0 .967.15 1.558.45 1.775V30h-3.275zm-3.4-2.075c.934 0 1.667-.242 2.2-.725.55-.483.825-1.058.825-1.725V23.55c-.366.217-1.158.467-2.375.75-.966.217-1.65.467-2.05.75-.4.267-.6.683-.6 1.25 0 1.083.667 1.625 2 1.625zM102.972 30V17.175h3.4V30h-3.4zm0-14.825v-3.05h3.4v3.05h-3.4zm8.916 2v1.75h.075c.883-1.4 2.15-2.1 3.8-2.1 1.317 0 2.383.45 3.2 1.35.817.883 1.225 2.033 1.225 3.45V30h-3.4v-7.875c0-.7-.2-1.267-.6-1.7-.383-.433-.925-.65-1.625-.65-.75 0-1.375.275-1.875.825-.483.55-.725 1.258-.725 2.125V30h-3.4V17.175h3.325z" fill="#2CD5C4"/><path d="M135.659 30l-.125-2.4h-.05c-1.1 1.85-2.775 2.775-5.025 2.775-2.617 0-4.709-.867-6.275-2.6-1.55-1.733-2.325-3.95-2.325-6.65 0-3.067.975-5.5 2.925-7.3 1.5-1.367 3.416-2.05 5.75-2.05 2.183 0 3.925.542 5.225 1.625 1.316 1.083 2.125 2.533 2.425 4.35h-3.55c-.217-.9-.667-1.617-1.35-2.15-.684-.55-1.575-.825-2.675-.825-1.617 0-2.867.592-3.75 1.775-.867 1.183-1.3 2.708-1.3 4.575 0 1.85.45 3.367 1.35 4.55.916 1.183 2.133 1.775 3.65 1.775 1.333 0 2.433-.408 3.3-1.225.866-.833 1.3-1.775 1.3-2.825v-.1h-4.3v-2.8h7.525V30h-2.725zm8.259-12.825v2.05h.075c.4-.75.842-1.3 1.325-1.65.483-.367 1.092-.55 1.825-.55.35 0 .617.033.8.1V20.1h-.075c-1.15-.117-2.075.133-2.775.75-.7.617-1.05 1.583-1.05 2.9V30h-3.4V17.175h3.275zM157.116 30c-.166-.217-.3-.692-.4-1.425h-.05a3.8 3.8 0 01-1.4 1.275c-.566.3-1.358.45-2.375.45-1.35 0-2.433-.342-3.25-1.025-.816-.683-1.225-1.65-1.225-2.9 0-1.3.45-2.25 1.35-2.85.9-.617 2.167-1.042 3.8-1.275 1.2-.167 2.017-.333 2.45-.5.434-.183.65-.5.65-.95 0-.467-.183-.833-.55-1.1-.366-.283-.9-.425-1.6-.425-1.55 0-2.375.6-2.475 1.8h-3.025c.05-1.217.542-2.225 1.475-3.025.934-.8 2.284-1.2 4.05-1.2 3.6 0 5.4 1.575 5.4 4.725V28.1c0 .967.15 1.558.45 1.775V30h-3.275zm-3.4-2.075c.934 0 1.667-.242 2.2-.725.55-.483.825-1.058.825-1.725V23.55c-.366.217-1.158.467-2.375.75-.966.217-1.65.467-2.05.75-.4.267-.6.683-.6 1.25 0 1.083.667 1.625 2 1.625zm8.387 6.275V17.175h3.275v1.6h.075c.95-1.3 2.208-1.95 3.775-1.95 1.683 0 3.033.625 4.05 1.875s1.525 2.883 1.525 4.9c0 2.067-.508 3.717-1.525 4.95-1.017 1.217-2.358 1.825-4.025 1.825-1.667 0-2.9-.608-3.7-1.825h-.05v5.65h-3.4zm6.425-6.65c.867 0 1.55-.342 2.05-1.025.517-.683.775-1.625.775-2.825 0-1.283-.242-2.292-.725-3.025-.483-.733-1.225-1.1-2.225-1.1-1.017 0-1.767.383-2.25 1.15-.483.75-.725 1.742-.725 2.975 0 1.183.267 2.125.8 2.825.533.683 1.3 1.025 2.3 1.025zm11.257-15.425v6.725h.075c.483-.7 1.008-1.208 1.575-1.525.583-.333 1.3-.5 2.15-.5 1.317 0 2.383.45 3.2 1.35.817.883 1.225 2.033 1.225 3.45V30h-3.4v-7.875c0-.7-.2-1.267-.6-1.7-.383-.433-.925-.65-1.625-.65-.75 0-1.375.275-1.875.825-.483.55-.725 1.258-.725 2.125V30h-3.4V12.125h3.4z" fill="#911C81"/></g></g></svg>