<svg width="269" height="198" xmlns="http://www.w3.org/2000/svg"><g fill="none" fill-rule="evenodd"><g opacity=".5" stroke="#04BDAF" stroke-linecap="round" stroke-width="2.27"><path d="M130.567 108.535l-45.006-25.97V40.983M85.561 30.603L130.567 4.62l.966.563 2.115 1.21 41.913 24.209v51.962l-35.164 20.296"/><path d="M85.561 30.602l45.006 26.14 35.604-20.687M130.567 108.534V56.743"/></g><path stroke="#911C81" stroke-width="2.27" stroke-linecap="round" d="M139.847 108.535l-45.006-25.97V40.984M94.841 30.603L139.847 4.62l.966.563 2.115 1.21 41.912 24.209v51.962l-35.823 20.675"/><path stroke="#911C81" stroke-width="2.27" stroke-linecap="round" d="M94.841 30.603l45.006 26.14 35.603-20.687M139.847 108.535V56.743"/><path d="M99.463 82.896a4.623 4.623 0 11-9.246-.05 4.623 4.623 0 019.246.05zM144.456 55.57a4.617 4.617 0 01-2.847 4.28 4.622 4.622 0 11-1.762-8.89 4.609 4.609 0 014.609 4.61zM189.462 82.566a4.62 4.62 0 11-4.622-4.622 4.608 4.608 0 014.622 4.622zM144.456 4.622a4.624 4.624 0 01-2.856 4.27 4.622 4.622 0 112.856-4.27z" fill="#911C81" fill-rule="nonzero"/><path d="M17.875 189.068c-5.23 0-9.526-1.802-12.887-5.404C1.663 180.026 0 175.419 0 169.842c0-5.612 1.628-10.254 4.884-13.926 3.257-3.672 7.57-5.508 12.94-5.508 4.433 0 7.984 1.177 10.652 3.533 2.702 2.321 4.26 5.318 4.676 8.99H25.67c-.347-1.906-1.213-3.413-2.599-4.521-1.35-1.109-3.1-1.663-5.248-1.663-3.29 0-5.802 1.213-7.534 3.637-1.732 2.425-2.599 5.578-2.599 9.458 0 3.845.918 6.98 2.754 9.405 1.871 2.425 4.348 3.637 7.431 3.637 2.183 0 4.001-.589 5.456-1.766 1.455-1.213 2.304-2.806 2.546-4.781h7.38c-.209 3.499-1.577 6.426-4.106 8.782-2.806 2.632-6.565 3.949-11.276 3.949zM43.627 151.135v13.978h.156c1.005-1.455 2.096-2.511 3.274-3.17 1.213-.693 2.702-1.039 4.469-1.039 2.737 0 4.954.935 6.651 2.806 1.697 1.836 2.546 4.226 2.546 7.171v17.407h-7.067V171.92c0-1.455-.415-2.633-1.247-3.533-.797-.901-1.922-1.351-3.377-1.351-1.56 0-2.858.571-3.897 1.714-1.005 1.144-1.508 2.616-1.508 4.417v15.121h-7.066v-37.153h7.066zM81.863 188.288c-.346-.45-.623-1.437-.831-2.961h-.104a7.904 7.904 0 01-2.91 2.65c-1.178.623-2.823.935-4.936.935-2.806 0-5.058-.71-6.756-2.131-1.697-1.42-2.546-3.429-2.546-6.027 0-2.702.936-4.677 2.806-5.924 1.87-1.282 4.504-2.165 7.898-2.65 2.495-.346 4.192-.693 5.093-1.039.9-.381 1.35-1.04 1.35-1.975 0-.97-.38-1.732-1.142-2.286-.763-.589-1.871-.884-3.326-.884-3.222 0-4.936 1.248-5.144 3.742h-6.288c.104-2.529 1.126-4.625 3.066-6.288 1.94-1.663 4.746-2.494 8.418-2.494 7.483 0 11.224 3.274 11.224 9.821v13.562c0 2.009.312 3.239.935 3.69v.259h-6.807zm-7.067-4.313c1.94 0 3.464-.502 4.573-1.506 1.143-1.005 1.715-2.2 1.715-3.586v-4.001c-.762.45-2.408.97-4.937 1.559-2.009.45-3.43.97-4.26 1.559-.832.554-1.248 1.42-1.248 2.598 0 2.252 1.386 3.377 4.157 3.377zM92.228 188.288v-26.656h7.067v26.656h-7.067zm0-30.813v-6.34h7.067v6.34h-7.067zM110.759 161.632v3.637h.156c1.836-2.91 4.469-4.365 7.898-4.365 2.737 0 4.954.935 6.652 2.806 1.697 1.836 2.546 4.226 2.546 7.171v17.407h-7.067V171.92c0-1.455-.416-2.633-1.247-3.533-.797-.901-1.923-1.351-3.378-1.351-1.559 0-2.858.571-3.897 1.714-1.005 1.144-1.507 2.616-1.507 4.417v15.121h-7.067v-26.656h6.911zM160.167 188.288l-.26-4.988h-.104c-2.286 3.845-5.768 5.768-10.444 5.768-5.439 0-9.787-1.802-13.043-5.404-3.222-3.603-4.833-8.21-4.833-13.822 0-6.374 2.027-11.432 6.08-15.173 3.118-2.841 7.102-4.261 11.952-4.261 4.538 0 8.158 1.125 10.86 3.377 2.736 2.252 4.417 5.266 5.04 9.042h-7.379c-.45-1.871-1.385-3.361-2.806-4.469-1.42-1.143-3.273-1.715-5.56-1.715-3.36 0-5.958 1.23-7.794 3.689-1.801 2.46-2.702 5.63-2.702 9.51 0 3.845.935 6.997 2.806 9.457 1.905 2.459 4.434 3.689 7.586 3.689 2.772 0 5.058-.849 6.86-2.546 1.801-1.732 2.702-3.689 2.702-5.872v-.208h-8.938v-5.819h15.641v19.745h-5.664zM177.334 161.632v4.26h.156c.831-1.558 1.749-2.702 2.754-3.429 1.005-.762 2.269-1.143 3.793-1.143.728 0 1.282.069 1.663.208v6.183h-.156c-2.39-.242-4.313.277-5.768 1.559s-2.182 3.291-2.182 6.028v12.99h-7.067v-26.656h6.807zM204.767 188.288c-.346-.45-.623-1.437-.831-2.961h-.104a7.902 7.902 0 01-2.91 2.65c-1.178.623-2.823.935-4.937.935-2.806 0-5.057-.71-6.755-2.131-1.697-1.42-2.546-3.429-2.546-6.027 0-2.702.935-4.677 2.806-5.924 1.871-1.282 4.503-2.165 7.898-2.65 2.495-.346 4.192-.693 5.093-1.039.9-.381 1.351-1.04 1.351-1.975 0-.97-.381-1.732-1.143-2.286-.763-.589-1.871-.884-3.326-.884-3.222 0-4.936 1.248-5.144 3.742h-6.288c.104-2.529 1.126-4.625 3.066-6.288 1.94-1.663 4.746-2.494 8.418-2.494 7.483 0 11.224 3.274 11.224 9.821v13.562c0 2.009.312 3.239.935 3.69v.259h-6.807zm-7.067-4.313c1.94 0 3.464-.502 4.573-1.506 1.143-1.005 1.715-2.2 1.715-3.586v-4.001c-.762.45-2.408.97-4.937 1.559-2.009.45-3.429.97-4.261 1.559-.831.554-1.247 1.42-1.247 2.598 0 2.252 1.386 3.377 4.157 3.377zM215.132 197.018v-35.386h6.807v3.325h.156c1.974-2.702 4.59-4.053 7.846-4.053 3.499 0 6.305 1.299 8.418 3.897 2.113 2.598 3.17 5.993 3.17 10.185 0 4.296-1.057 7.725-3.17 10.289-2.113 2.528-4.902 3.793-8.366 3.793-3.464 0-6.028-1.265-7.691-3.793h-.103v11.743h-7.067zm13.354-13.822c1.801 0 3.222-.71 4.261-2.13 1.074-1.421 1.611-3.378 1.611-5.872 0-2.668-.503-4.763-1.507-6.288-1.005-1.524-2.546-2.286-4.625-2.286-2.113 0-3.672.797-4.676 2.39-1.005 1.559-1.507 3.62-1.507 6.184 0 2.459.554 4.417 1.662 5.872 1.109 1.42 2.703 2.13 4.781 2.13zM251.884 151.135v13.978h.156c1.005-1.455 2.096-2.511 3.274-3.17 1.212-.693 2.702-1.039 4.469-1.039 2.736 0 4.953.935 6.651 2.806 1.697 1.836 2.546 4.226 2.546 7.171v17.407h-7.067V171.92c0-1.455-.416-2.633-1.247-3.533-.797-.901-1.923-1.351-3.378-1.351-1.558 0-2.858.571-3.897 1.714-1.004 1.144-1.507 2.616-1.507 4.417v15.121h-7.067v-37.153h7.067z" fill="#FFF" fill-rule="nonzero"/></g></svg>