<svg width="99" height="99" viewBox="0 0 99 99" fill="none" xmlns="http://www.w3.org/2000/svg">
<path d="M5.69225 44.4259V7.10815C5.69436 5.2236 6.44393 3.41684 7.77651 2.08427C9.10909 0.751688 10.9158 0.00211655 12.8004 0H80.3278C82.2123 0.00211655 84.0191 0.751688 85.3517 2.08427C86.6842 3.41684 87.4338 5.2236 87.4359 7.10815V28.4326H90.99C92.8745 28.4347 94.6813 29.1843 96.0139 30.5168C97.3465 31.8494 98.096 33.6562 98.0981 35.5407V74.6355C98.096 76.5201 97.3465 78.3268 96.0139 79.6594C94.6813 80.992 92.8745 81.7416 90.99 81.7437H44.787V78.1896H84.837C84.2101 77.1102 83.8805 75.8838 83.8819 74.6355V17.7704H9.24632V44.4259H5.69225ZM94.5441 74.6355V35.5407C94.543 34.5985 94.1681 33.6951 93.5019 33.0289C92.8356 32.3626 91.9323 31.9878 90.99 31.9867H87.4359V74.6355C87.4359 75.5781 87.8104 76.4821 88.4769 77.1486C89.1434 77.8152 90.0474 78.1896 90.99 78.1896C91.9326 78.1896 92.8366 77.8152 93.5031 77.1486C94.1696 76.4821 94.5441 75.5781 94.5441 74.6355ZM83.8819 14.2163V7.10815C83.8807 6.16589 83.5059 5.26255 82.8397 4.59627C82.1734 3.93 81.27 3.55519 80.3278 3.55407H12.8004C11.8581 3.55519 10.9548 3.93 10.2885 4.59627C9.62224 5.26255 9.24744 6.16589 9.24632 7.10815V14.2163H83.8819Z" fill="url(#paint0_linear)"/>
<path d="M13.2256 54.5994C14.7288 52.2251 16.9023 50.3497 19.4712 49.2104C22.0401 48.0711 24.8892 47.719 27.6581 48.1987C30.4271 48.6783 32.9917 49.9682 35.0278 51.9052C37.0638 53.8422 38.4798 56.3394 39.0967 59.0811C39.7137 61.8227 39.504 64.6858 38.494 67.3083C37.4841 69.9307 35.7193 72.1949 33.4227 73.8145C31.1262 75.4341 28.401 76.3365 25.5916 76.4075C22.7823 76.4785 20.015 75.715 17.6395 74.2135C14.4566 72.1949 12.2043 68.9963 11.3768 65.3192C10.5493 61.6421 11.2142 57.7869 13.2256 54.5994ZM19.5394 71.2103C21.3215 72.3378 23.3979 72.9115 25.506 72.8589C27.6141 72.8063 29.6593 72.1298 31.383 70.9148C33.1066 69.6998 34.4313 68.0011 35.1894 66.0333C35.9476 64.0654 36.1052 61.917 35.6423 59.8597C35.1794 57.8023 34.1168 55.9284 32.5889 54.4749C31.061 53.0214 29.1365 52.0537 27.0586 51.694C24.9806 51.3343 22.8428 51.5989 20.9152 52.4543C18.9877 53.3097 17.3571 54.7174 16.2297 56.4995C14.7214 58.89 14.2228 61.7812 14.8432 64.5388C15.4637 67.2964 17.1526 69.6953 19.5394 71.2094V71.2103Z" fill="url(#paint1_linear)"/>
<path d="M9.69506 76.8C6.15337 73.0249 4.10973 68.0879 3.94705 62.9141C3.78437 57.7403 5.51382 52.6847 8.81135 48.6946C12.1089 44.7044 16.7482 42.0536 21.86 41.2388C26.9719 40.4239 32.2054 41.501 36.5801 44.2682C40.9547 47.0353 44.1703 51.3027 45.6242 56.2707C47.0782 61.2387 46.6707 66.5663 44.4783 71.2554C42.2858 75.9446 38.4587 79.6733 33.7142 81.7431C28.9696 83.8129 23.6331 84.0816 18.7046 82.4989L9.79302 96.5864C9.02687 97.7581 7.83055 98.5814 6.46246 98.8785C5.09437 99.1756 3.66431 98.9227 2.48117 98.1743C1.29802 97.4259 0.456757 96.2421 0.139061 94.8786C-0.178635 93.5152 0.052742 92.0815 0.783222 90.8872L9.69506 76.8ZM40.2574 71.699C42.1364 68.7288 43.0924 65.2681 43.0045 61.7545C42.9166 58.241 41.7889 54.8324 39.7638 51.9598C37.7387 49.0872 34.9073 46.8796 31.6276 45.6162C28.3479 44.3528 24.7672 44.0903 21.3383 44.862C17.9094 45.6336 14.7863 47.4047 12.364 49.9513C9.94164 52.4978 8.32886 55.7055 7.72957 59.1687C7.13028 62.6319 7.5714 66.195 8.99714 69.4075C10.4229 72.6199 12.7692 75.3375 15.7394 77.2164C19.7239 79.7306 24.5429 80.5617 29.1393 79.5273C33.7357 78.493 37.7341 75.6776 40.2574 71.699ZM3.5554 94.127C3.63287 94.4695 3.81008 94.7814 4.06467 95.0232C4.31926 95.2651 4.6398 95.4262 4.98584 95.486C5.33187 95.5458 5.68788 95.5018 6.00891 95.3595C6.32994 95.2172 6.60161 94.9829 6.78961 94.6863L15.3809 81.1051C14.8598 80.8329 14.3449 80.5397 13.8393 80.2201C13.3338 79.9004 12.8471 79.5615 12.3777 79.2072L3.7873 92.7871C3.66199 92.984 3.57697 93.2038 3.53716 93.4338C3.49735 93.6638 3.50356 93.8994 3.5554 94.127Z" fill="url(#paint2_linear)"/>
<path d="M76.7737 7.10815H80.3278V10.6622H76.7737V7.10815Z" fill="url(#paint3_linear)"/>
<path d="M69.6655 7.10815H73.2196V10.6622H69.6655V7.10815Z" fill="url(#paint4_linear)"/>
<path d="M62.5574 7.10815H66.1115V10.6622H62.5574V7.10815Z" fill="url(#paint5_linear)"/>
<path d="M41.233 85.2977H78.5507V88.8518H41.233V85.2977Z" fill="url(#paint6_linear)"/>
<path d="M34.1249 85.2977H37.679V88.8518H34.1249V85.2977Z" fill="url(#paint7_linear)"/>
<path d="M21.6856 26.6556V23.1015H44.7871C45.1201 23.1014 45.4465 23.195 45.7289 23.3716L53.4437 28.1934C55.7609 25.4417 59.0396 23.6762 62.6125 23.2563C66.1854 22.8364 69.784 23.7936 72.6761 25.9331C75.5683 28.0725 77.5366 31.2336 78.1805 34.7729C78.8245 38.3123 78.0957 41.964 76.1426 44.9851C74.1894 48.0062 71.1585 50.1696 67.6667 51.035C64.1749 51.9005 60.4845 51.4031 57.3465 49.6439C54.2085 47.8847 51.8586 44.9961 50.775 41.5657C49.6915 38.1353 49.9557 34.4209 51.5138 31.1784L44.2775 26.6556H21.6856ZM74.9967 37.3178C74.9951 35.3838 74.4679 33.4866 73.4715 31.829C72.4751 30.1714 71.0469 28.8158 69.3397 27.9071L66.2521 37.1812L70.6227 45.9209C71.9775 44.9324 73.0798 43.638 73.8399 42.1431C74.5999 40.6481 74.9963 38.9949 74.9967 37.3178ZM67.4465 47.5155L63.848 40.3185L58.1615 46.0051C59.4895 46.9523 61.0177 47.5813 62.6277 47.8436C64.2377 48.1058 65.8865 47.9942 67.4465 47.5173V47.5155ZM53.6722 37.3178C53.6705 39.5313 54.3618 41.6897 55.6492 43.4903L62.7809 36.3582L65.9687 26.7809C64.2384 26.5131 62.4688 26.676 60.8164 27.255C59.164 27.8339 57.6798 28.8112 56.4951 30.1004L59.9452 32.2568L58.0615 35.2706L54.5536 33.0782C53.9713 34.4157 53.6712 35.859 53.6722 37.3178Z" fill="url(#paint8_linear)"/>
<path d="M14.5774 23.1015H18.1315V26.6556H14.5774V23.1015Z" fill="url(#paint9_linear)"/>
<path d="M14.5774 30.2096H39.4559V33.7637H14.5774V30.2096Z" fill="url(#paint10_linear)"/>
<path d="M69.6655 56.8652H73.2196V60.4192H69.6655V56.8652Z" fill="url(#paint11_linear)"/>
<path d="M51.8952 56.8652H66.1115V60.4192H51.8952V56.8652Z" fill="url(#paint12_linear)"/>
<path d="M55.4492 63.9733H76.7737V67.5274H55.4492V63.9733Z" fill="url(#paint13_linear)"/>
<defs>
<linearGradient id="paint0_linear" x1="51.8952" y1="0" x2="51.8952" y2="81.7437" gradientUnits="userSpaceOnUse">
<stop stop-color="#911C81"/>
<stop offset="1" stop-color="#2CD5C4"/>
</linearGradient>
<linearGradient id="paint1_linear" x1="25.2365" y1="47.9901" x2="25.2365" y2="76.412" gradientUnits="userSpaceOnUse">
<stop stop-color="#911C81"/>
<stop offset="1" stop-color="#2CD5C4"/>
</linearGradient>
<linearGradient id="paint2_linear" x1="23.2403" y1="40.9735" x2="23.2403" y2="99" gradientUnits="userSpaceOnUse">
<stop stop-color="#911C81"/>
<stop offset="1" stop-color="#2CD5C4"/>
</linearGradient>
<linearGradient id="paint3_linear" x1="78.5507" y1="7.10815" x2="78.5507" y2="10.6622" gradientUnits="userSpaceOnUse">
<stop stop-color="#911C81"/>
<stop offset="1" stop-color="#2CD5C4"/>
</linearGradient>
<linearGradient id="paint4_linear" x1="71.4426" y1="7.10815" x2="71.4426" y2="10.6622" gradientUnits="userSpaceOnUse">
<stop stop-color="#911C81"/>
<stop offset="1" stop-color="#2CD5C4"/>
</linearGradient>
<linearGradient id="paint5_linear" x1="64.3344" y1="7.10815" x2="64.3344" y2="10.6622" gradientUnits="userSpaceOnUse">
<stop stop-color="#911C81"/>
<stop offset="1" stop-color="#2CD5C4"/>
</linearGradient>
<linearGradient id="paint6_linear" x1="59.8918" y1="85.2977" x2="59.8918" y2="88.8518" gradientUnits="userSpaceOnUse">
<stop stop-color="#911C81"/>
<stop offset="1" stop-color="#2CD5C4"/>
</linearGradient>
<linearGradient id="paint7_linear" x1="35.9019" y1="85.2977" x2="35.9019" y2="88.8518" gradientUnits="userSpaceOnUse">
<stop stop-color="#911C81"/>
<stop offset="1" stop-color="#2CD5C4"/>
</linearGradient>
<linearGradient id="paint8_linear" x1="50.0473" y1="23.1015" x2="50.0473" y2="51.4505" gradientUnits="userSpaceOnUse">
<stop stop-color="#911C81"/>
<stop offset="1" stop-color="#2CD5C4"/>
</linearGradient>
<linearGradient id="paint9_linear" x1="16.3544" y1="23.1015" x2="16.3544" y2="26.6556" gradientUnits="userSpaceOnUse">
<stop stop-color="#911C81"/>
<stop offset="1" stop-color="#2CD5C4"/>
</linearGradient>
<linearGradient id="paint10_linear" x1="27.0167" y1="30.2096" x2="27.0167" y2="33.7637" gradientUnits="userSpaceOnUse">
<stop stop-color="#911C81"/>
<stop offset="1" stop-color="#2CD5C4"/>
</linearGradient>
<linearGradient id="paint11_linear" x1="71.4426" y1="56.8652" x2="71.4426" y2="60.4192" gradientUnits="userSpaceOnUse">
<stop stop-color="#911C81"/>
<stop offset="1" stop-color="#2CD5C4"/>
</linearGradient>
<linearGradient id="paint12_linear" x1="59.0033" y1="56.8652" x2="59.0033" y2="60.4192" gradientUnits="userSpaceOnUse">
<stop stop-color="#911C81"/>
<stop offset="1" stop-color="#2CD5C4"/>
</linearGradient>
<linearGradient id="paint13_linear" x1="66.1115" y1="63.9733" x2="66.1115" y2="67.5274" gradientUnits="userSpaceOnUse">
<stop stop-color="#911C81"/>
<stop offset="1" stop-color="#2CD5C4"/>
</linearGradient>
</defs>
</svg>
