<svg width="99" height="99" viewBox="0 0 99 99" fill="none" xmlns="http://www.w3.org/2000/svg">
<g clip-path="url(#clip0)">
<path d="M36.1731 47.5961H39.9808V51.4038H36.1731V47.5961Z" fill="url(#paint0_linear)"/>
<path d="M59.0192 47.5961H62.8269V51.4038H59.0192V47.5961Z" fill="url(#paint1_linear)"/>
<path d="M47.5961 58.7431V60.9231H51.4038V58.7431C53.5159 58.0859 55.0163 56.2109 55.1929 54.0058C55.3696 51.8008 54.188 49.7101 52.207 48.7247L48.4969 46.8692C47.822 46.5317 47.4679 45.776 47.6408 45.0416C47.8137 44.3081 48.4681 43.7894 49.222 43.7884H49.7779C50.675 43.7894 51.4029 44.5173 51.4038 45.4143V45.6923H55.2115V45.4143C55.2032 43.0485 53.6619 40.9615 51.4038 40.2568V38.0769H47.5961V40.2568C45.4841 40.9141 43.9837 42.7891 43.807 44.9942C43.6304 47.1992 44.812 49.2899 46.793 50.2753L50.503 52.1308C51.1779 52.4682 51.5321 53.224 51.3592 53.9584C51.1863 54.6919 50.5319 55.2106 49.7779 55.2115H49.222C48.325 55.2106 47.5971 54.4827 47.5961 53.5856V53.3077H43.7885V53.5856C43.7968 55.9515 45.3381 58.0385 47.5961 58.7431Z" fill="url(#paint2_linear)"/>
<path d="M49.5 72.3462C62.1176 72.3462 72.3461 62.1177 72.3461 49.5C72.3461 36.8824 62.1176 26.6539 49.5 26.6539C36.8823 26.6539 26.6538 36.8824 26.6538 49.5C26.6678 62.1121 36.8879 72.3322 49.5 72.3462ZM49.5 30.4616C60.0148 30.4616 68.5384 38.9852 68.5384 49.5C68.5384 60.0149 60.0148 68.5385 49.5 68.5385C38.9851 68.5385 30.4615 60.0149 30.4615 49.5C30.4727 38.9898 38.9898 30.4727 49.5 30.4616Z" fill="url(#paint3_linear)"/>
<path d="M0 24.75H3.80769V28.5577H0V24.75Z" fill="url(#paint4_linear)"/>
<path d="M13.3269 1.90387H17.1346V5.71156H13.3269V1.90387Z" fill="url(#paint5_linear)"/>
<path d="M7.61536 9.51923H28.5577V13.3269H7.61536V9.51923Z" fill="url(#paint6_linear)"/>
<path d="M3.80762 17.1346H24.7499V20.9423H3.80762V17.1346Z" fill="url(#paint7_linear)"/>
<path d="M6.28235 83.7693L14.2138 74.25H31.8058C42.3699 81.8654 56.6227 81.8654 67.1868 74.25H91.3846V70.4423H71.5634C82.7606 58.7255 82.7606 40.2746 71.5634 28.5577H85.6731C86.2374 28.5577 86.7738 28.3076 87.1354 27.8745L96.6546 16.4514C97.2449 15.7449 97.2449 14.7167 96.6546 14.0102L87.1354 2.58713C86.7738 2.15394 86.2374 1.90387 85.6731 1.90387H20.9423V5.71156H84.7825L92.7177 15.2308L84.7863 24.75H67.1943C56.6302 17.1346 42.3773 17.1346 31.8132 24.75H7.61541V28.5577H27.4366C16.2394 40.2746 16.2394 58.7255 27.4366 70.4423H13.3269C12.7627 70.4423 12.2263 70.6924 11.8647 71.1256L2.34544 82.5487C1.75513 83.2552 1.75513 84.2833 2.34544 84.9898L11.8647 96.4129C12.2263 96.8461 12.7627 97.0962 13.3269 97.0962H78.0577V93.2885H14.2175L6.28235 83.7693ZM49.5 22.8462C64.2204 22.8462 76.1539 34.7796 76.1539 49.5C76.1539 64.2204 64.2204 76.1539 49.5 76.1539C34.7796 76.1539 22.8462 64.2204 22.8462 49.5C22.862 34.7861 34.7861 22.862 49.5 22.8462Z" fill="url(#paint8_linear)"/>
<path d="M95.1923 70.4423H99V74.25H95.1923V70.4423Z" fill="url(#paint9_linear)"/>
<path d="M81.8654 93.2885H85.6731V97.0961H81.8654V93.2885Z" fill="url(#paint10_linear)"/>
<path d="M70.4424 85.6731H91.3847V89.4808H70.4424V85.6731Z" fill="url(#paint11_linear)"/>
<path d="M74.25 78.0577H95.1923V81.8654H74.25V78.0577Z" fill="url(#paint12_linear)"/>
</g>
<defs>
<linearGradient id="paint0_linear" x1="38.0769" y1="47.5961" x2="38.0769" y2="51.4038" gradientUnits="userSpaceOnUse">
<stop stop-color="#911C81"/>
<stop offset="1" stop-color="#2CD5C4"/>
</linearGradient>
<linearGradient id="paint1_linear" x1="60.923" y1="47.5961" x2="60.923" y2="51.4038" gradientUnits="userSpaceOnUse">
<stop stop-color="#911C81"/>
<stop offset="1" stop-color="#2CD5C4"/>
</linearGradient>
<linearGradient id="paint2_linear" x1="49.5" y1="38.0769" x2="49.5" y2="60.9231" gradientUnits="userSpaceOnUse">
<stop stop-color="#911C81"/>
<stop offset="1" stop-color="#2CD5C4"/>
</linearGradient>
<linearGradient id="paint3_linear" x1="49.5" y1="26.6539" x2="49.5" y2="72.3462" gradientUnits="userSpaceOnUse">
<stop stop-color="#911C81"/>
<stop offset="1" stop-color="#2CD5C4"/>
</linearGradient>
<linearGradient id="paint4_linear" x1="1.90385" y1="24.75" x2="1.90385" y2="28.5577" gradientUnits="userSpaceOnUse">
<stop stop-color="#911C81"/>
<stop offset="1" stop-color="#2CD5C4"/>
</linearGradient>
<linearGradient id="paint5_linear" x1="15.2308" y1="1.90387" x2="15.2308" y2="5.71156" gradientUnits="userSpaceOnUse">
<stop stop-color="#911C81"/>
<stop offset="1" stop-color="#2CD5C4"/>
</linearGradient>
<linearGradient id="paint6_linear" x1="18.0865" y1="9.51923" x2="18.0865" y2="13.3269" gradientUnits="userSpaceOnUse">
<stop stop-color="#911C81"/>
<stop offset="1" stop-color="#2CD5C4"/>
</linearGradient>
<linearGradient id="paint7_linear" x1="14.2788" y1="17.1346" x2="14.2788" y2="20.9423" gradientUnits="userSpaceOnUse">
<stop stop-color="#911C81"/>
<stop offset="1" stop-color="#2CD5C4"/>
</linearGradient>
<linearGradient id="paint8_linear" x1="49.5" y1="1.90387" x2="49.5" y2="97.0962" gradientUnits="userSpaceOnUse">
<stop stop-color="#911C81"/>
<stop offset="1" stop-color="#2CD5C4"/>
</linearGradient>
<linearGradient id="paint9_linear" x1="97.0962" y1="70.4423" x2="97.0962" y2="74.25" gradientUnits="userSpaceOnUse">
<stop stop-color="#911C81"/>
<stop offset="1" stop-color="#2CD5C4"/>
</linearGradient>
<linearGradient id="paint10_linear" x1="83.7692" y1="93.2885" x2="83.7692" y2="97.0961" gradientUnits="userSpaceOnUse">
<stop stop-color="#911C81"/>
<stop offset="1" stop-color="#2CD5C4"/>
</linearGradient>
<linearGradient id="paint11_linear" x1="80.9135" y1="85.6731" x2="80.9135" y2="89.4808" gradientUnits="userSpaceOnUse">
<stop stop-color="#911C81"/>
<stop offset="1" stop-color="#2CD5C4"/>
</linearGradient>
<linearGradient id="paint12_linear" x1="84.7212" y1="78.0577" x2="84.7212" y2="81.8654" gradientUnits="userSpaceOnUse">
<stop stop-color="#911C81"/>
<stop offset="1" stop-color="#2CD5C4"/>
</linearGradient>
<clipPath id="clip0">
<rect width="99" height="99" fill="white"/>
</clipPath>
</defs>
</svg>
