<svg width="111" height="101" viewBox="0 0 111 101" fill="none" xmlns="http://www.w3.org/2000/svg">
<path d="M23.8107 63.7469C26.3785 63.7469 28.5962 61.6644 28.5962 59.0035C28.5962 56.4582 26.4953 54.2601 23.8107 54.2601H4.78549C2.21767 54.2601 0 56.3425 0 59.0035C0 61.5487 2.10095 63.7469 4.78549 63.7469H23.8107Z" fill="white"/>
<path d="M27.6626 35.9805H8.5206C5.95277 35.9805 3.73511 38.0629 3.73511 40.7239C3.73511 43.3848 5.83605 45.4673 8.5206 45.4673H27.6626C30.2304 45.4673 32.448 43.3848 32.448 40.7239C32.448 38.0629 30.2304 35.9805 27.6626 35.9805Z" fill="white"/>
<path d="M27.6626 72.6553H8.5206C5.95277 72.6553 3.73511 74.7377 3.73511 77.3987C3.73511 80.0596 5.83605 82.1421 8.5206 82.1421H27.6626C30.2304 82.1421 32.448 80.0596 32.448 77.3987C32.448 74.7377 30.2304 72.6553 27.6626 72.6553Z" fill="white"/>
<path d="M73.183 17.2383V9.48683H78.6688C81.2366 9.48683 83.4543 7.40435 83.4543 4.74341C83.4543 2.08247 81.3533 0 78.6688 0H58.2429C55.6751 0 53.4574 2.08247 53.4574 4.74341C53.4574 7.40435 55.5584 9.48683 58.2429 9.48683H63.7287V17.2383C54.5079 18.2795 45.8707 22.2131 39.2177 28.5762C37.3502 30.4273 37.2335 33.3196 39.101 35.1707C40.9685 37.0218 43.8865 37.1375 45.754 35.2864C51.8234 29.5017 59.9937 26.2623 68.5142 26.2623C86.7224 26.2623 101.546 40.9553 101.546 58.8877C101.546 76.9359 86.7224 91.6289 68.5142 91.6289C59.9937 91.6289 51.9401 88.3895 45.754 82.6048C43.8865 80.8694 40.8518 80.8694 39.101 82.7205C37.3502 84.5716 37.3502 87.5796 39.2177 89.315C47.1546 96.8351 57.5426 101 68.5142 101C91.9748 101 111 82.142 111 58.8877C110.883 37.3688 94.3092 19.5521 73.183 17.2383Z" fill="white"/>
<path d="M68.3975 35.9805C65.8297 35.9805 63.6121 38.0629 63.6121 40.7239V59.0034C63.6121 61.5486 65.713 63.7468 68.3975 63.7468H84.1546C86.7225 63.7468 88.9401 61.6643 88.9401 59.0034C88.9401 56.4581 86.8392 54.26 84.1546 54.26H73.183V40.7239C73.183 38.0629 70.9654 35.9805 68.3975 35.9805Z" fill="white"/>
</svg>
