<svg width="118" height="118" viewBox="0 0 118 118" fill="none" xmlns="http://www.w3.org/2000/svg">
<path d="M115.196 48.1625L95.875 37.6236V23.9688C95.875 22.951 95.0508 22.125 94.0312 22.125H81.125V14.75C81.125 14.0752 80.7562 13.4539 80.1644 13.1312L59.8832 2.06872C59.3356 1.76819 58.6663 1.76819 58.1187 2.06872L37.8374 13.1312C37.2437 13.4539 36.875 14.0752 36.875 14.75V22.125H23.9688C22.9492 22.125 22.125 22.951 22.125 23.9688V37.6236L2.80434 48.1625C2.2125 48.4851 1.84375 49.1065 1.84375 49.7813V68.2188C1.84375 68.8936 2.2125 69.5149 2.80434 69.8376L23.0856 80.9001C23.3603 81.0495 23.6645 81.125 23.9688 81.125C24.273 81.125 24.5772 81.0495 24.8519 80.9001L45.1332 69.8376C45.725 69.5149 46.0938 68.8936 46.0938 68.2188V49.7813C46.0938 49.1065 45.725 48.4851 45.1332 48.1625L25.8125 37.6236V25.8125H36.875V33.1875C36.875 33.8624 37.2438 34.4837 37.8356 34.8064L58.1168 45.8689C58.3916 46.0182 58.6958 46.0938 59 46.0938C59.3042 46.0938 59.6084 46.0182 59.8832 45.8689L80.1644 34.8064C80.7562 34.4837 81.125 33.8624 81.125 33.1875V25.8125H92.1875V37.6236L72.8668 48.1625C72.275 48.4851 71.9062 49.1065 71.9062 49.7813V68.2188C71.9062 68.8936 72.275 69.5149 72.8668 69.8376L93.1481 80.9001C93.4228 81.0495 93.727 81.125 94.0312 81.125C94.3355 81.125 94.6397 81.0495 94.9144 80.9001L115.196 69.8376C115.787 69.5149 116.156 68.8936 116.156 68.2188V49.7813C116.156 49.1065 115.787 48.4851 115.196 48.1625ZM5.53125 52.8862L22.125 61.9371V76.1746L5.53125 67.1236V52.8862ZM25.8125 76.1746V61.9371L42.4062 52.8862V67.1236L25.8125 76.1746ZM40.4002 49.7813L23.9688 58.7438L7.53725 49.7813L22.125 41.8255V46.0938H25.8125V41.8255L40.4002 49.7813ZM59 5.78757L75.4315 14.75L59 23.7125L42.5685 14.75L59 5.78757ZM40.5625 25.8125H44.25V22.125H40.5625V17.8549L57.1562 26.9059V41.1433L40.5625 32.0924V25.8125ZM77.4375 32.0924L60.8438 41.1433V26.9059L77.4375 17.8549V22.125H73.75V25.8125H77.4375V32.0924ZM92.1875 41.8255V46.0938H95.875V41.8255L110.463 49.7813L94.0312 58.7438L77.5998 49.7813L92.1875 41.8255ZM75.5938 52.8862L92.1875 61.9371V76.1746L75.5938 67.1236V52.8862ZM95.875 76.1746V61.9371L112.469 52.8862V67.1236L95.875 76.1746Z" fill="url(#paint0_linear)"/>
<path d="M92.1875 92.1875H81.125V84.8125C81.125 84.1377 80.7562 83.5164 80.1644 83.1937L59.8832 72.1312C59.3356 71.8307 58.6663 71.8307 58.1187 72.1312L37.8374 83.1937C37.2437 83.5164 36.875 84.1377 36.875 84.8125V92.1875H25.8125V84.8125H22.125V94.0313C22.125 95.049 22.9492 95.875 23.9688 95.875H36.875V103.25C36.875 103.925 37.2437 104.546 37.8356 104.869L58.1168 115.931C58.3916 116.081 58.6958 116.156 59 116.156C59.3042 116.156 59.6084 116.081 59.8832 115.931L80.1644 104.869C80.7562 104.546 81.125 103.925 81.125 103.25V95.875H94.0312C95.0508 95.875 95.875 95.049 95.875 94.0313V84.8125H92.1875V92.1875ZM59 75.8501L75.4315 84.8125L59 93.775L42.5685 84.8125L59 75.8501ZM40.5625 95.875H44.25V92.1875H40.5625V87.9174L57.1562 96.9684V111.206L40.5625 102.155V95.875ZM77.4375 102.155L60.8438 111.206V96.9684L77.4375 87.9174V92.1875H73.75V95.875H77.4375V102.155Z" fill="url(#paint1_linear)"/>
<defs>
<linearGradient id="paint0_linear" x1="59" y1="1.84332" x2="59" y2="81.125" gradientUnits="userSpaceOnUse">
<stop stop-color="#911C81"/>
<stop offset="1" stop-color="#2CD5C4"/>
</linearGradient>
<linearGradient id="paint1_linear" x1="59" y1="71.9058" x2="59" y2="116.156" gradientUnits="userSpaceOnUse">
<stop stop-color="#911C81"/>
<stop offset="1" stop-color="#2CD5C4"/>
</linearGradient>
</defs>
</svg>
