<svg width="106" height="106" viewBox="0 0 106 106" fill="none" xmlns="http://www.w3.org/2000/svg">
<g clip-path="url(#clip0)">
<path d="M105.796 57.8963C104.844 48.3235 100.567 39.2986 93.7529 32.4841C87.9294 26.6608 80.8016 22.9187 73.3016 21.2548V15.9944C76.3649 15.2323 78.6418 12.4595 78.6418 9.16374C78.6418 5.28226 75.4842 2.12457 71.6027 2.12457H56.6962C52.8147 2.12457 49.657 5.28226 49.657 9.16374C49.657 12.4593 51.934 15.2321 54.9971 15.9944V21.2695C47.52 22.9404 40.4158 26.6774 34.6089 32.4843C33.3381 33.7551 32.1663 35.0882 31.0937 36.4737C31.0417 36.4697 30.9897 36.4658 30.9367 36.4658H16.1833C15.04 36.4658 14.1129 37.3927 14.1129 38.5361C14.1129 39.6796 15.04 40.6065 16.1833 40.6065H28.2766C26.7586 43.1478 25.5346 45.8167 24.6029 48.5641H2.07034C0.9271 48.5641 0 49.491 0 50.6344C0 51.7779 0.9271 52.7048 2.07034 52.7048H23.433C22.8363 55.3239 22.4939 57.9895 22.4055 60.6625H13.2502C12.107 60.6625 11.1799 61.5894 11.1799 62.7329C11.1799 63.8763 12.107 64.8032 13.2502 64.8032H22.4715C22.6463 67.4831 23.0771 70.1489 23.7642 72.761H10.3517C9.20848 72.761 8.28138 73.6879 8.28138 74.8314C8.28138 75.9748 9.20848 76.9017 10.3517 76.9017H25.0855C27.1165 82.2745 30.2906 87.3101 34.6089 91.6285C41.4299 98.4494 50.464 102.727 60.0468 103.674C61.4145 103.809 62.7832 103.876 64.15 103.876C72.2289 103.876 80.2052 101.538 86.9731 97.1304C87.9313 96.5064 88.2023 95.2238 87.5783 94.2657C86.9543 93.3075 85.6717 93.0365 84.7135 93.6605C69.8988 103.308 50.058 101.222 37.5368 88.7006C22.8452 74.009 22.8452 50.1042 37.5368 35.4124C52.2282 20.721 76.133 20.721 90.8248 35.4124C103.329 47.9173 105.427 67.741 95.8114 82.5486C95.1887 83.5075 95.4613 84.7899 96.4201 85.4125C97.3795 86.0352 98.6615 85.7626 99.284 84.8036C104.421 76.8918 106.734 67.3361 105.796 57.8963ZM53.7977 9.16395C53.7977 7.56565 55.0979 6.26547 56.6962 6.26547H71.6027C73.201 6.26547 74.5012 7.56565 74.5012 9.16395C74.5012 10.7623 73.201 12.0624 71.6027 12.0624H71.2312H57.0674H56.6962C55.0979 12.0624 53.7977 10.7621 53.7977 9.16395ZM59.1377 20.5577V16.2031H69.1609V20.5502C65.8326 20.1544 62.4654 20.1569 59.1377 20.5577Z" fill="url(#paint0_linear)"/>
<path d="M92.2896 88.0932C91.7431 88.0932 91.211 88.3147 90.8261 88.6998C90.439 89.0849 90.2193 89.619 90.2193 90.1635C90.2193 90.708 90.439 91.2421 90.8261 91.6272C91.211 92.0144 91.7433 92.2338 92.2896 92.2338C92.8341 92.2338 93.3662 92.0144 93.7534 91.6272C94.1384 91.2421 94.36 90.708 94.36 90.1635C94.36 89.619 94.1386 89.0849 93.7534 88.6998C93.3662 88.3147 92.8339 88.0932 92.2896 88.0932Z" fill="url(#paint1_linear)"/>
<path d="M64.1807 29.939C46.4714 29.939 32.0637 44.3466 32.0637 62.0561C32.0637 79.7656 46.4714 94.1731 64.1807 94.1731C81.8901 94.1731 96.2978 79.7656 96.2978 62.0561C96.2978 44.3466 81.8901 29.939 64.1807 29.939ZM64.1807 90.0324C48.7544 90.0324 36.2044 77.4822 36.2044 62.0561C36.2044 46.6299 48.7544 34.0797 64.1807 34.0797C79.6071 34.0797 92.1571 46.6299 92.1571 62.0561C92.1571 77.4822 79.6071 90.0324 64.1807 90.0324Z" fill="url(#paint2_linear)"/>
<path d="M77.2771 46.0321L67.0227 56.2863C66.1651 55.8623 65.2006 55.6227 64.1809 55.6227C63.1611 55.6227 62.1967 55.8623 61.3392 56.2863L56.7498 51.697C55.9412 50.8885 54.6306 50.8885 53.8217 51.697C53.0133 52.5054 53.0133 53.8164 53.8217 54.6248L58.4111 59.2142C57.9869 60.0717 57.7475 61.0363 57.7475 62.0559C57.7475 65.6033 60.6334 68.4893 64.1809 68.4893C67.7285 68.4893 70.6143 65.6033 70.6143 62.0559C70.6143 61.0363 70.3748 60.0717 69.9508 59.2142L79.9042 49.2608L80.205 48.96C81.0134 48.1515 81.0134 46.8405 80.205 46.0321C79.3965 45.2236 78.086 45.2236 77.2771 46.0321ZM64.1809 64.3488C62.9168 64.3488 61.8882 63.3203 61.8882 62.0561C61.8882 60.792 62.9168 59.7634 64.1809 59.7634C65.4451 59.7634 66.4736 60.792 66.4736 62.0561C66.4736 63.3203 65.4451 64.3488 64.1809 64.3488Z" fill="url(#paint3_linear)"/>
<path d="M86.3169 60.011H84.3987C83.2555 60.011 82.3284 60.9379 82.3284 62.0814C82.3284 63.2248 83.2555 64.1517 84.3987 64.1517H86.3169C87.4601 64.1517 88.3872 63.2248 88.3872 62.0814C88.3872 60.9379 87.4601 60.011 86.3169 60.011Z" fill="url(#paint4_linear)"/>
<path d="M43.963 59.9606H42.0451C40.9018 59.9606 39.9748 60.8875 39.9748 62.0309C39.9748 63.1743 40.9018 64.1012 42.0451 64.1012H43.963C45.1062 64.1012 46.0333 63.1743 46.0333 62.0309C46.0333 60.8875 45.1062 59.9606 43.963 59.9606Z" fill="url(#paint5_linear)"/>
<path d="M64.2062 43.9084C65.3494 43.9084 66.2765 42.9815 66.2765 41.8381V39.9202C66.2765 38.7767 65.3494 37.8499 64.2062 37.8499C63.0629 37.8499 62.1359 38.7767 62.1359 39.9202V41.8381C62.1359 42.9815 63.0629 43.9084 64.2062 43.9084Z" fill="url(#paint6_linear)"/>
<path d="M64.1555 80.2037C63.0123 80.2037 62.0852 81.1306 62.0852 82.274V84.192C62.0852 85.3354 63.0123 86.2623 64.1555 86.2623C65.2987 86.2623 66.2258 85.3354 66.2258 84.192V82.274C66.2258 81.1306 65.2987 80.2037 64.1555 80.2037Z" fill="url(#paint7_linear)"/>
<path d="M2.07031 72.7603C1.52582 72.7603 0.99168 72.9818 0.606602 73.3669C0.221523 73.7519 0 74.2861 0 74.8306C0 75.3771 0.221316 75.9092 0.606602 76.2943C0.991887 76.6794 1.52582 76.9009 2.07031 76.9009C2.6148 76.9009 3.14895 76.6794 3.53382 76.2943C3.91889 75.9092 4.14062 75.3751 4.14062 74.8306C4.14062 74.2861 3.9191 73.7519 3.53382 73.3669C3.14895 72.9818 2.6148 72.7603 2.07031 72.7603Z" fill="url(#paint8_linear)"/>
</g>
<defs>
<linearGradient id="paint0_linear" x1="53" y1="2.12457" x2="53" y2="103.876" gradientUnits="userSpaceOnUse">
<stop stop-color="#911C81"/>
<stop offset="1" stop-color="#2CD5C4"/>
</linearGradient>
<linearGradient id="paint1_linear" x1="92.2896" y1="88.0932" x2="92.2896" y2="92.2338" gradientUnits="userSpaceOnUse">
<stop stop-color="#911C81"/>
<stop offset="1" stop-color="#2CD5C4"/>
</linearGradient>
<linearGradient id="paint2_linear" x1="64.1807" y1="29.939" x2="64.1807" y2="94.1731" gradientUnits="userSpaceOnUse">
<stop stop-color="#911C81"/>
<stop offset="1" stop-color="#2CD5C4"/>
</linearGradient>
<linearGradient id="paint3_linear" x1="67.0134" y1="45.4257" x2="67.0134" y2="68.4893" gradientUnits="userSpaceOnUse">
<stop stop-color="#911C81"/>
<stop offset="1" stop-color="#2CD5C4"/>
</linearGradient>
<linearGradient id="paint4_linear" x1="85.3578" y1="60.011" x2="85.3578" y2="64.1517" gradientUnits="userSpaceOnUse">
<stop stop-color="#911C81"/>
<stop offset="1" stop-color="#2CD5C4"/>
</linearGradient>
<linearGradient id="paint5_linear" x1="43.004" y1="59.9606" x2="43.004" y2="64.1012" gradientUnits="userSpaceOnUse">
<stop stop-color="#911C81"/>
<stop offset="1" stop-color="#2CD5C4"/>
</linearGradient>
<linearGradient id="paint6_linear" x1="64.2062" y1="37.8499" x2="64.2062" y2="43.9084" gradientUnits="userSpaceOnUse">
<stop stop-color="#911C81"/>
<stop offset="1" stop-color="#2CD5C4"/>
</linearGradient>
<linearGradient id="paint7_linear" x1="64.1555" y1="80.2037" x2="64.1555" y2="86.2623" gradientUnits="userSpaceOnUse">
<stop stop-color="#911C81"/>
<stop offset="1" stop-color="#2CD5C4"/>
</linearGradient>
<linearGradient id="paint8_linear" x1="2.07031" y1="72.7603" x2="2.07031" y2="76.9009" gradientUnits="userSpaceOnUse">
<stop stop-color="#911C81"/>
<stop offset="1" stop-color="#2CD5C4"/>
</linearGradient>
<clipPath id="clip0">
<rect width="106" height="106" fill="white"/>
</clipPath>
</defs>
</svg>
