<svg width="95" height="106" viewBox="0 0 95 106" fill="none" xmlns="http://www.w3.org/2000/svg">
<path d="M4.68512 78.3432L8.56653 80.5842L51.807 5.69163L47.9256 3.45063L4.68512 78.3432Z" fill="white"/>
<path d="M90.2773 72.36H3.79626V76.842H90.2773V72.36Z" fill="white"/>
<path d="M5.50746 74.878L48.7642 99.853L51.0052 95.9716L7.74846 70.9966L5.50746 74.878Z" fill="white"/>
<path d="M43.0845 9.7866L86.3412 34.7616L88.5822 30.8802L45.3255 5.90518L43.0845 9.7866Z" fill="white"/>
<path d="M5.51938 30.8632L7.76038 34.7446L51.0171 9.76957L48.7761 5.88816L5.51938 30.8632Z" fill="white"/>
<path d="M42.3032 5.69242L85.5437 80.585L89.4251 78.344L46.1846 3.45142L42.3032 5.69242Z" fill="white"/>
<path d="M11.7072 27.891H7.22522V77.841H11.7072V27.891Z" fill="white"/>
<path d="M86.8753 27.891H82.3933V77.841H86.8753V27.891Z" fill="white"/>
<path d="M46.0436 94.5654L48.0011 97.9558L85.6228 76.2343L83.6653 72.8439L46.0436 94.5654Z" fill="white"/>
<path d="M92.8153 79.299C90.2233 83.808 84.4453 85.347 79.9363 82.755C75.4273 80.163 73.8883 74.385 76.4803 69.876C79.0723 65.367 84.8503 63.828 89.3593 66.42C93.8953 69.039 95.4343 74.79 92.8153 79.299Z" fill="white"/>
<path d="M17.5932 35.856C15.0012 40.365 9.22322 41.904 4.71422 39.312C0.205218 36.72 -1.33378 30.942 1.25822 26.433C3.85022 21.924 9.62822 20.385 14.1372 22.977C18.6462 25.596 20.1852 31.347 17.5932 35.856Z" fill="white"/>
<path d="M1.2852 79.299C-1.3068 74.79 0.232195 69.039 4.7412 66.42C9.25019 63.828 15.0012 65.367 17.6202 69.876C20.2122 74.385 18.6732 80.136 14.1642 82.755C9.62819 85.347 3.8772 83.808 1.2852 79.299Z" fill="white"/>
<path d="M76.5072 35.856C73.9152 31.347 75.4542 25.596 79.9632 22.977C84.4722 20.385 90.2232 21.924 92.8422 26.433C95.4342 30.942 93.8952 36.693 89.3862 39.312C84.8772 41.904 79.0992 40.365 76.5072 35.856Z" fill="white"/>
<path d="M47.0502 105.732C41.8392 105.732 37.6272 101.52 37.6272 96.3089C37.6272 91.0979 41.8392 86.8859 47.0502 86.8859C52.2612 86.8859 56.4732 91.0979 56.4732 96.3089C56.4732 101.493 52.2612 105.732 47.0502 105.732Z" fill="white"/>
<path d="M47.0502 18.846C41.8392 18.846 37.6272 14.634 37.6272 9.423C37.6272 4.212 41.8392 0 47.0502 0C52.2612 0 56.4732 4.212 56.4732 9.423C56.4732 14.634 52.2612 18.846 47.0502 18.846Z" fill="white"/>
</svg>
