<svg width="113" height="112" viewBox="0 0 113 112" fill="none" xmlns="http://www.w3.org/2000/svg">
<path d="M74.6448 0C70.5484 0 67.1333 3.42999 67.1333 7.53597V45.1855C67.1333 49.2913 70.5484 52.7142 74.6448 52.7142H104.669C108.766 52.7142 112.188 49.2913 112.188 45.1855V11.3147C112.194 10.3176 111.802 9.35611 111.104 8.6461L103.592 1.11754C102.89 0.405715 101.93 0.00198094 100.93 0.000463182L74.6448 0ZM74.6448 7.53597H99.351C100.662 8.85035 103.33 11.5241 104.669 12.8663V45.1855H74.6448V7.53597ZM5.83045 39.767C-3.82839 57.7689 -1.3211 79.9428 12.1239 95.3114C25.5688 110.68 47.1464 116.062 66.2162 108.817C85.2863 101.573 97.8925 83.189 97.7958 62.7497C97.8716 57.6194 90.1378 57.6723 90.2844 62.8104C90.3753 80.1331 79.7159 95.6586 63.5538 101.798C47.3914 107.938 29.175 103.376 17.7801 90.3509C6.38505 77.3254 4.24603 58.6137 12.4322 43.3567C20.6183 28.1 37.3621 19.5651 54.487 21.9109C59.4603 22.5954 60.4874 15.1201 55.5123 14.4339C34.7768 12.0166 14.7251 22.6453 5.8286 39.7763L5.83045 39.767ZM85.538 18.8433C80.6357 19.1848 80.9928 26.5122 85.9044 26.3718H93.4161C98.5361 26.4933 98.5361 18.7293 93.4161 18.8433H85.9044C85.7681 18.8358 85.6591 18.8358 85.538 18.8433ZM85.9044 30.1214C80.8919 30.1214 80.8919 37.6573 85.9044 37.6573H93.4161C98.4288 37.6573 98.4288 30.1214 93.4161 30.1214H85.9044ZM48.8895 43.0755C37.9548 43.0755 29.0102 52.0402 29.0102 62.9994C29.0102 73.9586 37.9548 82.9161 48.8895 82.9161C59.8242 82.9159 68.7686 73.9586 68.7686 62.9994C68.7686 52.0404 59.8242 43.0756 48.8895 43.0755ZM48.8895 50.6038C55.7645 50.6038 61.2569 56.109 61.2569 62.9994C61.2569 69.89 55.7645 75.3875 48.8895 75.3875C42.0145 75.3875 36.5216 69.89 36.5216 62.9994C36.5216 56.109 42.0145 50.6038 48.8895 50.6038Z" fill="white"/>
</svg>
