<svg width="101" height="101" viewBox="0 0 101 101" fill="none" xmlns="http://www.w3.org/2000/svg">
<path d="M51.2465 67.8215C60.2212 67.4364 67.4364 60.2212 67.8215 51.2465C69.9109 51.7972 72.0398 52.0781 74.1719 52.0781C88.0941 52.0781 99.4219 40.7503 99.4219 26.8281C99.4219 12.9059 88.0941 1.57812 74.1719 1.57812C60.2497 1.57812 48.9219 12.9059 48.9219 26.8281C48.9219 28.9602 49.2028 31.0891 49.7535 33.1785C40.7788 33.5636 33.5636 40.7788 33.1785 49.7535C31.0891 49.2028 28.9602 48.9219 26.8281 48.9219C12.9059 48.9219 1.57812 60.2497 1.57812 74.1719C1.57812 88.0941 12.9059 99.4219 26.8281 99.4219C40.7503 99.4219 52.0781 88.0941 52.0781 74.1719C52.0781 72.0398 51.7972 69.9109 51.2465 67.8215ZM67.6416 47.8929C67.004 43.6888 64.8657 39.9755 61.7741 37.3274C63.2213 34.7188 65.4117 32.6593 68.0314 31.3984C68.5585 33.6851 70.3291 35.4841 72.5922 36.0728V45.7656H75.7484V36.0728C78.0115 35.4841 79.7821 33.6867 80.3092 31.4C84.9457 33.6346 88.1825 38.3058 88.3513 43.7488C84.5117 46.9713 79.5675 48.9219 74.1719 48.9219C71.9767 48.9219 69.7863 48.5621 67.6416 47.8929ZM67.8594 20.5156C67.8594 17.0343 70.6905 14.2031 74.1719 14.2031C77.6532 14.2031 80.4844 17.0343 80.4844 20.5156C80.4844 23.997 77.6532 26.8281 74.1719 26.8281C70.6905 26.8281 67.8594 23.997 67.8594 20.5156ZM74.1719 33.1406C72.5638 33.1406 71.2476 31.927 71.0551 30.3694C72.0682 30.139 73.1051 29.9844 74.1719 29.9844C75.245 29.9844 76.2866 30.1138 77.2918 30.341C77.1119 31.9113 75.7895 33.1406 74.1719 33.1406ZM74.1719 4.73438C86.355 4.73438 96.2656 14.645 96.2656 26.8281C96.2656 32.1622 94.3656 37.0607 91.2062 40.8813C90.0399 34.8592 85.749 29.9528 80.0946 27.8902C82.2534 26.1543 83.6406 23.4951 83.6406 20.5156C83.6406 15.2936 79.3939 11.0469 74.1719 11.0469C68.9499 11.0469 64.7031 15.2936 64.7031 20.5156C64.7031 23.4904 66.0856 26.1464 68.2381 27.8839C64.4585 29.2632 61.2265 31.9334 59.1639 35.4794C57.3285 34.4173 55.2849 33.6882 53.1071 33.3584C52.4379 31.2137 52.0781 29.0233 52.0781 26.8281C52.0781 14.645 61.9888 4.73438 74.1719 4.73438ZM50.5 36.2969C58.3322 36.2969 64.7031 42.6678 64.7031 50.5C64.7031 58.3322 58.3322 64.7031 50.5 64.7031C42.6678 64.7031 36.2969 58.3322 36.2969 50.5C36.2969 42.6678 42.6678 36.2969 50.5 36.2969ZM12.6471 91.091C12.7812 86.7574 14.8565 82.9115 18.0395 80.3944L19.2515 91.2945L26.8281 85.6133L34.4047 91.2945L35.6167 80.3944C38.8014 82.9115 40.8766 86.7574 41.0092 91.091C37.168 94.3151 32.2237 96.2656 26.8281 96.2656C21.4325 96.2656 16.4882 94.3151 12.6471 91.091ZM20.5156 67.8594C20.5156 64.378 23.3468 61.5469 26.8281 61.5469C30.3095 61.5469 33.1406 64.378 33.1406 67.8594C33.1406 71.3407 30.3095 74.1719 26.8281 74.1719C23.3468 74.1719 20.5156 71.3407 20.5156 67.8594ZM26.8281 81.1756L23.8833 77.6406C24.8334 77.4386 25.8181 77.3281 26.8281 77.3281C27.8381 77.3281 28.8229 77.4386 29.7729 77.639L26.8281 81.1756ZM32.5725 79.2124L31.8781 85.4539L29.1054 83.3739L32.5725 79.2124ZM21.7797 85.4539L21.0853 79.2124L24.5525 83.3739L21.7797 85.4539ZM43.8624 88.2251C42.6962 82.2029 38.4053 77.2966 32.7508 75.234C34.9097 73.498 36.2969 70.8389 36.2969 67.8594C36.2969 62.6374 32.0501 58.3906 26.8281 58.3906C21.6061 58.3906 17.3594 62.6374 17.3594 67.8594C17.3594 70.8389 18.7465 73.498 20.9038 75.2355C15.2494 77.2981 10.9601 82.2029 9.79227 88.2267C6.63444 84.4044 4.73438 79.5059 4.73438 74.1719C4.73438 61.9888 14.645 52.0781 26.8281 52.0781C29.0233 52.0781 31.2137 52.4379 33.3584 53.1071C34.4931 60.5905 40.4095 66.5053 47.8929 67.6416C48.5621 69.7863 48.9219 71.9767 48.9219 74.1719C48.9219 79.5059 47.0218 84.4044 43.8624 88.2251Z" fill="url(#paint0_linear)"/>
<path d="M67.8594 72.5938H74.0993C73.4491 79.5991 68.5175 85.6449 61.6605 87.6033L52.0781 90.3413V94.6875H63.125C75.6474 94.6875 85.9289 84.9142 86.7448 72.5938H93.1094L80.4844 55.7599L67.8594 72.5938ZM83.6406 69.4375V71.0156C83.6406 82.3276 74.437 91.5313 63.125 91.5313H59.4022L62.5269 90.6396C71.2429 88.1478 77.3281 80.0788 77.3281 71.0156V69.4375H74.1719L80.4844 61.0214L86.7969 69.4375H83.6406Z" fill="url(#paint1_linear)"/>
<path d="M33.1406 28.4062H26.9007C27.5509 21.401 32.4825 15.3552 39.3395 13.3967L48.9219 10.6587V6.3125H37.875C25.3526 6.3125 15.0711 16.0858 14.2552 28.4062H7.89062L20.5156 45.2401L33.1406 28.4062ZM17.3594 31.5625V29.9844C17.3594 18.6724 26.563 9.46875 37.875 9.46875H41.5978L38.4731 10.3604C29.7571 12.8523 23.6719 20.9212 23.6719 29.9844V31.5625H26.8281L20.5156 39.9786L14.2031 31.5625H17.3594Z" fill="url(#paint2_linear)"/>
<path d="M46.1113 54.5175C44.9673 54.5175 44.0323 54.1362 43.3063 53.3735C42.5876 52.6035 42.2283 51.6245 42.2283 50.4365C42.2283 49.2485 42.584 48.2658 43.2953 47.4885C44.0066 46.7112 44.9416 46.3225 46.1003 46.3225C46.995 46.3225 47.743 46.5535 48.3443 47.0155C49.0263 47.5288 49.4186 48.2512 49.5213 49.1825H47.5743C47.523 48.8232 47.3653 48.5262 47.1013 48.2915C46.8373 48.0568 46.5 47.9395 46.0893 47.9395C45.4733 47.9395 45.004 48.1705 44.6813 48.6325C44.366 49.0872 44.2083 49.6885 44.2083 50.4365C44.2083 51.1698 44.3806 51.7675 44.7253 52.2295C45.07 52.6915 45.5283 52.9225 46.1003 52.9225C46.5256 52.9225 46.874 52.8015 47.1453 52.5595C47.424 52.3175 47.5853 52.0022 47.6293 51.6135H49.5763C49.5176 52.4055 49.2023 53.0765 48.6303 53.6265C48.0143 54.2205 47.1746 54.5175 46.1113 54.5175ZM50.2709 54.3415V46.4765H52.2179V52.6915H55.7489V54.3415H50.2709ZM56.5017 54.3415V46.4765H58.4487V54.3415H56.5017Z" fill="url(#paint3_linear)"/>
<defs>
<linearGradient id="paint0_linear" x1="50.5" y1="1.57812" x2="50.5" y2="99.4219" gradientUnits="userSpaceOnUse">
<stop stop-color="#911C81"/>
<stop offset="1" stop-color="#2CD5C4"/>
</linearGradient>
<linearGradient id="paint1_linear" x1="72.5938" y1="55.7599" x2="72.5938" y2="94.6875" gradientUnits="userSpaceOnUse">
<stop stop-color="#911C81"/>
<stop offset="1" stop-color="#2CD5C4"/>
</linearGradient>
<linearGradient id="paint2_linear" x1="28.4062" y1="6.3125" x2="28.4063" y2="45.2401" gradientUnits="userSpaceOnUse">
<stop stop-color="#911C81"/>
<stop offset="1" stop-color="#2CD5C4"/>
</linearGradient>
<linearGradient id="paint3_linear" x1="50.5" y1="44.3415" x2="50.5" y2="57.4797" gradientUnits="userSpaceOnUse">
<stop stop-color="#911C81"/>
<stop offset="1" stop-color="#2CD5C4"/>
</linearGradient>
</defs>
</svg>
