<svg width="126" height="100" viewBox="0 0 126 100" fill="none" xmlns="http://www.w3.org/2000/svg">
<path fill-rule="evenodd" clip-rule="evenodd" d="M48.7372 57.0991H114.646V7.05262C114.646 3.1728 111.492 0 107.634 0H29.4326C25.5752 0 22.4208 3.1728 22.4208 7.05262V23.2661H31.5845V9.72681H105.484V46.8913H48.7372V57.0991ZM3.64859 28.9608H39.4252C41.432 28.9608 43.0738 30.6121 43.0738 32.6306V96.3302C43.0738 98.3487 41.432 100 39.4252 100H3.64859C1.64179 100 0 98.3487 0 96.3302V32.6306C0 30.6121 1.64179 28.9608 3.64859 28.9608ZM6.65163 35.9701H36.4238V79.8522H6.65163V35.9701ZM21.5377 86.1417C24.1183 86.1417 26.2096 88.2451 26.2096 90.8407C26.2096 93.4364 24.1183 95.5398 21.5377 95.5398C18.9571 95.5398 16.8658 93.4364 16.8658 90.8407C16.8658 88.2451 18.9571 86.1417 21.5377 86.1417ZM48.7372 74.0308H125.653C124.272 68.0797 118.937 63.6098 112.614 63.6098H48.7372V74.0308ZM48.7372 87.6519H118.351C122.559 87.6519 126 84.1905 126 79.958V78.6385H48.7372V87.6519Z" fill="white"/>
</svg>
