<svg width="119" height="97" viewBox="0 0 119 97" fill="none" xmlns="http://www.w3.org/2000/svg">
<path d="M64.6668 72.75C66.1548 72.75 67.3611 71.5437 67.3611 70.0557C67.3611 68.5676 66.1548 67.3613 64.6668 67.3613C63.1787 67.3613 61.9724 68.5676 61.9724 70.0557C61.9724 71.5437 63.1787 72.75 64.6668 72.75Z" fill="url(#paint0_linear)"/>
<path d="M18.8612 88.9167C20.3493 88.9167 21.5556 87.7104 21.5556 86.2223C21.5556 84.7343 20.3493 83.528 18.8612 83.528C17.3732 83.528 16.1669 84.7343 16.1669 86.2223C16.1669 87.7104 17.3732 88.9167 18.8612 88.9167Z" fill="url(#paint1_linear)"/>
<path d="M110.472 0H18.8611C14.2805 0 10.7778 3.50272 10.7778 8.08331V35.0278C10.7778 36.6445 11.8557 37.7222 13.4721 37.7222C15.0886 37.7222 16.1665 36.6443 16.1665 35.0278V8.08354C16.1665 6.46684 17.2444 5.38918 18.8609 5.38918H110.472C112.089 5.38918 113.166 6.46707 113.166 8.08354V72.7503C113.166 74.367 112.088 75.4446 110.472 75.4446H45.8054C44.1887 75.4446 43.111 76.5225 43.111 78.139C43.111 79.7555 44.1889 80.8333 45.8054 80.8333H51.1943V88.9167C51.1943 90.5334 50.1164 91.611 48.5 91.611H45.8056C44.1889 91.611 43.1112 92.6889 43.1112 94.3054C43.1112 95.9218 44.1891 96.9997 45.8056 96.9997H83.5278C85.1445 96.9997 86.2222 95.9218 86.2222 94.3054C86.2222 92.6889 85.1443 91.611 83.5278 91.611H80.8334C79.2167 91.611 78.1391 90.5331 78.1391 88.9167V80.8333H110.472C115.053 80.8333 118.556 77.3306 118.556 72.75V8.08354C118.555 3.50295 115.053 0 110.472 0ZM56.0442 91.6113C56.3137 90.8029 56.583 89.9945 56.583 88.9169V80.8336H72.7497V88.9169C72.7497 89.9948 73.0192 90.8029 73.2885 91.6113H56.0442Z" fill="url(#paint2_linear)"/>
<path d="M105.083 59.2778H45.8054C44.1887 59.2778 43.1111 60.3557 43.1111 61.9721C43.1111 63.5886 44.189 64.6665 45.8054 64.6665H105.083C106.7 64.6665 107.778 63.5886 107.778 61.9721C107.778 60.3557 106.7 59.2778 105.083 59.2778Z" fill="url(#paint3_linear)"/>
<path d="M29.6389 43.1111H8.08331C3.50271 43.1111 0 46.6141 0 51.1945V88.9167C0 93.4973 3.50271 97 8.08331 97H29.6389C34.2195 97 37.7222 93.4973 37.7222 88.9167V51.1945C37.7222 46.6141 34.2195 43.1111 29.6389 43.1111ZM32.3332 88.9167C32.3332 90.5334 31.2554 91.611 29.6389 91.611H8.08331C6.4666 91.611 5.38895 90.5331 5.38895 88.9167V51.1945C5.38895 49.5777 6.46683 48.5001 8.08331 48.5001H29.6389C31.2556 48.5001 32.3332 49.578 32.3332 51.1945V88.9167Z" fill="url(#paint4_linear)"/>
<defs>
<linearGradient id="paint0_linear" x1="64.6668" y1="67.3613" x2="64.6668" y2="72.75" gradientUnits="userSpaceOnUse">
<stop stop-color="#911C81"/>
<stop offset="1" stop-color="#2CD5C4"/>
</linearGradient>
<linearGradient id="paint1_linear" x1="18.8612" y1="83.528" x2="18.8612" y2="88.9167" gradientUnits="userSpaceOnUse">
<stop stop-color="#911C81"/>
<stop offset="1" stop-color="#2CD5C4"/>
</linearGradient>
<linearGradient id="paint2_linear" x1="64.6667" y1="0" x2="64.6667" y2="96.9997" gradientUnits="userSpaceOnUse">
<stop stop-color="#911C81"/>
<stop offset="1" stop-color="#2CD5C4"/>
</linearGradient>
<linearGradient id="paint3_linear" x1="75.4443" y1="59.2778" x2="75.4443" y2="64.6665" gradientUnits="userSpaceOnUse">
<stop stop-color="#911C81"/>
<stop offset="1" stop-color="#2CD5C4"/>
</linearGradient>
<linearGradient id="paint4_linear" x1="18.8611" y1="43.1111" x2="18.8611" y2="97" gradientUnits="userSpaceOnUse">
<stop stop-color="#911C81"/>
<stop offset="1" stop-color="#2CD5C4"/>
</linearGradient>
</defs>
</svg>
