<svg width="102" height="102" viewBox="0 0 102 102" fill="none" xmlns="http://www.w3.org/2000/svg">
<g clip-path="url(#clip0)">
<path d="M92.8632 38.6293C93.3394 36.9268 93.58 35.1693 93.58 33.3841C93.58 22.6609 84.8546 13.9369 74.1297 13.9369C73.3585 13.9369 72.5939 13.9812 71.8423 14.069C70.3035 10.2408 67.7567 6.9356 64.4044 4.43839C60.5063 1.53478 55.8701 0 50.997 0C46.1241 0 41.4881 1.53478 37.59 4.43839C34.2377 6.9356 31.6909 10.2404 30.1522 14.0684C29.4021 13.9812 28.6373 13.9369 27.8645 13.9369C17.143 13.9369 8.41998 22.6609 8.41998 33.3841C8.41998 35.1693 8.66064 36.9268 9.13677 38.6293C4.44337 41.56 1.59375 46.6459 1.59375 52.279C1.59375 61.162 8.81961 68.3888 17.7014 68.3888H20.7514V74.8672C20.7514 77.1927 22.643 79.0845 24.9681 79.0845H25.7552C26.2905 80.9324 27.0286 82.713 27.9611 84.4048L27.4089 84.9572C26.611 85.7499 26.1708 86.8082 26.1688 87.9367C26.167 89.0681 26.6057 90.1311 27.4033 90.9288L31.8186 95.3505C33.4668 96.9883 36.1421 96.9859 37.7798 95.3481L38.3426 94.7873C40.0328 95.7182 41.8114 96.4551 43.658 96.9899V97.7774C43.658 100.106 45.5522 102 47.8802 102H54.1194C56.4476 102 58.3416 100.106 58.3416 97.7774V96.9893C60.1844 96.4545 61.962 95.718 63.6538 94.7877L64.2118 95.3461C65.8573 96.9916 68.5344 96.9914 70.18 95.3459L74.6001 90.9252C76.2372 89.2771 76.2352 86.602 74.5955 84.9618L74.0371 84.4032C74.967 82.7116 75.7049 80.9316 76.2422 79.0845H77.0261C79.3544 79.0845 81.2484 77.1927 81.2484 74.8672V68.3888H84.2984C93.1802 68.3888 100.406 61.162 100.406 52.279C100.406 46.6459 97.5566 41.56 92.8632 38.6293ZM77.2642 74.8672C77.2642 74.9913 77.1528 75.1001 77.0263 75.1001H74.7001C73.7689 75.1001 72.9619 75.745 72.7569 76.6534C72.1961 79.1359 71.2189 81.4928 69.8531 83.6585C69.3566 84.4456 69.4712 85.4718 70.1294 86.1298L71.7779 87.7788C71.8652 87.866 71.863 88.0272 71.7781 88.1127L67.3628 92.5285C67.3094 92.5819 67.2427 92.5931 67.1963 92.5931C67.1497 92.5931 67.0829 92.5817 67.0297 92.5287L65.3812 90.8798C64.7228 90.2216 63.6964 90.1068 62.9093 90.6035C60.7412 91.9713 58.3876 92.9463 55.9139 93.5011C55.0043 93.7051 54.3576 94.5128 54.3576 95.4451V97.7774C54.3576 97.9021 54.2443 98.0156 54.1198 98.0156H47.8806C47.7537 98.0156 47.6428 97.9043 47.6428 97.7774V95.4451C47.6428 94.5124 46.9959 93.7047 46.0859 93.5009C43.6074 92.9461 41.2546 91.9715 39.0931 90.6047C38.3066 90.1072 37.2806 90.2204 36.6218 90.8774L34.9653 92.5285C34.8766 92.6168 34.7186 92.6148 34.633 92.5295L30.2225 88.1127C30.1655 88.0557 30.1535 87.9891 30.1535 87.9431C30.1537 87.8794 30.1753 87.8254 30.2223 87.7788L31.871 86.1298C32.53 85.4708 32.644 84.4428 32.1455 83.6555C30.7757 81.4922 29.7997 79.1375 29.2445 76.657C29.0409 75.7469 28.2331 75.1001 27.3003 75.1001H24.9681C24.8422 75.1001 24.7358 74.9935 24.7358 74.8672V68.3888H34.016C33.7999 69.4879 33.6869 70.6091 33.6869 71.7444C33.6869 81.2906 41.4522 89.057 50.9972 89.057C60.5454 89.057 68.3133 81.2906 68.3133 71.7444C68.3133 70.6119 68.1994 69.4909 67.981 68.3888H77.2644V74.8672H77.2642ZM84.2986 64.4044H59.9407C58.8407 64.4044 57.9486 65.2965 57.9486 66.3966C57.9486 67.4967 58.8407 68.3888 59.9407 68.3888H63.896C64.1819 69.4833 64.3289 70.6067 64.3289 71.7444C64.3289 79.0936 58.3482 85.0726 50.9972 85.0726C43.6492 85.0726 37.6713 79.0934 37.6713 71.7444C37.6713 70.6017 37.8169 69.4783 38.0998 68.3888H42.0537C43.1538 68.3888 44.0459 67.4967 44.0459 66.3966C44.0459 65.2965 43.1538 64.4044 42.0537 64.4044H17.7014C11.0166 64.4044 5.57812 58.965 5.57812 52.279C5.57812 47.5944 8.19666 43.4126 12.4119 41.3652C13.3387 40.9149 13.7694 39.8322 13.4048 38.8684C12.741 37.1137 12.4046 35.2687 12.4046 33.3843C12.4046 24.8581 19.3398 17.9215 27.8647 17.9215C28.9632 17.9215 30.0344 18.0321 31.0488 18.2496C32.0531 18.4654 33.0572 17.8815 33.3668 16.9017C35.8068 9.17562 42.892 3.98438 50.997 3.98438C59.1024 3.98438 66.1874 9.17542 68.6275 16.9017C68.9367 17.8807 69.9391 18.465 70.9434 18.25C71.9644 18.0319 73.0364 17.9215 74.1295 17.9215C82.6575 17.9215 89.5954 24.8581 89.5954 33.3843C89.5954 35.2687 89.259 37.1139 88.5952 38.8684C88.2306 39.8322 88.6613 40.9149 89.5881 41.3652C93.8033 43.4126 96.4219 47.5944 96.4219 52.279C96.4219 58.965 90.9834 64.4044 84.2986 64.4044Z" fill="url(#paint0_linear)"/>
<path d="M72.04 28.2642C70.94 28.2642 70.0479 29.1563 70.0479 30.2563V49.9081C70.0479 51.0082 70.94 51.9003 72.04 51.9003C73.1401 51.9003 74.0322 51.0082 74.0322 49.9081V30.2563C74.0322 29.1563 73.1403 28.2642 72.04 28.2642Z" fill="url(#paint1_linear)"/>
<path d="M56.1745 28.2642H50.6016C49.5192 28.2642 48.6094 29.1708 48.6094 30.2563V50.2695C48.6094 51.3695 49.5015 52.2617 50.6016 52.2617C51.7016 52.2617 52.5938 51.3695 52.5938 50.2695V43.5582C53.8329 43.5506 55.3557 43.5426 56.1745 43.5426C60.4485 43.5426 63.9257 40.1157 63.9257 35.9034C63.9257 31.6911 60.4485 28.2642 56.1745 28.2642ZM56.1745 39.5581C55.3593 39.5581 53.8584 39.5658 52.6232 39.5734C52.6173 38.3002 52.6109 36.7377 52.6109 35.9032C52.6109 35.196 52.6059 33.5745 52.6011 32.2483H56.1747C58.2165 32.2483 59.9415 33.922 59.9415 35.9032C59.9415 37.8844 58.2163 39.5581 56.1745 39.5581Z" fill="url(#paint2_linear)"/>
<path d="M34.9111 29.8352C34.906 29.8215 34.9006 29.8075 34.895 29.794C34.5201 28.8638 33.6308 28.2626 32.6295 28.2626C31.6282 28.2626 30.7389 28.8638 30.364 29.794C30.3592 29.8059 30.3544 29.8177 30.35 29.8296L22.8349 49.5605C22.4432 50.5886 22.9592 51.7395 23.9874 52.1312C25.0157 52.5228 26.1664 52.0069 26.5581 50.9787L27.9407 47.3487H37.2629L38.631 50.9729C38.932 51.7706 39.69 52.2623 40.495 52.2623C40.7287 52.2623 40.9664 52.2208 41.1981 52.1334C42.2274 51.7449 42.7468 50.5954 42.3583 49.566L34.9111 29.8352ZM29.4583 43.3644L32.6229 35.0557L35.759 43.3644H29.4583Z" fill="url(#paint3_linear)"/>
<path d="M50.9968 64.4044C49.8967 64.4044 49.0046 65.2965 49.0046 66.3966C49.0046 67.4967 49.8967 68.3888 50.9968 68.3888H51.0084C52.1085 68.3888 52.995 67.4967 52.995 66.3966C52.995 65.2965 52.0971 64.4044 50.9968 64.4044Z" fill="url(#paint4_linear)"/>
</g>
<defs>
<linearGradient id="paint0_linear" x1="50.9999" y1="0" x2="50.9999" y2="102" gradientUnits="userSpaceOnUse">
<stop stop-color="#911C81"/>
<stop offset="1" stop-color="#2CD5C4"/>
</linearGradient>
<linearGradient id="paint1_linear" x1="72.04" y1="28.2642" x2="72.04" y2="51.9003" gradientUnits="userSpaceOnUse">
<stop stop-color="#911C81"/>
<stop offset="1" stop-color="#2CD5C4"/>
</linearGradient>
<linearGradient id="paint2_linear" x1="56.2675" y1="28.2642" x2="56.2675" y2="52.2617" gradientUnits="userSpaceOnUse">
<stop stop-color="#911C81"/>
<stop offset="1" stop-color="#2CD5C4"/>
</linearGradient>
<linearGradient id="paint3_linear" x1="32.5955" y1="28.2626" x2="32.5955" y2="52.2623" gradientUnits="userSpaceOnUse">
<stop stop-color="#911C81"/>
<stop offset="1" stop-color="#2CD5C4"/>
</linearGradient>
<linearGradient id="paint4_linear" x1="50.9998" y1="64.4044" x2="50.9998" y2="68.3888" gradientUnits="userSpaceOnUse">
<stop stop-color="#911C81"/>
<stop offset="1" stop-color="#2CD5C4"/>
</linearGradient>
<clipPath id="clip0">
<rect width="102" height="102" fill="white"/>
</clipPath>
</defs>
</svg>
