<?xml version="1.0" encoding="UTF-8"?>
<svg width="2596px" height="2412px" viewBox="0 0 649 603" version="1.1" xmlns="http://www.w3.org/2000/svg" xmlns:xlink="http://www.w3.org/1999/xlink">
  <defs>
    <linearGradient x1="10256.0041%" y1="23166.2914%" x2="4709.62052%" y2="27177.6701%" id="linearGradient-1">
      <stop stop-color="#911C81" stop-opacity="0.830282998" offset="0%"></stop>
      <stop stop-color="#73CAFF" stop-opacity="0" offset="100%"></stop>
    </linearGradient>
    <linearGradient x1="29081.125%" y1="20936.79%" x2="23534.2408%" y2="24947.8232%" id="linearGradient-2">
      <stop stop-color="#3FFFAC" offset="0%"></stop>
      <stop stop-color="#73CAFF" stop-opacity="0" offset="100%"></stop>
    </linearGradient>
    <linearGradient x1="18602.0937%" y1="17603.9475%" x2="13056.1998%" y2="21613.982%" id="linearGradient-3">
      <stop stop-color="#3FFFAC" offset="0%"></stop>
      <stop stop-color="#73CAFF" stop-opacity="0" offset="100%"></stop>
    </linearGradient>
    <linearGradient x1="104.256715%" y1="19.5637098%" x2="22.8425548%" y2="66.6499938%" id="linearGradient-4">
      <stop stop-color="#3FFFAC" offset="0%"></stop>
      <stop stop-color="#73CAFF" stop-opacity="0" offset="100%"></stop>
    </linearGradient>
  </defs>
  <g id="container">
    <g id="cube7" transform="translate(297.768662, 443.663000)" fill="#911C81" fill-rule="nonzero">
      <path d="M0.0663384048,45.657 C1.6533384,44.384 3.3413384,43.244 5.1143384,42.247 C8.4573384,40.062 13.4393384,37.046 19.8623384,33.112 C32.6883384,25.265 51.2393384,14.075 74.0283384,0.328 L74.5743384,0 L75.2083384,0.262 L137.131338,26.205 L137.874338,26.511 L138.048338,27.298 L158.609338,112.273 L158.915338,113.497 L157.822338,114.131 L83.2053384,158.17 L82.5063384,158.563 L81.7633384,158.257 L20.0153384,131.768 L19.3823384,131.506 L19.2513384,130.872 C13.1113384,104.645 8.1953384,83.423 4.8733384,68.649 C3.2133384,61.262 1.9463384,55.535 1.1373384,51.58 C0.606338405,49.604 0.248338405,47.585 0.0663384048,45.547 C0.829338405,47.447 1.4353384,49.406 1.8803384,51.405 C2.9293384,55.273 4.4153384,60.956 6.2503384,68.299 C10.0083384,82.986 15.3183384,104.186 21.7423384,130.26 L20.9773384,129.364 L82.9653384,155.328 L81.5453384,155.328 L156.031338,111.114 L155.244338,112.972 C148.099338,83.183 141.304338,54.399 134.968338,28.172 L135.885338,29.265 L74.1813384,2.798 L75.3613384,2.798 C52.3973384,16.195 33.6503384,27.058 20.6053384,34.51 C14.0503384,38.248 8.9813384,41.067 5.4853384,43.034 C3.7633384,44.073 1.9493384,44.951 0.0663384048,45.657 Z" id="Path"></path>
      <path d="M82.3093384,156.990077 C81.8503384,157.099 79.4033384,148.772 75.7543384,135.265 C72.1053384,121.758 67.4733384,102.984 62.4703384,82.243 C61.6613384,78.855 60.8533384,75.533 60.0883384,72.364 L61.0713384,73.523 C43.5913384,66.07 28.2963384,59.317 17.3723384,54.333 C6.4473384,49.35 -0.107661595,46.159 0.00133840483,45.744 C0.110338405,45.329 7.0583384,47.93 18.2463384,52.301 C29.4333384,56.672 45.1653384,63.141 62.6443384,70.419 L63.4313384,70.747 L63.6283384,71.578 C64.3923384,74.725 65.2013384,78.134 66.0093384,81.434 C71.0133384,102.175 75.3613384,121.015 78.3553384,134.697 C81.3483384,148.378 82.8563384,156.88 82.3093384,156.990077 Z" id="Path"></path>
      <path d="M61.9023384,71.883 C61.4213384,71.075 77.7433384,60.54 98.3253384,48.345 C118.908338,36.149 136.038338,26.948 136.519338,27.757 C136.999338,28.565 120.678338,39.1 100.073338,51.295 C79.4693384,63.491 62.3823384,72.779 61.9023384,71.883 Z" id="Path"></path>
    </g>
    <g id="cube6" transform="translate(72.000000, 351.000000)">
      <polygon id="Path" fill="#4EC5FF" fill-rule="nonzero" opacity="0.832147507" points="139.856 26.55 161.859 112.464 85.974 157.946 63.95 72.031"></polygon>
      <polygon id="Path" fill="#173B67" fill-rule="nonzero" opacity="0.827520461" points="85.974 157.946 22.2821 132.025 0.2793 46.111 63.95 72.031"></polygon>
      <polygon id="Path" fill="#2679AB" fill-rule="nonzero" opacity="0.828171503" points="63.95 72.031 0.2793 46.111 76.186 0.629 139.856 26.55"></polygon>
      <polygon id="Path" fill="url(#linearGradient-1)" fill-rule="nonzero" opacity="0.87" points="139.856 26.55 76.186 0.629 0.2793 46.11 22.2821 132.025 86.018 157.946 161.859 112.464"></polygon>
    </g>
    <g id="cube5" transform="translate(486.000000, 337.000000)" opacity="0.87">
      <g fill-rule="nonzero" id="Path">
          <polygon fill="#4EC5FF" points="140.086 26.147 162.089 112.061 86.182 157.521 64.179 71.607"></polygon>
          <polygon fill="#1B5AA6" points="86.182 157.521 22.512 131.6 0.509 45.686 64.179 71.607"></polygon>
          <polygon fill="#349DDC" points="64.179 71.606 0.509 45.686 76.415 0.226 140.086 26.147"></polygon>
      </g>
      <polygon id="Path" fill="url(#linearGradient-2)" fill-rule="nonzero" points="140.086 26.147 76.415 0.226 0.509 45.686 22.512 131.6 86.248 157.521 162.088 112.061"></polygon>
    </g>
    <g id="cube4" transform="translate(265.000000, 240.000000)" opacity="0.87">
      <g id="Group" stroke-width="1" fill-rule="evenodd">
          <polygon id="Path" fill="#4EC5FF" fill-rule="nonzero" points="139.9 26.173 161.903 112.088 85.996 157.548 63.993 71.633"></polygon>
          <polygon id="Path" fill="#1B5AA6" fill-rule="nonzero" points="85.996 157.548 22.326 131.627 0.323 45.712 63.993 71.633"></polygon>
          <polygon id="Path" fill="#349DDC" fill-rule="nonzero" points="63.993 71.633 0.323 45.712 76.229 0.252 139.9 26.173"></polygon>
      </g>
      <polygon id="Path" fill="url(#linearGradient-3)" fill-rule="nonzero" points="139.9 26.173 76.229 0.252 0.323 45.712 22.326 131.627 86.062 157.548 161.902 112.088"></polygon>
    </g>
    <g id="cube3" transform="translate(195.000000, 0.000000)" opacity="0.87">
      <g fill-rule="nonzero" id="Path">
        <polygon fill="#4EC5FF" points="140.111 26.7663 162.114 112.681 86.208 158.141 64.205 72.2261"></polygon>
        <polygon fill="#1B5AA6" points="86.208 158.141 22.537 132.22 0.534 46.3052 64.205 72.226"></polygon>
        <polygon fill="#349DDC" points="64.205 72.226 0.534 46.3051 76.441 0.845337 140.111 26.7662"></polygon>
      </g>
      <polygon id="Path" fill="url(#linearGradient-4)" fill-rule="nonzero" points="140.111 26.7662 76.441 0.845337 0.534 46.3051 22.537 132.22 86.273 158.141 162.114 112.681"></polygon>
    </g>
    <g id="line8" transform="translate(528.980112, 246.239693)" fill-rule="nonzero">
      <path d="M29.938888,124.075307 C29.479888,124.206307 27.404888,117.344307 24.410888,106.176307 C21.417888,95.0073069 17.484888,79.5553069 13.354888,62.4643069 C9.22588804,45.3733069 5.68588804,29.6813069 3.30388804,18.4473069 C0.922888044,7.21330687 -0.367111956,0.11030687 0.091888044,0.00130687037 C0.550888044,-0.10869313 2.64888804,6.73230687 5.64188804,17.9003069 C8.63588804,29.0693069 12.568888,44.5213069 16.675888,61.6123069 C20.783888,78.7033069 24.345888,94.3953069 26.748888,105.629307 C29.152888,116.863307 30.397888,123.966307 29.938888,124.075307 Z" id="Path" fill="#911C81"></path>
      <path d="M33.281888,124.076307 C33.286888,124.738307 33.093888,125.387307 32.729888,125.939307 C32.364888,126.492307 31.843888,126.924307 31.233888,127.181307 C30.622888,127.437307 29.950888,127.506307 29.300888,127.380307 C28.650888,127.253307 28.052888,126.936307 27.582888,126.470307 C27.113888,126.003307 26.792888,125.407307 26.661888,124.758307 C26.531888,124.109307 26.595888,123.435307 26.848888,122.823307 C27.100888,122.211307 27.529888,121.687307 28.079888,121.319307 C28.629888,120.950307 29.276888,120.754307 29.938888,120.754307 C30.376888,120.751307 30.811888,120.834307 31.216888,121.000307 C31.622888,121.166307 31.990888,121.410307 32.301888,121.719307 C32.612888,122.028307 32.858888,122.395307 33.026888,122.799307 C33.195888,123.204307 33.281888,123.638307 33.281888,124.076307 Z" id="Path" fill="#8786EB"></path>
    </g>
    <g id="line7" transform="translate(106.603591, 258.893785)" fill-rule="nonzero">
      <path d="M31.5964089,131.071429 C31.1384089,131.179215 28.9534089,123.945215 25.8064089,112.143215 C22.6604089,100.341215 18.5304089,83.9922146 14.1824089,65.9402146 C9.83440887,47.8872146 6.07640887,31.4082146 3.51940887,19.4752146 C0.963408867,7.54121465 -0.369591133,0.110214649 0.0894088665,-2.84217094e-14 C0.548408867,-0.107785351 2.73340887,7.12621465 5.87940887,18.9062146 C9.02540887,30.6862146 13.1554089,47.0352146 17.5034089,65.1312146 C21.8514089,83.2282146 25.6104089,99.6632146 28.1664089,111.596215 C30.7224089,123.529215 32.0554089,130.960215 31.5964089,131.071429 Z" id="Path" fill="#911C81"></path>
      <path d="M34.9394089,131.070215 C34.9354089,131.730215 34.7354089,132.374215 34.3654089,132.921215 C33.9954089,133.469215 33.4724089,133.894215 32.8614089,134.143215 C32.2494089,134.393215 31.5784089,134.456215 30.9314089,134.325215 C30.2844089,134.193215 29.6904089,133.873215 29.2254089,133.405215 C28.7604089,132.936215 28.4434089,132.340215 28.3164089,131.692215 C28.1894089,131.044215 28.2564089,130.373215 28.5104089,129.763215 C28.7644089,129.153215 29.1924089,128.632215 29.7414089,128.266215 C30.2914089,127.899215 30.9364089,127.704215 31.5964089,127.704215 C32.0374089,127.704215 32.4744089,127.791215 32.8814089,127.961215 C33.2884089,128.130215 33.6574089,128.378215 33.9684089,128.691215 C34.2794089,129.004215 34.5254089,129.375215 34.6914089,129.783215 C34.8584089,130.192215 34.9424089,130.629215 34.9394089,131.070215 Z" id="Path" fill="#8786EB"></path>
    </g>
    <g id="line6" transform="translate(186.663412, 438.198922)" fill-rule="nonzero">
      <path d="M113.968588,55.6880776 C113.771588,56.1040776 107.413588,53.5030776 96.991588,49.1320776 C86.568588,44.7600776 72.584588,38.2040776 57.071588,31.0790776 C41.558588,23.9540776 27.574588,17.1350776 17.545588,12.1080776 C7.51658804,7.08107762 1.39858804,3.78107762 1.59458804,3.36607762 C1.79158804,2.95107762 8.25858804,5.55107762 18.550588,9.92307762 C28.841588,14.2940776 42.978588,20.8500776 58.491588,27.9750776 C74.005588,35.1000776 87.989588,41.9190776 98.018588,46.9460776 C108.047588,51.9730776 114.165588,55.2510776 113.968588,55.6880776 Z" id="Path" fill="#911C81"></path>
      <path d="M6.68558804,3.32207762 C6.69058804,3.98307762 6.49858804,4.63107762 6.13458804,5.18407762 C5.77058804,5.73607762 5.25158804,6.16807762 4.64258804,6.42507762 C4.03358804,6.68207762 3.36158804,6.75307762 2.71258804,6.62807762 C2.06258804,6.50307762 1.46558804,6.18807762 0.994588042,5.72407762 C0.523588042,5.25907762 0.201588042,4.66507762 0.0685880418,4.01807762 C-0.0644119582,3.37007762 -0.00341195821,2.69707762 0.246588042,2.08407762 C0.495588042,1.47207762 0.920588042,0.947077617 1.46758804,0.576077617 C2.01458804,0.205077617 2.65958804,0.00407761699 3.32058804,7.76169859e-05 C3.75958804,-0.00292238301 4.19558804,0.081077617 4.60158804,0.246077617 C5.00858804,0.412077617 5.37858804,0.655077617 5.69158804,0.964077617 C6.00358804,1.27207762 6.25258804,1.64007762 6.42258804,2.04407762 C6.59358804,2.44907762 6.68258804,2.88307762 6.68558804,3.32207762 Z" id="Path" fill="#8786EB"></path>
    </g>
    <g id="line5" transform="translate(302.581264, 145.375824)" fill-rule="nonzero">
      <path d="M32.5297356,135.331176 C32.0707356,135.331176 29.8427356,127.966176 26.5867356,115.792176 C23.3307356,103.619176 19.0927356,86.7461762 14.5917356,68.0591762 C10.0897356,49.3731762 6.22273561,32.4131762 3.66673561,20.1081762 C1.10973561,7.80317617 -0.376264392,0.110176168 0.0827356084,-1.42108547e-14 C0.541735608,-0.107823832 2.77073561,7.36617617 6.02573561,19.5401762 C9.28173561,31.7131762 13.5207356,48.5861762 17.9997356,67.2731762 C22.4787356,85.9591762 26.3897356,102.919176 29.0337356,115.224176 C31.6777356,127.529176 32.9887356,135.222176 32.5297356,135.331176 Z" id="Path" fill="#911C81"></path>
      <path d="M35.9817356,135.331176 C35.9817356,135.993176 35.7857356,136.639176 35.4187356,137.189176 C35.0517356,137.739176 34.5297356,138.168176 33.9187356,138.421176 C33.3077356,138.674176 32.6357356,138.740176 31.9867356,138.611176 C31.3387356,138.482176 30.7427356,138.163176 30.2757356,137.696176 C29.8077356,137.228176 29.4897356,136.632176 29.3607356,135.984176 C29.2317356,135.335176 29.2977356,134.663176 29.5507356,134.052176 C29.8037356,133.441176 30.2317356,132.918176 30.7817356,132.551176 C31.3317356,132.183176 31.9777356,131.987176 32.6387356,131.987176 C33.5237356,131.993176 34.3707356,132.347176 34.9967356,132.973176 C35.6227356,133.599176 35.9767356,134.446176 35.9817356,135.331176 Z" id="Path" fill="#8786EB"></path>
    </g>
    <g id="line4" transform="translate(217.944888, 340.613905)" fill-rule="nonzero">
      <path d="M90.2251117,3.32209475 C90.4441117,3.73709475 85.6151117,7.03709475 77.6181117,12.0640947 C69.6211117,17.0910947 58.4121117,23.7570947 45.9571117,30.9690947 C33.5031117,38.1810947 22.1411117,44.5410947 13.8161117,49.0000947 C5.49211175,53.4590947 0.226111748,55.9940947 0.00711174795,55.5570947 C-0.210888252,55.1200947 4.59611175,51.8630947 12.6151117,46.8140947 C20.6331117,41.7660947 31.7991117,35.1220947 44.2531117,27.9090947 C56.7081117,20.6970947 68.0911117,14.3370947 76.3941117,9.87809475 C84.6971117,5.42009475 90.0291117,2.92809475 90.2251117,3.32209475 Z" id="Path" fill="#911C81"></path>
      <path d="M93.5471727,3.32209475 C93.5511117,3.98509475 93.3581117,4.63409475 92.9921117,5.18809475 C92.6271117,5.74109475 92.1051117,6.17309475 91.4931117,6.42909475 C90.8811117,6.68409475 90.2071117,6.75309475 89.5571117,6.62409475 C88.9061117,6.49609475 88.3091117,6.17709475 87.8401117,5.70809475 C87.3711117,5.23909475 87.0521117,4.64109475 86.9241117,3.99009475 C86.7961117,3.34009475 86.8641117,2.66609475 87.1191117,2.05409475 C87.3751117,1.44209475 87.8071117,0.920094747 88.3601117,0.554094747 C88.9131117,0.188094747 89.5621117,-0.00490525265 90.2251117,9.47473527e-05 C91.1061117,9.47473527e-05 91.9511117,0.350094747 92.5741117,0.973094747 C93.1971117,1.59609475 93.5471727,2.44109475 93.5471727,3.32209475 Z" id="Path" fill="#8786EB"></path>
    </g>
    <g id="line3" transform="translate(143.219654, 104.397000)" fill-rule="nonzero">
      <path d="M101.782346,2.23 C102.023346,2.645 96.5383458,6.295 87.4713458,11.912 C78.4033458,17.529 65.7953458,25.025 51.7463458,33.156 C37.6973458,41.286 24.8713458,48.455 15.5193458,53.569 C6.16734576,58.683 0.22434576,61.546 0.00634576025,61.153 C-0.21265424,60.759 5.25034576,57.066 14.2953458,51.471 C23.3413458,45.876 35.9923458,38.357 50.0423458,30.205 C64.0913458,22.053 76.9173458,14.906 86.2693458,9.814 C95.6213458,4.721 101.542346,1.815 101.782346,2.23 Z" id="Path" fill="#911C81"></path>
      <path d="M105.125346,3.322 C105.130346,3.985 104.937346,4.633 104.573346,5.186 C104.208346,5.739 103.687346,6.171 103.077346,6.427 C102.466346,6.684 101.794346,6.753 101.144346,6.627 C100.494346,6.5 99.8963458,6.183 99.4263458,5.717 C98.9573458,5.25 98.6363458,4.654 98.5053458,4.005 C98.3753458,3.355 98.4393458,2.682 98.6923458,2.07 C98.9443458,1.457 99.3733458,0.934 99.9233458,0.565 C100.473346,0.197 101.120346,0 101.782346,0 C102.665346,0 103.512346,0.35 104.139346,0.972 C104.765346,1.594 105.120346,2.439 105.125346,3.322 Z" id="Path" fill="#8786EB"></path>
    </g>
    <g id="line2" transform="translate(439.654706, 443.116905)" fill-rule="nonzero">
      <path d="M93.7222942,3.34409475 C93.9402942,3.75909475 88.9152942,7.14709475 80.6122942,12.3260948 C72.3092942,17.5060948 60.6632942,24.4560948 47.7282942,31.9960948 C34.7932942,39.5370948 22.9722942,46.0930948 14.3412942,50.7490948 C5.71129422,55.4040948 0.248294224,58.0480948 0.00829422399,57.6330948 C-0.232705776,57.2180948 4.79329422,53.8300948 13.1182942,48.6500948 C21.4422942,43.4710948 33.0672942,36.5210948 46.0242942,28.9800948 C58.9812942,21.4400948 70.7792942,14.8840948 79.4102942,10.2500948 C88.0412942,5.61709475 93.4812942,2.92809475 93.7222942,3.34409475 Z" id="Path" fill="#911C81"></path>
      <path d="M97.0432942,3.34309475 C97.0432942,4.00609475 96.8462942,4.65309475 96.4782942,5.20309475 C96.1102942,5.75409475 95.5862942,6.18209475 94.9742942,6.43509475 C94.3622942,6.68710166 93.6892942,6.75209475 93.0402942,6.62109475 C92.3912942,6.49109475 91.7952942,6.17009475 91.3282942,5.70009475 C90.8622942,5.23009475 90.5452942,4.63209475 90.4192942,3.98209475 C90.2922942,3.33209475 90.3612942,2.65909475 90.6182942,2.04909475 C90.8742942,1.43809475 91.3062942,0.917094751 91.8592942,0.552094751 C92.4112942,0.188094751 93.0602942,-0.00490524861 93.7222942,9.47513886e-05 C94.6052942,0.00509475139 95.4492942,0.360094751 96.0722942,0.987094751 C96.6942942,1.61309475 97.0432942,2.46009475 97.0432942,3.34309475 Z" id="Path" fill="#8786EB"></path>
    </g>
    <g id="line1" transform="translate(374.594007, 329.160939)" fill-rule="nonzero">
      <path d="M116.546993,50.7490612 C116.371993,51.1860612 109.882993,48.9130612 99.5699929,44.9140612 C89.2569929,40.9140612 75.0539929,35.1660612 59.4749929,28.6310612 C43.8959929,22.0960612 29.8469929,15.9770612 19.7519929,11.3870612 C9.65799289,6.79706125 3.51799289,3.78106125 3.69299289,3.34406125 C3.86699289,2.90706125 10.2479929,5.15806125 20.6919929,9.18006125 C31.1359929,13.2010612 45.2069929,18.9270612 60.7859929,25.4620612 C76.3649929,31.9970612 90.3929929,38.1160612 100.486993,42.6840612 C110.581993,47.2520612 116.743993,50.3120612 116.546993,50.7490612 Z" id="Path" fill="#911C81"></path>
      <path d="M6.68599289,3.34406125 C6.68599289,4.00606125 6.48899289,4.65406125 6.12099289,5.20406125 C5.75299289,5.75506125 5.22899289,6.18306125 4.61699289,6.43606125 C4.00499289,6.68806816 3.33199289,6.75306125 2.68299289,6.62206125 C2.03399289,6.49106125 1.43799289,6.17106125 0.970992893,5.70106125 C0.504992893,5.23106125 0.187992893,4.63306125 0.0619928929,3.98306125 C-0.0650071071,3.33306125 0.00399289295,2.66006125 0.260992893,2.04906125 C0.516992893,1.43906125 0.948992893,0.918061249 1.50199289,0.553061249 C2.05399289,0.188061249 2.70299289,-0.00393875105 3.36499289,2.84217094e-14 C4.24799289,0.00606124895 5.09199289,0.361061249 5.71499289,0.987061249 C6.33699289,1.61406125 6.68599289,2.46106125 6.68599289,3.34406125 Z" id="Path" fill="#8786EB"></path>
    </g>
    <g id="cube2" transform="translate(0.852051, 114.407000)" fill="#911C81" fill-rule="nonzero">
      <path d="M0,45.679 C1.588299,44.402 3.276119,43.255 5.047319,42.247 C8.390349,40.062 13.372149,37.046 19.795949,33.112 C32.621849,25.287 51.172349,14.075 73.961749,0.328 L74.508049,0 L75.141649,0.263 L137.063949,26.293 L137.806949,26.621 L137.981949,27.407 C144.317949,53.634 151.266949,82.309 158.542949,112.382 L158.826949,113.606 L157.755949,114.24 L83.138749,158.279 L82.439549,158.694 L81.696649,158.367 L19.927049,131.899 L19.315249,131.637 L19.162349,130.981 C13.044349,104.755 8.128149,83.533 4.806969,68.758 C3.146379,61.371 1.879089,55.645 1.048789,51.689 C0.533209,49.718 0.182399,47.708 0,45.679 C0.761649,47.549 1.368209,49.479 1.813539,51.449 C2.862329,55.317 4.348119,61.021 6.183509,68.343 C9.941649,83.03 15.251249,104.23 21.675049,130.304 L20.888449,129.473 L82.942049,155.438 L81.521849,155.438 L156.007949,111.224 L155.220949,113.082 C148.032949,83.008 141.149949,54.246 134.900949,28.063 L135.818949,29.156 L74.114749,2.754 L75.294649,2.754 C52.330449,16.064 33.583249,26.927 20.538849,34.379 C13.983949,38.117 8.914739,40.936 5.418769,42.903 C3.691819,43.976 1.879429,44.904 0,45.679 Z" id="Path"></path>
      <path d="M82.330249,156.903079 C81.871449,157.012 79.424249,148.706 75.775349,135.178 C72.126349,121.649 67.472349,102.897 62.468749,82.156 C61.660249,78.768 60.873749,75.446 60.108949,72.277 L61.092249,73.436 C43.612349,65.983 28.317449,59.251 17.392449,54.268 C6.467559,49.285 -0.087397,46.072 0.021852,45.679 C0.131101,45.285 7.079359,47.864 18.266449,52.236 C29.453649,56.607 44.923349,62.967 62.403149,70.332 L63.189749,70.66 L63.386449,71.49 L65.768049,81.347 C70.771649,102.11 75.119849,120.928 78.091349,134.61 C81.062949,148.291 82.789149,156.793 82.330249,156.903079 Z" id="Path"></path>
      <path d="M61.835049,71.884 C61.354349,71.075 77.654349,60.541 98.258749,48.367 C118.862949,36.193 135.971949,26.948 136.430949,27.779 C136.888949,28.609 120.610949,39.122 100.006949,51.296 C79.402349,63.469 62.403149,72.692 61.835049,71.884 Z" id="Path"></path>
    </g>
    <g id="cube1" transform="translate(435.181662, 93.950600)" fill="#911C81" fill-rule="nonzero">
      <path d="M0.00233840483,45.6784 C1.5793384,44.3974 3.2603384,43.2494 5.0273384,42.2474 C8.3923384,40.0614 13.3743384,37.0454 19.7763384,33.1334 C32.6023384,25.2874 51.1523384,14.0754 73.9423384,0.3497 L74.5103384,0 L75.1213384,0.2623 L137.044338,26.2264 L137.787338,26.5324 L137.983338,27.3194 C144.320338,53.5464 151.268338,82.2214 158.522338,112.2944 L158.828338,113.5184 L157.736338,114.1744 L83.1183384,158.1914 L82.4193384,158.6064 L81.6983384,158.2784 L19.9293384,131.8114 L19.3173384,131.5494 L19.1863384,130.9154 C13.0463384,104.6884 8.1303384,83.4664 4.8093384,68.6924 C3.1483384,61.3054 1.8813384,55.5794 1.0723384,51.6454 C0.557338405,49.6664 0.207338405,47.6494 0.0233384048,45.6124 C0.786338405,47.5034 1.3853384,49.4554 1.8153384,51.4484 C2.8643384,55.3164 4.3723384,61.0214 6.1853384,68.3644 C9.9433384,83.0294 15.2313384,104.2294 21.6773384,130.3034 C21.4143384,130.0194 21.1743384,129.7354 20.9123384,129.4074 L82.9003384,155.3724 L81.4583384,155.3724 L156.010338,111.2454 L155.201338,113.1254 C148.100338,83.0294 141.152338,54.2674 134.990338,28.1934 L135.930338,29.2864 L74.0943384,2.6883 L75.2743384,2.6883 C52.3323384,16.0644 33.5853384,26.9264 20.5193384,34.3794 C13.9643384,38.1164 8.8943384,40.9354 5.4203384,42.9024 C3.6903384,43.9704 1.8783384,44.8984 0.00233840483,45.6784 Z" id="Path"></path>
      <path d="M82.3103384,156.8364 C81.8513384,156.8364 79.4043384,148.6404 75.7553384,135.1114 C72.1063384,121.5824 67.4523384,102.8304 62.4483384,82.0894 C61.6403384,78.7024 60.8313384,75.3804 60.0893384,72.2114 L61.0723384,73.3914 C43.5923384,65.9164 28.2973384,59.1854 17.3723384,54.2014 C6.4473384,49.2184 -0.107661595,46.0064 0.00133840483,45.6124 C0.111338405,45.2194 7.0373384,47.7984 18.2463384,52.1694 C29.4553384,56.5404 44.9903384,62.9444 62.4703384,70.3094 L63.2573384,70.6374 L63.4533384,71.4674 C64.2183384,74.6374 65.0273384,78.0244 65.8573384,81.3244 C70.8613384,102.0874 75.2093384,120.9054 78.1803384,134.5874 C81.1523384,148.2684 82.7693384,156.7264 82.3103384,156.8364 Z" id="Path"></path>
      <path d="M61.8153384,71.9054 C61.3343384,71.0964 77.6563384,60.5624 98.2603384,48.3884 C118.865338,36.2154 135.951338,26.9704 136.432338,27.8004 C136.913338,28.6314 120.591338,39.1214 100.030338,51.2294 C79.4693384,63.3374 62.2953384,72.6264 61.8153384,71.9054 Z" id="Path"></path>
    </g>
  </g>
</svg>