<svg width="83" height="83" xmlns="http://www.w3.org/2000/svg"><g fill="none" fill-rule="evenodd"><g opacity=".5" stroke-linecap="round" stroke-width="2.27"><path stroke="#EEE" d="M37.186 81.03L4 61.881V31.22M4 23.565L37.186 4.407l.712.415 1.56.892 30.904 17.85V61.88L44.434 76.846"/><path stroke="#EEE" d="M4 23.566L37.186 42.84l26.252-15.254"/><path stroke="#E5E5E5" d="M37.186 81.029V42.84"/></g><path stroke="#FFF" stroke-width="2.27" stroke-linecap="round" d="M44.028 81.03L10.843 61.881V31.22M10.843 23.565L44.028 4.407l.713.415 1.56.892 30.904 17.85V61.88L50.79 77.125"/><path stroke="#FFF" stroke-width="2.27" stroke-linecap="round" d="M10.843 23.566L44.028 42.84l26.253-15.254M44.028 81.029V42.84"/><path d="M14.25 62.124a3.408 3.408 0 11-6.816-.036 3.408 3.408 0 016.816.036zM47.427 41.975a3.408 3.408 0 11-3.399-3.399 3.399 3.399 0 013.399 3.399zM80.613 61.882a3.408 3.408 0 11-3.408-3.408 3.398 3.398 0 013.408 3.408zM47.427 4.408a3.408 3.408 0 11-6.815 0 3.408 3.408 0 016.815 0z" fill="#FFF" fill-rule="nonzero"/></g></svg>