<svg width="99" height="111" viewBox="0 0 99 111" fill="none" xmlns="http://www.w3.org/2000/svg">
<g clip-path="url(#clip0)">
<path fill-rule="evenodd" clip-rule="evenodd" d="M59.004 12.7086L81.8768 25.8693C82.5372 25.173 83.295 24.5754 84.1268 24.095C88.8703 21.3773 94.9209 22.9909 97.6762 27.7183C100.403 32.4457 98.7842 38.475 94.0403 41.2208C93.2147 41.6946 92.3251 42.0476 91.3986 42.269V68.6C92.3149 68.8218 93.1949 69.1724 94.0121 69.6413C98.7842 72.3871 100.403 78.4167 97.648 83.1441C94.9209 87.8712 88.842 89.4848 84.0982 86.7675C83.1791 86.242 82.3512 85.5723 81.6464 84.7839L58.9127 97.8637C59.2456 98.8682 59.4147 99.9196 59.4135 100.978C59.4135 106.412 54.9825 110.857 49.5 110.857C44.0175 110.857 39.5864 106.441 39.5864 100.978C39.5864 100.006 39.7264 99.0684 39.9875 98.1824L17.1208 85.0256C16.4677 85.708 15.7205 86.2945 14.9018 86.7675C10.1297 89.4848 4.07909 87.8712 1.35195 83.1441C-1.37481 78.4167 0.244384 72.3871 4.98788 69.6413C5.80505 69.1723 6.68501 68.8216 7.60132 68.5996V42.269C6.6749 42.0476 5.78523 41.6946 4.95965 41.2208C0.215767 38.5035 -1.40342 32.4457 1.32372 27.7183C4.05086 22.9909 10.1293 21.3773 14.8732 24.095C15.7004 24.5728 16.4545 25.1666 17.1123 25.8581L39.9917 12.6939C39.722 11.7817 39.5855 10.8355 39.5864 9.88454C39.5864 4.4218 44.0175 0.00537109 49.5 0.00537109C54.9825 0.00537109 59.4135 4.42142 59.4135 9.88454C59.4135 10.8665 59.2704 11.8141 59.004 12.7086ZM56.621 16.7635L79.5484 29.955C79.1833 31.2268 79.0786 32.5587 79.2405 33.8717C79.4024 35.1846 79.8276 36.4516 80.4908 37.5975C81.8865 40.0169 84.16 41.6208 86.6834 42.2459V68.6096C86.5546 68.6408 86.4266 68.6751 86.2994 68.7113L56.3546 17.0275C56.4451 16.9412 56.534 16.8533 56.621 16.7639V16.7635ZM42.6516 17.0333L12.7072 68.7164C12.5777 68.679 12.4475 68.6444 12.3166 68.6123V42.2459C14.8399 41.6208 17.1134 40.0169 18.5091 37.5975C19.1736 36.4494 19.5992 35.1797 19.7605 33.8641C19.9218 32.5486 19.8154 31.2141 19.4477 29.9404L42.3685 16.7527C42.4609 16.8479 42.5553 16.9416 42.6516 17.0329V17.0333ZM52.27 19.3745L82.2075 71.046C81.5217 71.6981 80.9339 72.4453 80.4622 73.2646C79.9917 74.0789 79.6399 74.9558 79.4173 75.869H19.5834C19.3606 74.9558 19.0085 74.0789 18.5377 73.2646C18.0644 72.4509 17.4777 71.7082 16.7952 71.0587L46.7384 19.3768C47.6361 19.6344 48.5658 19.7646 49.5 19.7637C50.4617 19.7637 51.391 19.6281 52.27 19.3745ZM56.8314 94.322L79.6099 81.2161C79.5416 81.0021 79.4806 80.7859 79.427 80.5679H19.5707C19.5389 80.6962 19.5045 80.8234 19.4678 80.9502L42.3577 94.1205C43.282 93.1626 44.3913 92.4011 45.6188 91.8817C46.8462 91.3624 48.1665 91.0959 49.5 91.0984C50.8801 91.0959 52.2455 91.3815 53.5081 91.9368C54.7708 92.492 55.9029 93.3045 56.8314 94.322Z" fill="url(#paint0_linear)"/>
</g>
<defs>
<linearGradient id="paint0_linear" x1="49.5" y1="0.00537109" x2="49.5" y2="110.857" gradientUnits="userSpaceOnUse">
<stop stop-color="#911C81"/>
<stop offset="0.9999" stop-color="#2CD5C4"/>
<stop offset="1" stop-color="#911C81" stop-opacity="0"/>
</linearGradient>
<clipPath id="clip0">
<rect width="99" height="111" fill="white"/>
</clipPath>
</defs>
</svg>
