<svg width="100" height="100" viewBox="0 0 100 100" fill="none" xmlns="http://www.w3.org/2000/svg">
<path d="M72.7695 43.609H35.8855V26.7336C35.8855 24.251 36.865 21.9225 38.6437 20.1775C40.4214 18.4334 42.7673 17.5092 45.2541 17.5457C50.2228 17.6398 54.265 21.8496 54.265 26.9297V28.3209C54.265 33.1578 58.2001 37.0928 63.0369 37.0928C67.8738 37.0928 71.8087 33.1576 71.8087 28.3209V26.7336C71.8087 19.5541 68.9921 12.8105 63.8779 7.7457C58.8279 2.74434 52.1611 0 45.0783 0C44.9898 0 44.9005 0.000585938 44.8119 0.00117188C30.2164 0.142578 18.3416 12.2734 18.3416 27.0424V43.609H17.3808C12.6132 43.609 8.73413 47.4879 8.73413 52.2557V91.3533C8.73433 96.1211 12.6132 100 17.381 100H72.7695C77.5371 100 81.4162 96.1211 81.4162 91.3533V52.2557C81.416 47.4879 77.5371 43.609 72.7695 43.609ZM23.3541 27.0424C23.3541 15.0105 33.0017 5.12832 44.8603 5.01328C44.9326 5.0127 45.0044 5.0123 45.0765 5.0123C50.8296 5.0123 56.2466 7.24297 60.3505 11.307C64.507 15.4232 66.7958 20.9018 66.7958 26.7334V28.3209C66.7958 30.3938 65.1093 32.0803 63.0365 32.0803C60.9636 32.0803 59.2771 30.3938 59.2771 28.3209V26.9297C59.2771 19.1375 53.0287 12.6799 45.3488 12.5342C41.5001 12.4602 37.8789 13.9051 35.133 16.5996C32.3859 19.2953 30.8728 22.8941 30.8728 26.734V43.6092H23.3541V27.0424ZM76.4035 91.3533C76.4035 93.357 74.7732 94.9875 72.7693 94.9875H17.381C15.3773 94.9875 13.7468 93.3572 13.7468 91.3533V52.2557C13.7468 50.252 15.3771 48.6215 17.381 48.6215H72.7695C74.7732 48.6215 76.4037 50.2518 76.4037 52.2557V91.3533H76.4035Z" fill="url(#paint0_linear)"/>
<path d="M45.0751 53.5507C38.9024 53.5507 33.8804 58.5725 33.8804 64.7452C33.8804 67.9151 35.2341 70.9264 37.5563 73.0354V87.5522C37.5563 88.9362 38.6784 90.0585 40.0626 90.0585H50.0876C51.4718 90.0585 52.5939 88.9362 52.5939 87.5522V73.0354C54.9161 70.9264 56.2698 67.9151 56.2698 64.7452C56.2696 58.5725 51.2478 53.5507 45.0751 53.5507ZM48.6396 69.7942C47.9759 70.2641 47.5814 71.0268 47.5814 71.8399V85.046H42.5689V71.8399C42.5689 71.0268 42.1743 70.2641 41.5106 69.7942C39.8716 68.6339 38.8931 66.7466 38.8931 64.745C38.8931 61.3362 41.6663 58.563 45.0753 58.563C48.4843 58.563 51.2575 61.3362 51.2575 64.745C51.2571 66.7464 50.2786 68.6339 48.6396 69.7942Z" fill="url(#paint1_linear)"/>
<path d="M90.0121 42.2531L81.2578 37.1988C80.0594 36.5068 78.5266 36.9174 77.8342 38.1162C77.142 39.315 77.5527 40.8475 78.7516 41.5399L87.5059 46.5941C87.9006 46.8219 88.3314 46.9305 88.7566 46.9305C89.6228 46.9305 90.4652 46.4809 90.9293 45.6768C91.6217 44.4779 91.2107 42.9453 90.0121 42.2531Z" fill="url(#paint2_linear)"/>
<path d="M80.0068 31.8507C80.4318 31.8507 80.8628 31.7422 81.2576 31.5144L90.0119 26.4603C91.2107 25.7683 91.6215 24.2355 90.9293 23.0367C90.2373 21.8379 88.7043 21.4269 87.5056 22.1193L78.7513 27.1734C77.5525 27.8654 77.1417 29.3982 77.8339 30.597C78.2982 31.4011 79.1406 31.8507 80.0068 31.8507Z" fill="url(#paint3_linear)"/>
<defs>
<linearGradient id="paint0_linear" x1="45.0751" y1="0" x2="45.0751" y2="100" gradientUnits="userSpaceOnUse">
<stop stop-color="#911C81"/>
<stop offset="1" stop-color="#2CD5C4"/>
</linearGradient>
<linearGradient id="paint1_linear" x1="45.0751" y1="53.5507" x2="45.0751" y2="90.0585" gradientUnits="userSpaceOnUse">
<stop stop-color="#911C81"/>
<stop offset="1" stop-color="#2CD5C4"/>
</linearGradient>
<linearGradient id="paint2_linear" x1="84.3818" y1="36.8627" x2="84.3818" y2="46.9305" gradientUnits="userSpaceOnUse">
<stop stop-color="#911C81"/>
<stop offset="1" stop-color="#2CD5C4"/>
</linearGradient>
<linearGradient id="paint3_linear" x1="84.3816" y1="21.783" x2="84.3816" y2="31.8507" gradientUnits="userSpaceOnUse">
<stop stop-color="#911C81"/>
<stop offset="1" stop-color="#2CD5C4"/>
</linearGradient>
</defs>
</svg>
