<svg width="104" height="104" viewBox="0 0 104 104" fill="none" xmlns="http://www.w3.org/2000/svg">
<g clip-path="url(#clip0)">
<path d="M100.609 12.4347H3.39137C1.51836 12.4347 0 13.9533 0 15.8261V88.1739C0 90.0467 1.51836 91.5653 3.39137 91.5653H100.609C102.482 91.5653 104 90.0469 104 88.1739V15.8261C104 13.9533 102.482 12.4347 100.609 12.4347ZM97.2175 84.7825H6.78255V39.4924H97.2172V84.7825H97.2175ZM97.2175 32.7098H6.78255V19.2174H97.2172V32.7098H97.2175Z" fill="url(#paint0_linear)"/>
<path d="M90.0996 20.9722C87.6063 20.9722 85.5779 23.0006 85.5779 25.4939C85.5779 27.9873 87.6061 30.0157 90.0996 30.0157C92.593 30.0157 94.6214 27.9873 94.6214 25.4939C94.6214 23.0006 92.593 20.9722 90.0996 20.9722Z" fill="url(#paint1_linear)"/>
<path d="M77.7818 20.9722C75.2884 20.9722 73.26 23.0006 73.26 25.4939C73.26 27.9873 75.2884 30.0157 77.7818 30.0157C80.2751 30.0157 82.3035 27.9873 82.3035 25.4939C82.3035 23.0006 80.2751 20.9722 77.7818 20.9722Z" fill="url(#paint2_linear)"/>
<path d="M65.4642 20.9722C62.9708 20.9722 60.9424 23.0006 60.9424 25.4939C60.9424 27.9873 62.9706 30.0157 65.4642 30.0157C67.9575 30.0157 69.9859 27.9873 69.9859 25.4939C69.9859 23.0006 67.9575 20.9722 65.4642 20.9722Z" fill="url(#paint3_linear)"/>
<path d="M47.8256 59.5549L36.7242 50.1087C35.2978 48.8949 33.1575 49.0671 31.9436 50.4939C30.7297 51.9202 30.9022 54.0605 32.3288 55.2744L40.3946 62.1378L32.3288 69.0012C30.9022 70.2151 30.73 72.3552 31.9436 73.7817C33.1573 75.2081 35.2976 75.3805 36.7242 74.1669L47.8256 64.7207C49.416 63.3673 49.416 60.9079 47.8256 59.5549Z" fill="url(#paint4_linear)"/>
<path d="M69.4731 68.1923H56.0762C54.2034 68.1923 52.6848 69.7106 52.6848 71.5836C52.6848 73.4567 54.2032 74.975 56.0762 74.975H69.4731C71.3459 74.975 72.8645 73.4567 72.8645 71.5836C72.8645 69.7106 71.3459 68.1923 69.4731 68.1923Z" fill="url(#paint5_linear)"/>
</g>
<defs>
<linearGradient id="paint0_linear" x1="52.0001" y1="12.4347" x2="52.0001" y2="91.5653" gradientUnits="userSpaceOnUse">
<stop stop-color="#911C81"/>
<stop offset="1" stop-color="#2CD5C4"/>
</linearGradient>
<linearGradient id="paint1_linear" x1="90.0996" y1="20.9722" x2="90.0996" y2="30.0157" gradientUnits="userSpaceOnUse">
<stop stop-color="#911C81"/>
<stop offset="1" stop-color="#2CD5C4"/>
</linearGradient>
<linearGradient id="paint2_linear" x1="77.7818" y1="20.9722" x2="77.7818" y2="30.0157" gradientUnits="userSpaceOnUse">
<stop stop-color="#911C81"/>
<stop offset="1" stop-color="#2CD5C4"/>
</linearGradient>
<linearGradient id="paint3_linear" x1="65.4641" y1="20.9722" x2="65.4641" y2="30.0157" gradientUnits="userSpaceOnUse">
<stop stop-color="#911C81"/>
<stop offset="1" stop-color="#2CD5C4"/>
</linearGradient>
<linearGradient id="paint4_linear" x1="40.0767" y1="49.3" x2="40.0767" y2="74.9753" gradientUnits="userSpaceOnUse">
<stop stop-color="#911C81"/>
<stop offset="1" stop-color="#2CD5C4"/>
</linearGradient>
<linearGradient id="paint5_linear" x1="62.7746" y1="68.1923" x2="62.7746" y2="74.975" gradientUnits="userSpaceOnUse">
<stop stop-color="#911C81"/>
<stop offset="1" stop-color="#2CD5C4"/>
</linearGradient>
<clipPath id="clip0">
<rect width="104" height="104" fill="white"/>
</clipPath>
</defs>
</svg>
