<svg width="54" height="56" viewBox="0 0 54 56" fill="none" xmlns="http://www.w3.org/2000/svg">
<g opacity="0.5">
<path d="M24.5244 54.3194L2 41.3224V39.0339V20.5114" stroke="#2CD5C4" stroke-width="2.27" stroke-miterlimit="10" stroke-linecap="round"/>
<path d="M2 15.3155L24.5243 2.31248L25.0078 2.59395L26.0664 3.19974L47.0426 15.3155V41.3216L29.4441 51.4793" stroke="#2CD5C4" stroke-width="2.27" stroke-miterlimit="10" stroke-linecap="round"/>
<path d="M2 15.3161L24.5244 28.3987L42.3431 18.0452" stroke="#2CD5C4" stroke-width="2.27" stroke-miterlimit="10" stroke-linecap="round"/>
<path d="M24.5244 54.3187V28.3983" stroke="#2CD5C4" stroke-width="2.27" stroke-miterlimit="10" stroke-linecap="round"/>
</g>
<path d="M29.1688 54.3194L6.64441 41.3225V39.0339V20.5115" stroke="#2CD5C4" stroke-width="2.27" stroke-miterlimit="10" stroke-linecap="round"/>
<path d="M6.64441 15.3155L29.1688 2.31248L29.6522 2.59395L30.7108 3.19974L51.687 15.3155V41.3216L33.7581 51.669" stroke="#2CD5C4" stroke-width="2.27" stroke-miterlimit="10" stroke-linecap="round"/>
<path d="M6.64441 15.3164L29.1688 28.399L46.9875 18.0455" stroke="#2CD5C4" stroke-width="2.27" stroke-miterlimit="10" stroke-linecap="round"/>
<path d="M29.1687 54.3188V28.3983" stroke="#2CD5C4" stroke-width="2.27" stroke-miterlimit="10" stroke-linecap="round"/>
<path d="M8.95742 41.4874C8.955 41.9444 8.81729 42.3904 8.56167 42.7691C8.30605 43.1479 7.94396 43.4424 7.52111 43.6156C7.09825 43.7888 6.63357 43.8329 6.1857 43.7423C5.73783 43.6516 5.32684 43.4304 5.00458 43.1064C4.68232 42.7825 4.46324 42.3703 4.37498 41.922C4.28672 41.4736 4.33323 41.0092 4.50865 40.5872C4.68407 40.1653 4.98054 39.8048 5.36064 39.5512C5.74075 39.2975 6.18746 39.1622 6.6444 39.1622C6.94919 39.1622 7.25096 39.2224 7.53239 39.3394C7.81382 39.4564 8.06935 39.6279 8.28429 39.844C8.49924 40.0601 8.66936 40.3165 8.78487 40.5985C8.90039 40.8806 8.95903 41.1827 8.95742 41.4874Z" fill="#2CD5C4"/>
<path d="M31.4755 27.8112C31.4767 28.2692 31.3419 28.7172 31.0882 29.0985C30.8346 29.4798 30.4734 29.7772 30.0505 29.9531C29.6276 30.1289 29.162 30.1752 28.7128 30.0862C28.2635 29.9971 27.8508 29.7767 27.527 29.4528C27.2031 29.129 26.9827 28.7163 26.8936 28.267C26.8046 27.8178 26.8509 27.3522 27.0267 26.9293C27.2026 26.5064 27.5 26.1452 27.8813 25.8915C28.2626 25.6379 28.7106 25.5031 29.1686 25.5043C29.7804 25.5043 30.3672 25.7473 30.7998 26.18C31.2325 26.6126 31.4755 27.1993 31.4755 27.8112Z" fill="#2CD5C4"/>
<path d="M53.9999 41.3225C53.9999 41.78 53.8643 42.2272 53.6101 42.6076C53.356 42.988 52.9947 43.2844 52.5721 43.4595C52.1494 43.6346 51.6843 43.6804 51.2357 43.5911C50.787 43.5019 50.3748 43.2816 50.0514 42.9581C49.7279 42.6346 49.5076 42.2225 49.4183 41.7738C49.3291 41.3251 49.3749 40.86 49.55 40.4374C49.725 40.0147 50.0215 39.6535 50.4019 39.3993C50.7822 39.1452 51.2294 39.0095 51.6869 39.0095C51.9909 39.0087 52.292 39.068 52.573 39.184C52.854 39.2999 53.1093 39.4703 53.3243 39.6852C53.5392 39.9001 53.7096 40.1554 53.8255 40.4364C53.9415 40.7174 54.0007 41.0186 53.9999 41.3225Z" fill="#2CD5C4"/>
<path d="M31.4755 2.31302C31.4755 2.77075 31.3397 3.21819 31.0853 3.5987C30.8308 3.9792 30.4692 4.27566 30.0462 4.45055C29.6232 4.62543 29.1578 4.67088 28.709 4.58113C28.2602 4.49139 27.848 4.27049 27.5248 3.94639C27.2016 3.6223 26.9817 3.20959 26.8932 2.76051C26.8046 2.31142 26.8513 1.84616 27.0273 1.42362C27.2033 1.00108 27.5007 0.640263 27.8819 0.386843C28.2631 0.133423 28.7109 -0.00120283 29.1686 8.0977e-06C29.781 0.00162818 30.3678 0.246035 30.8002 0.679634C31.2327 1.11323 31.4755 1.70063 31.4755 2.31302Z" fill="#2CD5C4"/>
</svg>
