<svg width="120" height="125" viewBox="0 0 120 125" fill="none" xmlns="http://www.w3.org/2000/svg">
<g opacity="0.5">
<path d="M53.0038 123L2 93.5698V88.3877V46.4457" stroke="#2CD5C4" stroke-width="2.27" stroke-miterlimit="10" stroke-linecap="round"/>
<path d="M2 34.6801L53.0038 5.23618L54.0984 5.87355L56.4955 7.24529L103.994 34.6801V93.5679L64.144 116.569" stroke="#2CD5C4" stroke-width="2.27" stroke-miterlimit="10" stroke-linecap="round"/>
<path d="M2 34.6816L53.0038 64.3056L93.3523 40.8613" stroke="#2CD5C4" stroke-width="2.27" stroke-miterlimit="10" stroke-linecap="round"/>
<path d="M53.0039 122.999V64.3047" stroke="#2CD5C4" stroke-width="2.27" stroke-miterlimit="10" stroke-linecap="round"/>
</g>
<path d="M63.5204 123L12.5166 93.5697V88.3875V46.4456" stroke="#2CD5C4" stroke-width="2.27" stroke-miterlimit="10" stroke-linecap="round"/>
<path d="M12.5166 34.6801L63.5204 5.23618L64.615 5.87355L67.0121 7.24529L114.51 34.6801V93.5679L73.9123 116.998" stroke="#2CD5C4" stroke-width="2.27" stroke-miterlimit="10" stroke-linecap="round"/>
<path d="M12.5166 34.6819L63.5204 64.306L103.869 40.8617" stroke="#2CD5C4" stroke-width="2.27" stroke-miterlimit="10" stroke-linecap="round"/>
<path d="M63.5203 122.998V64.3047" stroke="#2CD5C4" stroke-width="2.27" stroke-miterlimit="10" stroke-linecap="round"/>
<path d="M17.7541 93.9436C17.7486 94.9782 17.4368 95.9881 16.858 96.8458C16.2791 97.7034 15.4592 98.3704 14.5017 98.7626C13.5442 99.1548 12.492 99.2546 11.4779 99.0494C10.4637 98.8441 9.53305 98.3431 8.80334 97.6096C8.07362 96.876 7.57754 95.9427 7.37768 94.9275C7.17783 93.9123 7.28316 92.8606 7.68037 91.9052C8.07759 90.9497 8.74891 90.1334 9.60961 89.5591C10.4703 88.9848 11.4818 88.6783 12.5165 88.6783C13.2067 88.6783 13.89 88.8147 14.5273 89.0796C15.1645 89.3445 15.7432 89.7328 16.2299 90.2221C16.7166 90.7114 17.1018 91.2921 17.3634 91.9307C17.625 92.5694 17.7577 93.2534 17.7541 93.9436Z" fill="#2CD5C4"/>
<path d="M68.7439 62.9751C68.7466 64.0121 68.4414 65.0267 67.867 65.8901C67.2925 66.7535 66.4747 67.427 65.5171 67.8251C64.5595 68.2232 63.5052 68.3281 62.4879 68.1265C61.4707 67.9248 60.5362 67.4257 59.8028 66.6924C59.0695 65.9591 58.5704 65.0246 58.3688 64.0073C58.1671 62.99 58.272 61.9358 58.6701 60.9782C59.0683 60.0206 59.7417 59.2027 60.6052 58.6283C61.4686 58.0538 62.4831 57.7486 63.5202 57.7514C64.9056 57.7514 66.2343 58.3017 67.2139 59.2813C68.1935 60.261 68.7439 61.5896 68.7439 62.9751Z" fill="#2CD5C4"/>
<path d="M119.748 93.5703C119.748 94.6062 119.441 95.6188 118.865 96.4801C118.29 97.3414 117.472 98.0127 116.515 98.4091C115.558 98.8056 114.505 98.9093 113.489 98.7072C112.473 98.5051 111.539 98.0063 110.807 97.2738C110.075 96.5413 109.576 95.6081 109.374 94.5921C109.171 93.5761 109.275 92.523 109.672 91.566C110.068 90.6089 110.739 89.7909 111.601 89.2154C112.462 88.6399 113.475 88.3327 114.511 88.3327C115.199 88.3309 115.881 88.4651 116.517 88.7277C117.153 88.9902 117.731 89.376 118.218 89.8627C118.705 90.3494 119.091 90.9275 119.353 91.5638C119.616 92.2001 119.75 92.882 119.748 93.5703Z" fill="#2CD5C4"/>
<path d="M68.7439 5.23757C68.7439 6.27405 68.4364 7.28722 67.8602 8.14883C67.2841 9.01044 66.4653 9.68174 65.5075 10.0777C64.5496 10.4738 63.4958 10.5767 62.4795 10.3734C61.4631 10.1702 60.5299 9.67002 59.7979 8.93615C59.066 8.20228 58.5683 7.26774 58.3678 6.25085C58.1672 5.23395 58.2729 4.18042 58.6715 3.22363C59.07 2.26683 59.7435 1.4498 60.6066 0.875961C61.4697 0.302121 62.4837 -0.00272367 63.5202 1.83363e-05C64.9069 0.00368682 66.2355 0.557118 67.2148 1.53895C68.194 2.52079 68.7439 3.85088 68.7439 5.23757Z" fill="#2CD5C4"/>
</svg>
