<svg width="65" height="67" viewBox="0 0 65 67" fill="none" xmlns="http://www.w3.org/2000/svg">
<g opacity="0.5">
<path d="M28.9532 65.0001L2 49.4476V46.7091V24.5446" stroke="#2CD5C4" stroke-width="2.27" stroke-miterlimit="10" stroke-linecap="round"/>
<path d="M2 18.3269L28.9532 2.76714L29.5317 3.10396L30.7985 3.82886L55.8992 18.3269V49.4465L34.8403 61.6015" stroke="#2CD5C4" stroke-width="2.27" stroke-miterlimit="10" stroke-linecap="round"/>
<path d="M2 18.3278L28.9532 33.9828L50.2757 21.5935" stroke="#2CD5C4" stroke-width="2.27" stroke-miterlimit="10" stroke-linecap="round"/>
<path d="M28.9534 64.9993V33.9822" stroke="#2CD5C4" stroke-width="2.27" stroke-miterlimit="10" stroke-linecap="round"/>
</g>
<path d="M34.5109 65L7.55762 49.4475V46.709V24.5445" stroke="#2CD5C4" stroke-width="2.27" stroke-miterlimit="10" stroke-linecap="round"/>
<path d="M7.55762 18.3269L34.5109 2.76714L35.0893 3.10396L36.3561 3.82886L61.4568 18.3269V49.4466L40.0026 61.8285" stroke="#2CD5C4" stroke-width="2.27" stroke-miterlimit="10" stroke-linecap="round"/>
<path d="M7.55762 18.3279L34.5109 33.9829L55.8333 21.5937" stroke="#2CD5C4" stroke-width="2.27" stroke-miterlimit="10" stroke-linecap="round"/>
<path d="M34.5107 64.9992V33.9821" stroke="#2CD5C4" stroke-width="2.27" stroke-miterlimit="10" stroke-linecap="round"/>
<path d="M10.3254 49.6449C10.3225 50.1917 10.1577 50.7254 9.85182 51.1786C9.54594 51.6318 9.11266 51.9843 8.60666 52.1916C8.10066 52.3988 7.54461 52.4515 7.00868 52.3431C6.47274 52.2347 5.98094 51.9699 5.59531 51.5822C5.20969 51.1946 4.94753 50.7014 4.84192 50.1649C4.7363 49.6284 4.79196 49.0726 5.00188 48.5677C5.21179 48.0628 5.56655 47.6314 6.02139 47.3279C6.47623 47.0244 7.01078 46.8624 7.55757 46.8624C7.92228 46.8624 8.2834 46.9345 8.62016 47.0745C8.95693 47.2145 9.2627 47.4197 9.51991 47.6783C9.77712 47.9369 9.98069 48.2437 10.1189 48.5812C10.2571 48.9187 10.3273 49.2802 10.3254 49.6449Z" fill="#2CD5C4"/>
<path d="M37.2712 33.2795C37.2727 33.8275 37.1114 34.3637 36.8078 34.82C36.5042 35.2762 36.072 35.6321 35.566 35.8425C35.0599 36.0529 34.5028 36.1084 33.9652 36.0018C33.4276 35.8952 32.9338 35.6315 32.5463 35.244C32.1587 34.8564 31.895 34.3626 31.7884 33.825C31.6819 33.2874 31.7373 32.7303 31.9477 32.2242C32.1581 31.7182 32.514 31.286 32.9703 30.9824C33.4265 30.6788 33.9627 30.5176 34.5107 30.519C35.2429 30.519 35.945 30.8098 36.4627 31.3275C36.9804 31.8452 37.2712 32.5474 37.2712 33.2795Z" fill="#2CD5C4"/>
<path d="M64.2246 49.4478C64.2246 49.9953 64.0623 50.5304 63.7581 50.9856C63.454 51.4407 63.0217 51.7955 62.516 52.005C62.0102 52.2145 61.4537 52.2693 60.9168 52.1625C60.3799 52.0557 59.8867 51.7921 59.4996 51.405C59.1126 51.0179 58.8489 50.5247 58.7421 49.9878C58.6354 49.4509 58.6902 48.8944 58.8997 48.3887C59.1091 47.8829 59.4639 47.4506 59.9191 47.1465C60.3742 46.8424 60.9094 46.68 61.4568 46.68C61.8205 46.6791 62.1809 46.75 62.5171 46.8888C62.8534 47.0275 63.1589 47.2313 63.4161 47.4886C63.6733 47.7458 63.8771 48.0513 64.0159 48.3875C64.1546 48.7237 64.2256 49.0841 64.2246 49.4478Z" fill="#2CD5C4"/>
<path d="M37.2712 2.76782C37.2712 3.31556 37.1087 3.85098 36.8043 4.3063C36.4998 4.76162 36.0671 5.11637 35.5609 5.32564C35.0547 5.53492 34.4978 5.5893 33.9607 5.48191C33.4236 5.37452 32.9305 5.11018 32.5437 4.72236C32.1569 4.33454 31.8939 3.84068 31.7879 3.3033C31.6819 2.76591 31.7378 2.20917 31.9484 1.70354C32.159 1.19792 32.5149 0.766156 32.971 0.462907C33.4272 0.159658 33.963 -0.00143934 34.5107 9.68993e-06C35.2435 0.00194832 35.9457 0.294412 36.4631 0.813268C36.9806 1.33212 37.2712 2.03502 37.2712 2.76782Z" fill="#2CD5C4"/>
</svg>
